<svg viewBox = "0 0 640.67 379.38" width="640.67" height="379.38" xmlns="http://www.w3.org/2000/svg"><g transform="matrix(1 0 0 1 320.33 189.69)"  ><g style=""   ><g transform="matrix(1 0 0 1 -8.06 -103.13)" id="d"  ><line style="stroke: rgb(245,247,250); stroke-width: 1.44; stroke-dasharray: none; stroke-linecap: butt; stroke-dashoffset: 0; stroke-linejoin: miter; stroke-miterlimit: 10; fill: none; fill-rule: nonzero; opacity: 1;"  x1="-213.225" y1="0" x2="213.225" y2="0" /></g><g transform="matrix(1 0 0 1 -8.06 0.83)" id="d"  ><path style="stroke: rgb(245,247,250); stroke-width: 1.44; stroke-dasharray: none; stroke-linecap: butt; stroke-dashoffset: 0; stroke-linejoin: miter; stroke-miterlimit: 10; fill: none; fill-rule: nonzero; opacity: 1;"  transform=" translate(-312.28, -190.52)" d="M 519.93 322.45 L 104.62 322.45 C 101.54 322.45 99.05000000000001 319.96 99.05000000000001 316.88 L 99.05000000000001 64.17 C 99.05000000000001 61.09 101.54 58.6 104.62 58.6 L 519.9300000000001 58.6 C 523.0100000000001 58.6 525.5000000000001 61.09 525.5000000000001 64.17 L 525.5000000000001 316.88 C 525.5000000000001 319.96 523.0100000000001 322.45 519.9300000000001 322.45 Z" stroke-linecap="round" /></g><g transform="matrix(1 0 0 1 -197.08 -116.82)" id="d"  ><path style="stroke: rgb(245,247,250); stroke-width: 1.44; stroke-dasharray: none; stroke-linecap: butt; stroke-dashoffset: 0; stroke-linejoin: miter; stroke-miterlimit: 10; fill: none; fill-rule: nonzero; opacity: 1;"  transform=" translate(-123.25, -72.87)" d="M 127.15 72.87 C 127.22 77.93 119.27000000000001 77.93 119.35000000000001 72.87 C 119.28000000000002 67.81 127.23 67.81 127.15 72.87 Z" stroke-linecap="round" /></g><g transform="matrix(1 0 0 1 -181.92 -116.82)" id="d"  ><path style="stroke: rgb(245,247,250); stroke-width: 1.44; stroke-dasharray: none; stroke-linecap: butt; stroke-dashoffset: 0; stroke-linejoin: miter; stroke-miterlimit: 10; fill: none; fill-rule: nonzero; opacity: 1;"  transform=" translate(-138.41, -72.87)" d="M 142.31 72.87 C 142.38 77.93 134.43 77.93 134.51 72.87 C 134.44 67.81 142.39 67.81 142.31 72.87 Z" stroke-linecap="round" /></g><g transform="matrix(1 0 0 1 -166.76 -116.82)" id="d"  ><path style="stroke: rgb(245,247,250); stroke-width: 1.44; stroke-dasharray: none; stroke-linecap: butt; stroke-dashoffset: 0; stroke-linejoin: miter; stroke-miterlimit: 10; fill: none; fill-rule: nonzero; opacity: 1;"  transform=" translate(-153.57, -72.87)" d="M 157.47 72.87 C 157.54 77.93 149.59 77.93 149.67 72.87 C 149.6 67.81 157.54999999999998 67.81 157.47 72.87 Z" stroke-linecap="round" /></g><g transform="matrix(1 0 0 1 -254.23 19.64)" id="d"  ><path style="stroke: none; stroke-width: 1; stroke-dasharray: none; stroke-linecap: butt; stroke-dashoffset: 0; stroke-linejoin: miter; stroke-miterlimit: 4; fill: rgb(234,236,240); fill-rule: nonzero; opacity: 1;"  transform=" translate(-66.1, -209.33)" d="M 108.12 237.78 L 24.09 237.78 C 21.47 237.78 19.35 235.66 19.35 233.04 L 19.35 185.63 C 19.35 183.01 21.470000000000002 180.89 24.090000000000003 180.89 L 108.12 180.89 C 110.74000000000001 180.89 112.86 183.01 112.86 185.63 L 112.86 233.04 C 112.86 235.66 110.74 237.78 108.12 237.78 Z" stroke-linecap="round" /></g><g transform="matrix(1 0 0 1 -254.23 19.64)" id="d"  ><path style="stroke: rgb(245,247,250); stroke-width: 1.44; stroke-dasharray: none; stroke-linecap: butt; stroke-dashoffset: 0; stroke-linejoin: miter; stroke-miterlimit: 10; fill: none; fill-rule: nonzero; opacity: 1;"  transform=" translate(-66.1, -209.33)" d="M 108.12 237.78 L 24.09 237.78 C 21.47 237.78 19.35 235.66 19.35 233.04 L 19.35 185.63 C 19.35 183.01 21.470000000000002 180.89 24.090000000000003 180.89 L 108.12 180.89 C 110.74000000000001 180.89 112.86 183.01 112.86 185.63 L 112.86 233.04 C 112.86 235.66 110.74 237.78 108.12 237.78 Z" stroke-linecap="round" /></g><g transform="matrix(1 0 0 1 60.44 -76.24)" id="d"  ><path style="stroke: none; stroke-width: 1; stroke-dasharray: none; stroke-linecap: butt; stroke-dashoffset: 0; stroke-linejoin: miter; stroke-miterlimit: 4; fill: rgb(225,231,239); fill-rule: nonzero; opacity: 1;"  transform=" translate(-380.78, -113.45)" d="M 414.48 123.9 L 347.07000000000005 123.9 C 345.93000000000006 123.9 345.00000000000006 122.97 345.00000000000006 121.83000000000001 L 345.00000000000006 105.06000000000002 C 345.00000000000006 103.92000000000002 345.9200000000001 102.99000000000002 347.07000000000005 102.99000000000002 L 414.48 102.99000000000002 C 415.62 102.99000000000002 416.55 103.92000000000003 416.55 105.06000000000002 L 416.55 121.83000000000001 C 416.55 122.97000000000001 415.63 123.9 414.48 123.9 Z" stroke-linecap="round" /></g><g transform="matrix(1 0 0 1 58.65 -79.24)" id="d"  ><line style="stroke: rgb(245,247,250); stroke-width: 0.81; stroke-dasharray: none; stroke-linecap: butt; stroke-dashoffset: 0; stroke-linejoin: miter; stroke-miterlimit: 10; fill: none; fill-rule: nonzero; opacity: 1;"  x1="-24.055000000000007" y1="0" x2="24.055000000000007" y2="0" /></g><g transform="matrix(1 0 0 1 44.55 -74.23)" id="d"  ><line style="stroke: rgb(245,247,250); stroke-width: 0.81; stroke-dasharray: none; stroke-linecap: butt; stroke-dashoffset: 0; stroke-linejoin: miter; stroke-miterlimit: 10; fill: none; fill-rule: nonzero; opacity: 1;"  x1="-9.949999999999989" y1="0" x2="9.949999999999989" y2="0" /></g><g transform="matrix(1 0 0 1 37.73 -64.08)" id="d"  ><polygon style="stroke: none; stroke-width: 1; stroke-dasharray: none; stroke-linecap: butt; stroke-dashoffset: 0; stroke-linejoin: miter; stroke-miterlimit: 4; fill: rgb(225,231,239); fill-rule: nonzero; opacity: 1;"  points="-5.13,-4.07 -5.13,4.07 5.13,-4.07 -5.13,-4.07 " /></g><g transform="matrix(1 0 0 1 -245.74 -158.54)" id="d"  ><path style="stroke: none; stroke-width: 1; stroke-dasharray: none; stroke-linecap: butt; stroke-dashoffset: 0; stroke-linejoin: miter; stroke-miterlimit: 4; fill: rgb(222,225,230); fill-rule: nonzero; opacity: 1;"  transform=" translate(-74.6, -31.15)" d="M 119.91 34.53 C 118.13 32.76 22.47 38.67 26.03 31.14 L 26.03 31.14 C 21.990000000000002 23.67 118.68 29.490000000000002 119.9 27.75 C 121.77000000000001 27.75 123.29 29.27 123.29 31.14 L 123.29 31.14 C 123.29 33.01 121.78 34.53 119.91000000000001 34.53 Z" stroke-linecap="round" /></g><g transform="matrix(1 0 0 1 281.5 103.74)" id="d"  ><path style="stroke: none; stroke-width: 1; stroke-dasharray: none; stroke-linecap: butt; stroke-dashoffset: 0; stroke-linejoin: miter; stroke-miterlimit: 4; fill: rgb(222,225,230); fill-rule: nonzero; opacity: 1;"  transform=" translate(-601.84, -293.43)" d="M 637.29 296.82 L 566.38 296.82 C 564.51 296.82 562.99 295.3 562.99 293.43 L 562.99 293.43 C 562.99 291.56 564.51 290.04 566.38 290.04 L 637.29 290.04 C 639.16 290.04 640.68 291.56 640.68 293.43 L 640.68 293.43 C 640.68 295.3 639.16 296.82 637.29 296.82 Z" stroke-linecap="round" /></g><g transform="matrix(1 0 0 1 3.22 -182.11)" id="d"  ><path style="stroke: none; stroke-width: 1; stroke-dasharray: none; stroke-linecap: butt; stroke-dashoffset: 0; stroke-linejoin: miter; stroke-miterlimit: 4; fill: rgb(222,225,230); fill-rule: nonzero; opacity: 1;"  transform=" translate(-323.56, -7.58)" d="M 327.52 15.07 C 324.31 14.66 315.68 16.830000000000002 315.83 11.3 C 316.18 8.120000000000001 314.2 -0.03999999999999915 319.59999999999997 0.08999999999999986 C 322.80999999999995 0.49999999999999983 331.43999999999994 -1.6700000000000002 331.28999999999996 3.86 C 330.93999999999994 7.04 332.91999999999996 15.2 327.52 15.07 Z" stroke-linecap="round" /></g><g transform="matrix(1 0 0 1 -299.07 100.78)" id="d"  ><path style="stroke: none; stroke-width: 1; stroke-dasharray: none; stroke-linecap: butt; stroke-dashoffset: 0; stroke-linejoin: miter; stroke-miterlimit: 4; fill: rgb(222,225,230); fill-rule: nonzero; opacity: 1;"  transform=" translate(-21.26, -290.47)" d="M 26.47 300.32 C 22.25 299.78 10.909999999999998 302.63 11.089999999999998 295.36 C 11.549999999999999 291.18 8.939999999999998 280.45 16.049999999999997 280.62 C 20.269999999999996 281.16 31.61 278.31 31.43 285.58 C 30.97 289.76 33.58 300.49 26.47 300.32 Z" stroke-linecap="round" /></g><g transform="matrix(1 0 0 1 246.82 -114.22)" id="d"  ><path style="stroke: none; stroke-width: 1; stroke-dasharray: none; stroke-linecap: butt; stroke-dashoffset: 0; stroke-linejoin: miter; stroke-miterlimit: 4; fill: rgb(222,225,230); fill-rule: nonzero; opacity: 1;"  transform=" translate(-567.15, -75.47)" d="M 570.88 82.52 C 567.86 82.13 559.74 84.17 559.88 78.97 C 560.21 75.98 558.34 68.3 563.43 68.42 C 566.4499999999999 68.81 574.5699999999999 66.77 574.43 71.97 C 574.0999999999999 74.96 575.9699999999999 82.64 570.88 82.52 Z" stroke-linecap="round" /></g><g transform="matrix(1 0 0 1 -89.01 148.55)" id="d"  ><polygon style="stroke: none; stroke-width: 1; stroke-dasharray: none; stroke-linecap: butt; stroke-dashoffset: 0; stroke-linejoin: miter; stroke-miterlimit: 4; fill: rgb(50,55,67); fill-rule: nonzero; opacity: 1;"  points="-52.03,-15.33 -52.03,35.54 -6.09,36.72 -6.09,0.27 3.81,-1.45 10.49,35.54 52.04,38.18 35.86,-38.18 -52.03,-15.33 " /></g><g transform="matrix(1 0 0 1 -171.42 105.81)" id="d"  ><polygon style="stroke: none; stroke-width: 1; stroke-dasharray: none; stroke-linecap: butt; stroke-dashoffset: 0; stroke-linejoin: miter; stroke-miterlimit: 4; fill: rgb(255,230,204); fill-rule: nonzero; opacity: 1;"  points="-7.22,-56.33 -23.8,55.35 -5.87,57.29 23.8,-57.29 -7.22,-56.33 " /></g><g transform="matrix(1 0 0 1 -200.25 168.54)" id="d"  ><path style="stroke: none; stroke-width: 1; stroke-dasharray: none; stroke-linecap: butt; stroke-dashoffset: 0; stroke-linejoin: miter; stroke-miterlimit: 4; fill: rgb(255,230,204); fill-rule: nonzero; opacity: 1;"  transform=" translate(-120.09, -358.23)" d="M 125.11 350.85 C 125.11 350.85 95.43 357.69 96.61 365.6 L 132.8 365.6 C 132.8 365.6 146.5 364.55 143.04000000000002 352.79 L 125.11000000000001 350.85 Z" stroke-linecap="round" /></g><g transform="matrix(1 0 0 1 -163.21 34.67)" id="d"  ><path style="stroke: none; stroke-width: 1; stroke-dasharray: none; stroke-linecap: butt; stroke-dashoffset: 0; stroke-linejoin: miter; stroke-miterlimit: 4; fill: rgb(225,231,239); fill-rule: nonzero; opacity: 1;"  transform=" translate(-157.13, -224.36)" d="M 185.78 190.2 C 185.78 190.2 148.92000000000002 187.17 128.47 242.20999999999998 L 173.95 258.54999999999995 L 185.78 190.19999999999996 Z" stroke-linecap="round" /></g><g transform="matrix(1 0 0 1 -4.95 -1.09)" id="d"  ><path style="stroke: none; stroke-width: 1; stroke-dasharray: none; stroke-linecap: butt; stroke-dashoffset: 0; stroke-linejoin: miter; stroke-miterlimit: 4; fill: rgb(255,230,204); fill-rule: nonzero; opacity: 1;"  transform=" translate(-315.38, -188.59)" d="M 316.06 150.9 L 299.89 204.94 L 318.76 226.29 C 318.76 226.29 330.5 178.64 330.87 151.06 L 316.06 150.91 Z" stroke-linecap="round" /></g><g transform="matrix(1 0 0 1 0.99 -49.59)" id="d"  ><path style="stroke: none; stroke-width: 1; stroke-dasharray: none; stroke-linecap: butt; stroke-dashoffset: 0; stroke-linejoin: miter; stroke-miterlimit: 4; fill: rgb(255,230,204); fill-rule: nonzero; opacity: 1;"  transform=" translate(-321.32, -140.1)" d="M 315.43 152.44 C 315.43 152.44 329.91 154.35999999999999 331.94 150.74 C 335.49 144.42000000000002 333.61 127.25000000000001 333.61 127.25000000000001 C 333.61 127.25000000000001 308.21000000000004 127.81000000000002 308.54 128.05 C 308.88 128.29000000000002 315.42 152.44 315.42 152.44 Z" stroke-linecap="round" /></g><g transform="matrix(1 0 0 1 -11.91 -47.4)" id="d"  ><path style="stroke: none; stroke-width: 1; stroke-dasharray: none; stroke-linecap: butt; stroke-dashoffset: 0; stroke-linejoin: miter; stroke-miterlimit: 4; fill: rgb(255,230,204); fill-rule: nonzero; opacity: 1;"  transform=" translate(-308.43, -142.29)" d="M 315.43 152.44 C 315.16 151.17 305.42 140.2 301.92 136.03 C 301.07 135.02 301.36 133.43 302.52000000000004 132.68 L 302.52000000000004 132.68 C 303.28000000000003 132.19 304.61 131.77 305.70000000000005 132.70000000000002 L 315.04 139.93 L 315.43 152.43 Z" stroke-linecap="round" /></g><g transform="matrix(1 0 0 1 -9.62 -62.98)" id="d"  ><path style="stroke: none; stroke-width: 1; stroke-dasharray: none; stroke-linecap: butt; stroke-dashoffset: 0; stroke-linejoin: miter; stroke-miterlimit: 4; fill: rgb(255,230,204); fill-rule: nonzero; opacity: 1;"  transform=" translate(-310.71, -126.71)" d="M 310.26 138.43 L 306.45 118 C 305.76 115.2 310.21999999999997 113.63 311.03999999999996 116.6 L 315.04999999999995 131.34 L 310.25999999999993 138.42000000000002 Z" stroke-linecap="round" /></g><g transform="matrix(1 0 0 1 -2.04 -69.93)" id="d"  ><path style="stroke: none; stroke-width: 1; stroke-dasharray: none; stroke-linecap: butt; stroke-dashoffset: 0; stroke-linejoin: miter; stroke-miterlimit: 4; fill: rgb(255,230,204); fill-rule: nonzero; opacity: 1;"  transform=" translate(-318.3, -119.76)" d="M 315.01 128.42 L 314.74 112.85 C 314.53000000000003 110.03999999999999 318.95 109.14999999999999 319.41 112.11 L 321.86 129.24 L 315.01 128.42000000000002 Z" stroke-linecap="round" /></g><g transform="matrix(1 0 0 1 5 -68.73)" id="d"  ><path style="stroke: none; stroke-width: 1; stroke-dasharray: none; stroke-linecap: butt; stroke-dashoffset: 0; stroke-linejoin: miter; stroke-miterlimit: 4; fill: rgb(255,230,204); fill-rule: nonzero; opacity: 1;"  transform=" translate(-325.33, -120.96)" d="M 322.15 130.17 L 323.34 114.27999999999999 C 323.46 111.05999999999999 328.54999999999995 110.76999999999998 328.51 114.18999999999998 L 328.34 128.79999999999998 L 322.15 130.16 Z" stroke-linecap="round" /></g><g transform="matrix(1 0 0 1 11.57 -67.75)" id="d"  ><path style="stroke: none; stroke-width: 1; stroke-dasharray: none; stroke-linecap: butt; stroke-dashoffset: 0; stroke-linejoin: miter; stroke-miterlimit: 4; fill: rgb(255,230,204); fill-rule: nonzero; opacity: 1;"  transform=" translate(-331.91, -121.94)" d="M 333.61 127.26 L 335.46000000000004 117.08000000000001 C 335.6 114.38000000000001 331.64000000000004 114.48000000000002 331.32000000000005 116.77000000000001 C 331.26000000000005 117.01 328.35 128.82000000000002 328.35 128.82000000000002 L 333.61 127.27000000000002 Z" stroke-linecap="round" /></g><g transform="matrix(1 0 0 1 -3.47 -50.45)" id="d"  ><path style="stroke: rgb(50,55,67); stroke-width: 1.18; stroke-dasharray: none; stroke-linecap: round; stroke-dashoffset: 0; stroke-linejoin: round; stroke-miterlimit: 4; fill: none; fill-rule: nonzero; opacity: 1;"  transform=" translate(-316.86, -139.24)" d="M 310.72 136.6 C 310.72 136.6 318.09000000000003 132.7 323 142.63" stroke-linecap="round" /></g><g transform="matrix(1 0 0 1 -30.2 17.6)" id="d"  ><path style="stroke: none; stroke-width: 1; stroke-dasharray: none; stroke-linecap: butt; stroke-dashoffset: 0; stroke-linejoin: miter; stroke-miterlimit: 4; fill: rgb(255,230,204); fill-rule: nonzero; opacity: 1;"  transform=" translate(-290.14, -207.29)" d="M 319.93 212.28 C 323.91 253.57 283.71000000000004 227.04 272.19 220.66 L 260.07 179.64 C 270.49 185.39 310.01 207.51 319.93 212.29 Z" stroke-linecap="round" /></g><g transform="matrix(1 0 0 1 -59.77 13.19)" id="d"  ><path style="stroke: none; stroke-width: 1; stroke-dasharray: none; stroke-linecap: butt; stroke-dashoffset: 0; stroke-linejoin: miter; stroke-miterlimit: 4; fill: rgb(225,231,239); fill-rule: nonzero; opacity: 1;"  transform=" translate(-260.56, -202.88)" d="M 228.41 182.6 C 228.41 182.6 253.57999999999998 165.9 292.72 192.07999999999998 L 269.76000000000005 228.40999999999997 L 246.90000000000003 226.29999999999995 L 228.41000000000003 182.59999999999997 Z" stroke-linecap="round" /></g><g transform="matrix(1 0 0 1 -97.83 63.82)" id="d"  ><polygon style="stroke: none; stroke-width: 1; stroke-dasharray: none; stroke-linecap: butt; stroke-dashoffset: 0; stroke-linejoin: miter; stroke-miterlimit: 4; fill: rgb(225,231,239); fill-rule: nonzero; opacity: 1;"  points="-53.54,-2.35 -47.8,70.92 53.54,56.48 37.86,-50.19 5.9,-70.91 -36.73,-63.31 -53.54,-2.35 " /></g><g transform="matrix(1 0 0 1 -152.25 54.91)" id="d"  ><line style="stroke: rgb(18,30,53); stroke-width: 1.14; stroke-dasharray: none; stroke-linecap: round; stroke-dashoffset: 0; stroke-linejoin: round; stroke-miterlimit: 4; fill: none; fill-rule: nonzero; opacity: 1;"  x1="1.3500000000000085" y1="12.325000000000003" x2="-1.3500000000000085" y2="-12.325000000000003" /></g><g transform="matrix(1 0 0 1 -58.31 27.55)" id="d"  ><line style="stroke: rgb(18,30,53); stroke-width: 1.14; stroke-dasharray: none; stroke-linecap: round; stroke-dashoffset: 0; stroke-linejoin: round; stroke-miterlimit: 4; fill: none; fill-rule: nonzero; opacity: 1;"  x1="1.950000000000017" y1="10.64" x2="-1.950000000000017" y2="-10.64" /></g><g transform="matrix(1 0 0 1 -113.25 -14.5)" id="d"  ><path style="stroke: none; stroke-width: 1; stroke-dasharray: none; stroke-linecap: butt; stroke-dashoffset: 0; stroke-linejoin: miter; stroke-miterlimit: 4; fill: rgb(255,230,204); fill-rule: nonzero; opacity: 1;"  transform=" translate(-207.09, -175.19)" d="M 193.61 184.64 L 193.61 184.64 L 188.92000000000002 156.04 L 215.28000000000003 151.70999999999998 L 219.97000000000003 180.30999999999997 L 228.40000000000003 182.59999999999997 C 228.99000000000004 198.40999999999997 190.62000000000003 205.45999999999998 185.77000000000004 190.18999999999997 L 193.60000000000005 184.62999999999997 Z" stroke-linecap="round" /></g><g transform="matrix(1 0 0 1 -116.73 -21.71)" id="d"  ><path style="stroke: none; stroke-width: 1; stroke-dasharray: none; stroke-linecap: butt; stroke-dashoffset: 0; stroke-linejoin: miter; stroke-miterlimit: 4; fill: rgb(18,30,53); fill-rule: nonzero; opacity: 1;"  transform=" translate(-203.6, -167.98)" d="M 216.76 160.76 C 215.72 177.45999999999998 196.32 180.57999999999998 190.44 165.35999999999999 C 197.85 172.47 212.76 169.39 216.76 160.76 Z" stroke-linecap="round" /></g><g transform="matrix(1 0 0 1 -116.08 -70.07)" id="d"  ><path style="stroke: none; stroke-width: 1; stroke-dasharray: none; stroke-linecap: butt; stroke-dashoffset: 0; stroke-linejoin: miter; stroke-miterlimit: 4; fill: rgb(18,30,53); fill-rule: nonzero; opacity: 1;"  transform=" translate(-204.25, -119.62)" d="M 185.19 109.82 C 190.45 96.55 216.45 95.42999999999999 222.48 114.67999999999999 C 224.92 118.02 221.26 135.38 221.28 139.23 L 202.8 114.41999999999999 L 187.58 117.15999999999998 L 185.19000000000003 109.81999999999998 Z" stroke-linecap="round" /></g><g transform="matrix(1 0 0 1 -95.13 -46.09)" id="d"  ><path style="stroke: none; stroke-width: 1; stroke-dasharray: none; stroke-linecap: butt; stroke-dashoffset: 0; stroke-linejoin: miter; stroke-miterlimit: 4; fill: rgb(255,230,204); fill-rule: nonzero; opacity: 1;"  transform=" translate(-225.2, -143.6)" d="M 221.28 139.23 C 221.28 139.23 222.96 135.85 227.24 137 C 232.89000000000001 138.48 228.88 154.18 220.53 149.61 C 220.53 149.61 221.31 142.06 221.27 139.23000000000002 Z" stroke-linecap="round" /></g><g transform="matrix(1 0 0 1 -96.32 -46.83)" id="d"  ><path style="stroke: rgb(50,55,67); stroke-width: 0.7; stroke-dasharray: none; stroke-linecap: round; stroke-dashoffset: 0; stroke-linejoin: round; stroke-miterlimit: 4; fill: none; fill-rule: nonzero; opacity: 1;"  transform=" translate(-224.02, -142.86)" d="M 226.78 140.62 C 226.78 140.62 223.21 139.81 221.26 145.14000000000001" stroke-linecap="round" /></g><g transform="matrix(1 0 0 1 -143.95 -41.34)" id="d"  ><path style="stroke: none; stroke-width: 1; stroke-dasharray: none; stroke-linecap: butt; stroke-dashoffset: 0; stroke-linejoin: miter; stroke-miterlimit: 4; fill: rgb(255,230,204); fill-rule: nonzero; opacity: 1;"  transform=" translate(-176.39, -148.35)" d="M 179.06 143.43 C 179.06 143.43 176.74 140.45000000000002 172.77 142.42000000000002 C 167.52 144.99 174.55 159.59000000000003 181.83 153.46 C 181.83 153.46 179.57000000000002 146.21 179.05 143.43 Z" stroke-linecap="round" /></g><g transform="matrix(1 0 0 1 -143.23 -42.25)" id="d"  ><path style="stroke: rgb(50,55,67); stroke-width: 0.7; stroke-dasharray: none; stroke-linecap: round; stroke-dashoffset: 0; stroke-linejoin: round; stroke-miterlimit: 4; fill: none; fill-rule: nonzero; opacity: 1;"  transform=" translate(-177.1, -147.44)" d="M 173.95 145.87 C 173.95 145.87 177.29 144.37 180.25 149.22" stroke-linecap="round" /></g><g transform="matrix(1 0 0 1 -120.79 -50.14)" id="d"  ><path style="stroke: none; stroke-width: 1; stroke-dasharray: none; stroke-linecap: butt; stroke-dashoffset: 0; stroke-linejoin: miter; stroke-miterlimit: 4; fill: rgb(255,230,204); fill-rule: nonzero; opacity: 1;"  transform=" translate(-199.54, -139.55)" d="M 220.75 129.68 C 228.63 181.67000000000002 178.72 180.54000000000002 177.65 134.08 C 174.53 105.05000000000001 218.83 101.41000000000001 220.75 129.68 Z" stroke-linecap="round" /></g><g transform="matrix(1 0 0 1 -139.95 -63.16)" id="d"  ><path style="stroke: none; stroke-width: 1; stroke-dasharray: none; stroke-linecap: butt; stroke-dashoffset: 0; stroke-linejoin: miter; stroke-miterlimit: 4; fill: rgb(18,30,53); fill-rule: nonzero; opacity: 1;"  transform=" translate(-180.39, -126.53)" d="M 179.06 143.43 C 178.47 139.96 171.59 123.59 173.54 120.26 C 174.82 116.56 178.73999999999998 108.26 185.19 109.82000000000001 L 187.57999999999998 117.16000000000001 C 187.57999999999998 117.16000000000001 179.82 119.54 177.67999999999998 130.21 L 179.04999999999998 143.42000000000002 Z" stroke-linecap="round" /></g><g transform="matrix(1 0 0 1 -117.9 -72.16)" id="d"  ><path style="stroke: none; stroke-width: 1; stroke-dasharray: none; stroke-linecap: butt; stroke-dashoffset: 0; stroke-linejoin: miter; stroke-miterlimit: 4; fill: rgb(18,30,53); fill-rule: nonzero; opacity: 1;"  transform=" translate(-202.43, -117.53)" d="M 182.71 116.16 C 182.71 116.16 196.97 130.3 222.15 126.25 C 222.15 126.25 217.93 108.21000000000001 206.09 108.08 C 190.88 108.96 186.3 113.13 182.71 116.16 Z" stroke-linecap="round" /></g><g transform="matrix(1 0 0 1 -137.97 -64.71)" id="d"  ><path style="stroke: none; stroke-width: 1; stroke-dasharray: none; stroke-linecap: butt; stroke-dashoffset: 0; stroke-linejoin: miter; stroke-miterlimit: 4; fill: rgb(18,30,53); fill-rule: nonzero; opacity: 1;"  transform=" translate(-182.37, -124.98)" d="M 187.59 117.16 C 187.59 117.16 185.08 125.85 177.53 132.87 C 177.53 132.87 174.11 115.85000000000001 187.59 117.16 Z" stroke-linecap="round" /></g><g transform="matrix(1 0 0 1 -111.18 -51.14)" id="d"  ><path style="stroke: none; stroke-width: 1; stroke-dasharray: none; stroke-linecap: butt; stroke-dashoffset: 0; stroke-linejoin: miter; stroke-miterlimit: 4; fill: rgb(18,30,53); fill-rule: nonzero; opacity: 1;"  transform=" translate(-209.16, -138.55)" d="M 207.27 138.84 C 207.62 141.29 211.46 140.69 211.04000000000002 138.25 C 210.69000000000003 135.8 206.85000000000002 136.4 207.27 138.84 Z" stroke-linecap="round" /></g><g transform="matrix(1 0 0 1 -128.84 -48.37)" id="d"  ><path style="stroke: none; stroke-width: 1; stroke-dasharray: none; stroke-linecap: butt; stroke-dashoffset: 0; stroke-linejoin: miter; stroke-miterlimit: 4; fill: rgb(18,30,53); fill-rule: nonzero; opacity: 1;"  transform=" translate(-191.5, -141.32)" d="M 189.61 141.62 C 189.96 144.07 193.8 143.47 193.38000000000002 141.03 C 193.03000000000003 138.58 189.19000000000003 139.18 189.61 141.62 Z" stroke-linecap="round" /></g><g transform="matrix(1 0 0 1 -132.61 -55.49)" id="d"  ><path style="stroke: none; stroke-width: 1; stroke-dasharray: none; stroke-linecap: butt; stroke-dashoffset: 0; stroke-linejoin: miter; stroke-miterlimit: 4; fill: rgb(18,30,53); fill-rule: nonzero; opacity: 1;"  transform=" translate(-187.73, -134.2)" d="M 193.81 132.23 L 181.66 137.48999999999998 C 181.24 133.30999999999997 190.89 128.55999999999997 193.81 132.23 Z" stroke-linecap="round" /></g><g transform="matrix(1 0 0 1 -111.03 -59.38)" id="d"  ><path style="stroke: none; stroke-width: 1; stroke-dasharray: none; stroke-linecap: butt; stroke-dashoffset: 0; stroke-linejoin: miter; stroke-miterlimit: 4; fill: rgb(18,30,53); fill-rule: nonzero; opacity: 1;"  transform=" translate(-209.3, -130.31)" d="M 202.71 130.99 L 215.89000000000001 132.27 C 215.01000000000002 128.16 204.37 126.60000000000001 202.71 130.99 Z" stroke-linecap="round" /></g><g transform="matrix(1 0 0 1 -119.24 -43.22)" id="d"  ><path style="stroke: rgb(18,30,53); stroke-width: 1.03; stroke-dasharray: none; stroke-linecap: round; stroke-dashoffset: 0; stroke-linejoin: round; stroke-miterlimit: 4; fill: none; fill-rule: nonzero; opacity: 1;"  transform=" translate(-201.09, -146.47)" d="M 199.41 144.71 C 199.92 146.95000000000002 199.72 149.43 202.78 147.6" stroke-linecap="round" /></g><g transform="matrix(1 0 0 1 -117.97 -35.86)" id="d"  ><path style="stroke: none; stroke-width: 1; stroke-dasharray: none; stroke-linecap: butt; stroke-dashoffset: 0; stroke-linejoin: miter; stroke-miterlimit: 4; fill: rgb(245,247,250); fill-rule: nonzero; opacity: 1;"  transform=" translate(-202.36, -153.83)" d="M 195.44 153.53 L 209.16 150.43 C 210.73 157.62 197.03 159.83 195.44 153.53 Z" stroke-linecap="round" /></g><g transform="matrix(1 0 0 1 -20.44 182.2)" id="d"  ><rect style="stroke: none; stroke-width: 1; stroke-dasharray: none; stroke-linecap: butt; stroke-dashoffset: 0; stroke-linejoin: miter; stroke-miterlimit: 4; fill: rgb(222,225,230); fill-rule: nonzero; opacity: 1;"  x="-299.895" y="-7.49" rx="0" ry="0" width="599.79" height="14.98" /></g><g transform="matrix(1 0 0 1 -7.78 160.29)" id="d"  ><path style="stroke: none; stroke-width: 1; stroke-dasharray: none; stroke-linecap: butt; stroke-dashoffset: 0; stroke-linejoin: miter; stroke-miterlimit: 4; fill: rgb(255,230,204); fill-rule: nonzero; opacity: 1;"  transform=" translate(-312.55, -349.98)" d="M 332 335.93 C 319.2 337.51 288.02 329.12 287.83 350.16 L 287.83 350.16 C 287.83 358.02000000000004 294.2 364.39000000000004 302.06 364.39000000000004 L 337.28 364.39000000000004 L 332 335.9200000000001 Z" stroke-linecap="round" /></g><g transform="matrix(1 0 0 1 -6.13 140.71)" id="d"  ><polygon style="stroke: none; stroke-width: 1; stroke-dasharray: none; stroke-linecap: butt; stroke-dashoffset: 0; stroke-linejoin: miter; stroke-miterlimit: 4; fill: rgb(255,230,204); fill-rule: nonzero; opacity: 1;"  points="-23.08,10.67 -4.5,-19.76 23.08,-16.04 18.99,19.77 -23.08,10.67 " /></g><g transform="matrix(1 0 0 1 -7.01 146.24)" id="d"  ><line style="stroke: rgb(18,30,53); stroke-width: 1.14; stroke-dasharray: none; stroke-linecap: round; stroke-dashoffset: 0; stroke-linejoin: round; stroke-miterlimit: 4; fill: none; fill-rule: nonzero; opacity: 1;"  x1="11.264999999999986" y1="0" x2="-11.264999999999986" y2="0" /></g><g transform="matrix(1 0 0 1 124.82 160.29)" id="d"  ><path style="stroke: none; stroke-width: 1; stroke-dasharray: none; stroke-linecap: butt; stroke-dashoffset: 0; stroke-linejoin: miter; stroke-miterlimit: 4; fill: rgb(255,230,204); fill-rule: nonzero; opacity: 1;"  transform=" translate(-445.15, -349.98)" d="M 425.71 335.93 C 438.51 337.51 469.69 329.12 469.88 350.16 L 469.88 350.16 C 469.88 358.02000000000004 463.51 364.39000000000004 455.65 364.39000000000004 L 420.42999999999995 364.39000000000004 L 425.7099999999999 335.9200000000001 Z" stroke-linecap="round" /></g><g transform="matrix(1 0 0 1 123.02 137.71)" id="d"  ><polygon style="stroke: none; stroke-width: 1; stroke-dasharray: none; stroke-linecap: butt; stroke-dashoffset: 0; stroke-linejoin: miter; stroke-miterlimit: 4; fill: rgb(255,230,204); fill-rule: nonzero; opacity: 1;"  points="22.92,13.29 -0.47,-22.76 -22.92,-13.05 -18.83,22.76 22.92,13.29 " /></g><g transform="matrix(1 0 0 1 121.19 146.24)" id="d"  ><line style="stroke: rgb(18,30,53); stroke-width: 1.14; stroke-dasharray: none; stroke-linecap: round; stroke-dashoffset: 0; stroke-linejoin: round; stroke-miterlimit: 4; fill: none; fill-rule: nonzero; opacity: 1;"  x1="-14.119999999999976" y1="0" x2="14.119999999999976" y2="0" /></g><g transform="matrix(1 0 0 1 56.77 108.94)" id="d"  ><path style="stroke: none; stroke-width: 1; stroke-dasharray: none; stroke-linecap: butt; stroke-dashoffset: 0; stroke-linejoin: miter; stroke-miterlimit: 4; fill: rgb(0,69,159); fill-rule: nonzero; opacity: 1;"  transform=" translate(-377.11, -298.63)" d="M 376.34 257.25 C 376.34 257.25 346.53 257.25 324.59 278.83 L 324.59 339.29999999999995 C 324.59 339.29999999999995 429.59999999999997 340.9 429.59999999999997 339.29999999999995 C 429.59999999999997 337.69999999999993 429.62999999999994 274.8299999999999 429.62999999999994 274.8299999999999 C 429.62999999999994 274.8299999999999 408.1499999999999 257.24999999999994 376.3499999999999 257.24999999999994 Z" stroke-linecap="round" /></g><g transform="matrix(1 0 0 1 -6.83 115.69)" id="d"  ><path style="stroke: none; stroke-width: 1; stroke-dasharray: none; stroke-linecap: butt; stroke-dashoffset: 0; stroke-linejoin: miter; stroke-miterlimit: 4; fill: rgb(0,69,159); fill-rule: nonzero; opacity: 1;"  transform=" translate(-313.5, -305.38)" d="M 329.03 274.84 C 329.03 274.84 312.83 287.91999999999996 295.75 316.71999999999997 C 295.75 316.71999999999997 299.43 333.38 331.25 335.92999999999995 L 329.03 274.8399999999999 Z" stroke-linecap="round" /></g><g transform="matrix(1 0 0 1 124.82 115.69)" id="d"  ><path style="stroke: none; stroke-width: 1; stroke-dasharray: none; stroke-linecap: butt; stroke-dashoffset: 0; stroke-linejoin: miter; stroke-miterlimit: 4; fill: rgb(0,69,159); fill-rule: nonzero; opacity: 1;"  transform=" translate(-445.16, -305.38)" d="M 429.63 274.84 C 429.63 274.84 445.83 287.91999999999996 462.90999999999997 316.71999999999997 C 462.90999999999997 316.71999999999997 459.22999999999996 333.38 427.40999999999997 335.92999999999995 L 429.63 274.8399999999999 Z" stroke-linecap="round" /></g><g transform="matrix(1 0 0 1 56.75 139.8)" id="d"  ><path style="stroke: none; stroke-width: 1; stroke-dasharray: none; stroke-linecap: butt; stroke-dashoffset: 0; stroke-linejoin: miter; stroke-miterlimit: 4; fill: rgb(222,225,230); fill-rule: nonzero; opacity: 1;"  transform=" translate(-377.09, -329.49)" d="M 424.83 364.4 L 329.34999999999997 364.4 C 326.71999999999997 364.4 324.58 362.27 324.58 359.63 L 324.58 299.35 C 324.58 296.72 326.71 294.58000000000004 329.34999999999997 294.58000000000004 L 424.83 294.58000000000004 C 427.46 294.58000000000004 429.59999999999997 296.71000000000004 429.59999999999997 299.35 L 429.59999999999997 359.63 C 429.59999999999997 362.26 427.46999999999997 364.4 424.83 364.4 Z" stroke-linecap="round" /></g><g transform="matrix(1 0 0 1 56.77 139.81)" id="d"  ><path style="stroke: none; stroke-width: 1; stroke-dasharray: none; stroke-linecap: butt; stroke-dashoffset: 0; stroke-linejoin: miter; stroke-miterlimit: 4; fill: rgb(245,247,250); fill-rule: nonzero; opacity: 1;"  transform=" translate(-377.1, -329.5)" d="M 377.1 323.06 C 385.45000000000005 322.94 385.45000000000005 336.05 377.1 335.93 C 368.75 336.05 368.75 322.94 377.1 323.06 Z" stroke-linecap="round" /></g><g transform="matrix(1 0 0 1 56.52 66.37)" id="d"  ><rect style="stroke: none; stroke-width: 1; stroke-dasharray: none; stroke-linecap: butt; stroke-dashoffset: 0; stroke-linejoin: miter; stroke-miterlimit: 4; fill: rgb(255,230,204); fill-rule: nonzero; opacity: 1;"  x="-10.3" y="-11.54" rx="0" ry="0" width="20.6" height="23.08" /></g><g transform="matrix(1 0 0 1 56.01 59.38)" id="d"  ><path style="stroke: none; stroke-width: 1; stroke-dasharray: none; stroke-linecap: butt; stroke-dashoffset: 0; stroke-linejoin: miter; stroke-miterlimit: 4; fill: rgb(18,30,53); fill-rule: nonzero; opacity: 1;"  transform=" translate(-376.35, -249.07)" d="M 365.54 243.27 C 367.29 258.66 386.92 258.66 387.15000000000003 243.78 C 387.15000000000003 243.78 385.6 247.14000000000001 376.84000000000003 247.16 C 367.06000000000006 247.17 365.55 243.27 365.55 243.27 Z" stroke-linecap="round" /></g><g transform="matrix(1 0 0 1 56.55 16.12)" id="d"  ><path style="stroke: none; stroke-width: 1; stroke-dasharray: none; stroke-linecap: butt; stroke-dashoffset: 0; stroke-linejoin: miter; stroke-miterlimit: 4; fill: rgb(18,30,53); fill-rule: nonzero; opacity: 1;"  transform=" translate(-376.89, -205.81)" d="M 376.89 176.42 C 414.53999999999996 177.07 414.53 234.54999999999998 376.89 235.19 C 339.24 234.54 339.25 177.06 376.89 176.42 Z" stroke-linecap="round" /></g><g transform="matrix(1 0 0 1 84.7 31.53)" id="d"  ><path style="stroke: none; stroke-width: 1; stroke-dasharray: none; stroke-linecap: butt; stroke-dashoffset: 0; stroke-linejoin: miter; stroke-miterlimit: 4; fill: rgb(255,230,204); fill-rule: nonzero; opacity: 1;"  transform=" translate(-405.04, -221.22)" d="M 401.65 216.52 C 409.82 208.37 414.92999999999995 224.4 403.91999999999996 228.12 C 403.91999999999996 228.12 401.62999999999994 228.62 399.84 227.05 C 399.84 227.05 401.40999999999997 219.42000000000002 401.65999999999997 216.52 Z" stroke-linecap="round" /></g><g transform="matrix(1 0 0 1 83.74 30.78)" id="d"  ><path style="stroke: rgb(50,55,67); stroke-width: 0.78; stroke-dasharray: none; stroke-linecap: round; stroke-dashoffset: 0; stroke-linejoin: round; stroke-miterlimit: 4; fill: none; fill-rule: nonzero; opacity: 1;"  transform=" translate(-404.08, -220.47)" d="M 407.12 218.5 C 407.12 218.5 403.56 217.31 401.03000000000003 222.56" stroke-linecap="round" /></g><g transform="matrix(1 0 0 1 29.08 31.62)" id="d"  ><path style="stroke: none; stroke-width: 1; stroke-dasharray: none; stroke-linecap: butt; stroke-dashoffset: 0; stroke-linejoin: miter; stroke-miterlimit: 4; fill: rgb(255,230,204); fill-rule: nonzero; opacity: 1;"  transform=" translate(-349.41, -221.31)" d="M 352.8 216.52 C 352.8 216.52 350.74 213.24 346.48 214.85000000000002 C 340.85 216.94000000000003 346.55 232.57000000000002 354.61 227.05 C 354.61 227.05 353.04 219.42000000000002 352.79 216.52 Z" stroke-linecap="round" /></g><g transform="matrix(1 0 0 1 30.03 30.78)" id="d"  ><path style="stroke: rgb(50,55,67); stroke-width: 0.78; stroke-dasharray: none; stroke-linecap: round; stroke-dashoffset: 0; stroke-linejoin: round; stroke-miterlimit: 4; fill: none; fill-rule: nonzero; opacity: 1;"  transform=" translate(-350.37, -220.47)" d="M 347.32 218.5 C 347.32 218.5 350.88 217.31 353.40999999999997 222.56" stroke-linecap="round" /></g><g transform="matrix(1 0 0 1 56.76 26.73)" id="d"  ><path style="stroke: none; stroke-width: 1; stroke-dasharray: none; stroke-linecap: butt; stroke-dashoffset: 0; stroke-linejoin: miter; stroke-miterlimit: 4; fill: rgb(255,230,204); fill-rule: nonzero; opacity: 1;"  transform=" translate(-377.09, -216.42)" d="M 402.05 207.62 C 404.61 265.02 348.56 259.64 352.22 207.74 C 351.94000000000005 175.89000000000001 403.09000000000003 176.73000000000002 402.05 207.62 Z" stroke-linecap="round" /></g><g transform="matrix(1 0 0 1 33.01 16.91)" id="d"  ><path style="stroke: none; stroke-width: 1; stroke-dasharray: none; stroke-linecap: butt; stroke-dashoffset: 0; stroke-linejoin: miter; stroke-miterlimit: 4; fill: rgb(18,30,53); fill-rule: nonzero; opacity: 1;"  transform=" translate(-353.34, -206.6)" d="M 352.8 216.52 C 352.8 216.52 358.06 204.98000000000002 353.42 196.67000000000002 C 353.42 196.67000000000002 349.22 210.04000000000002 352.8 216.52 Z" stroke-linecap="round" /></g><g transform="matrix(1 0 0 1 80.69 16.91)" id="d"  ><path style="stroke: none; stroke-width: 1; stroke-dasharray: none; stroke-linecap: butt; stroke-dashoffset: 0; stroke-linejoin: miter; stroke-miterlimit: 4; fill: rgb(18,30,53); fill-rule: nonzero; opacity: 1;"  transform=" translate(-401.03, -206.6)" d="M 401.57 216.52 C 401.57 216.52 396.31 204.98000000000002 400.95 196.67000000000002 C 400.95 196.67000000000002 405.15 210.04000000000002 401.57 216.52 Z" stroke-linecap="round" /></g><g transform="matrix(1 0 0 1 75.27 5.9)" id="d"  ><path style="stroke: none; stroke-width: 1; stroke-dasharray: none; stroke-linecap: butt; stroke-dashoffset: 0; stroke-linejoin: miter; stroke-miterlimit: 4; fill: rgb(18,30,53); fill-rule: nonzero; opacity: 1;"  transform=" translate(-395.6, -195.59)" d="M 389.66 185.42 C 389.66 185.42 387.23 199.41 401.70000000000005 205.76999999999998 C 401.70000000000005 205.76999999999998 401.11000000000007 189.39 389.66 185.42 Z" stroke-linecap="round" /></g><g transform="matrix(1 0 0 1 52.33 4.55)" id="d"  ><path style="stroke: none; stroke-width: 1; stroke-dasharray: none; stroke-linecap: butt; stroke-dashoffset: 0; stroke-linejoin: miter; stroke-miterlimit: 4; fill: rgb(18,30,53); fill-rule: nonzero; opacity: 1;"  transform=" translate(-372.66, -194.24)" d="M 392.92 187.17 C 387.57 208.70999999999998 360.40000000000003 188.17999999999998 352.49 206.89 C 352.49 206.89 349.87 185.89999999999998 373.72 181.6 C 373.72 181.6 385.92 181.54 392.92 187.17 Z" stroke-linecap="round" /></g><g transform="matrix(1 0 0 1 45.78 29.32)" id="d"  ><path style="stroke: none; stroke-width: 1; stroke-dasharray: none; stroke-linecap: butt; stroke-dashoffset: 0; stroke-linejoin: miter; stroke-miterlimit: 4; fill: rgb(18,30,53); fill-rule: nonzero; opacity: 1;"  transform=" translate(-366.12, -219.01)" d="M 368.37 219.01 C 368.41 221.92999999999998 363.82 221.92999999999998 363.86 219.01 C 363.82 216.09 368.41 216.09 368.37 219.01 Z" stroke-linecap="round" /></g><g transform="matrix(1 0 0 1 66.65 29.32)" id="d"  ><path style="stroke: none; stroke-width: 1; stroke-dasharray: none; stroke-linecap: butt; stroke-dashoffset: 0; stroke-linejoin: miter; stroke-miterlimit: 4; fill: rgb(18,30,53); fill-rule: nonzero; opacity: 1;"  transform=" translate(-386.98, -219.01)" d="M 386.98 216.76 C 389.90000000000003 216.72 389.90000000000003 221.31 386.98 221.26999999999998 C 384.06 221.30999999999997 384.06 216.71999999999997 386.98 216.76 Z" stroke-linecap="round" /></g><g transform="matrix(1 0 0 1 56.58 36.35)" id="d"  ><path style="stroke: rgb(18,30,53); stroke-width: 1.14; stroke-dasharray: none; stroke-linecap: round; stroke-dashoffset: 0; stroke-linejoin: round; stroke-miterlimit: 4; fill: none; fill-rule: nonzero; opacity: 1;"  transform=" translate(-376.92, -226.04)" d="M 375.42 223.92 C 375.47 226.48 374.71000000000004 229.13 378.45 227.80999999999997" stroke-linecap="round" /></g><g transform="matrix(1 0 0 1 45.65 21.86)" id="d"  ><path style="stroke: none; stroke-width: 1; stroke-dasharray: none; stroke-linecap: butt; stroke-dashoffset: 0; stroke-linejoin: miter; stroke-miterlimit: 4; fill: rgb(18,30,53); fill-rule: nonzero; opacity: 1;"  transform=" translate(-365.99, -211.55)" d="M 372.81 212.03 L 359.16 213.67 C 359.98 209.38 370.99 207.51999999999998 372.81 212.03 Z" stroke-linecap="round" /></g><g transform="matrix(1 0 0 1 67.18 21.86)" id="d"  ><path style="stroke: none; stroke-width: 1; stroke-dasharray: none; stroke-linecap: butt; stroke-dashoffset: 0; stroke-linejoin: miter; stroke-miterlimit: 4; fill: rgb(18,30,53); fill-rule: nonzero; opacity: 1;"  transform=" translate(-387.51, -211.55)" d="M 380.69 212.03 L 394.34 213.67 C 393.52 209.38 382.51 207.51999999999998 380.69 212.03 Z" stroke-linecap="round" /></g><g transform="matrix(1 0 0 1 43.56 29.26)" id="d"  ><path style="stroke: rgb(245,247,250); stroke-width: 1.25; stroke-dasharray: none; stroke-linecap: butt; stroke-dashoffset: 0; stroke-linejoin: miter; stroke-miterlimit: 10; fill: none; fill-rule: nonzero; opacity: 1;"  transform=" translate(-363.9, -218.95)" d="M 357.31 212.36 C 365.73 203.69000000000003 379.16 217.11 370.49 225.54000000000002 C 362.07 234.21 348.64 220.79000000000002 357.31 212.36 Z" stroke-linecap="round" /></g><g transform="matrix(1 0 0 1 69.94 29.23)" id="d"  ><path style="stroke: rgb(245,247,250); stroke-width: 1.25; stroke-dasharray: none; stroke-linecap: butt; stroke-dashoffset: 0; stroke-linejoin: miter; stroke-miterlimit: 10; fill: none; fill-rule: nonzero; opacity: 1;"  transform=" translate(-390.28, -218.92)" d="M 381.21 216.79 C 383.79999999999995 204.98 402.28999999999996 209.32999999999998 399.34999999999997 221.04999999999998 C 396.76 232.85999999999999 378.27 228.51 381.21 216.79 Z" stroke-linecap="round" /></g><g transform="matrix(1 0 0 1 56.76 28.91)" id="d"  ><path style="stroke: rgb(245,247,250); stroke-width: 1.25; stroke-dasharray: none; stroke-linecap: butt; stroke-dashoffset: 0; stroke-linejoin: miter; stroke-miterlimit: 10; fill: none; fill-rule: nonzero; opacity: 1;"  transform=" translate(-377.1, -218.6)" d="M 373.22 219.72 C 373.22 219.72 376.51000000000005 214.66 380.97 219.72" stroke-linecap="round" /></g><g transform="matrix(1 0 0 1 56.51 43.47)" id="d"  ><path style="stroke: rgb(18,30,53); stroke-width: 1.14; stroke-dasharray: none; stroke-linecap: round; stroke-dashoffset: 0; stroke-linejoin: round; stroke-miterlimit: 4; fill: none; fill-rule: nonzero; opacity: 1;"  transform=" translate(-376.84, -233.16)" d="M 369.09 232.27 C 369.09 232.27 370.46 234.04000000000002 376.54999999999995 234.04000000000002 C 382.09 234.04000000000002 384.59999999999997 232.27 384.59999999999997 232.27" stroke-linecap="round" /></g><g transform="matrix(1 0 0 1 56.44 77.82)" id="d"  ><path style="stroke: none; stroke-width: 1; stroke-dasharray: none; stroke-linecap: butt; stroke-dashoffset: 0; stroke-linejoin: miter; stroke-miterlimit: 4; fill: rgb(255,230,204); fill-rule: nonzero; opacity: 1;"  transform=" translate(-376.77, -267.51)" d="M 376.34 257.25 C 376.34 257.25 363.76 256.57 347.32 263.83 C 348.14 284.4 405.05 281.13 406.23 262.46999999999997 C 406.23 262.46999999999997 388.22 256.04999999999995 376.33000000000004 257.24999999999994 Z" stroke-linecap="round" /></g><g transform="matrix(1 0 0 1 66.81 -21.99)" id="d"  ><path style="stroke: none; stroke-width: 1; stroke-dasharray: none; stroke-linecap: butt; stroke-dashoffset: 0; stroke-linejoin: miter; stroke-miterlimit: 4; fill: rgb(18,30,53); fill-rule: nonzero; opacity: 1;"  transform=" translate(-387.14, -167.7)" d="M 387.14 149 C 411.71999999999997 149.42 411.71999999999997 185.98 387.14 186.4 C 362.56 185.98000000000002 362.56 149.42000000000002 387.14 149 Z" stroke-linecap="round" /></g></g></g></svg>