<svg viewBox = "0 0 433.67 430.77" width="433.67" height="430.77" xmlns="http://www.w3.org/2000/svg"><g transform="matrix(1 0 0 1 216.84 215.38)"  ><g style=""   ><g transform="matrix(1 0 0 1 73.92 191.33)" id="c"  ><path style="stroke: none; stroke-width: 1; stroke-dasharray: none; stroke-linecap: butt; stroke-dashoffset: 0; stroke-linejoin: miter; stroke-miterlimit: 4; fill: rgb(255,211,165); fill-rule: nonzero; opacity: 1;"  transform=" translate(-290.75, -406.72)" d="M 305.34 399.28 C 305.44 404.60999999999996 305.38 409.94 305.09999999999997 415.25 C 295.59999999999997 416.49 285.84999999999997 415.86 276.11999999999995 413.37 C 276.18999999999994 408.18 276.25999999999993 402.99 276.42999999999995 397.57 C 286.13999999999993 397.73 295.84999999999997 398.32 305.34 399.28 Z" stroke-linecap="round" /></g><g transform="matrix(1 0 0 1 77.58 193.36)" id="c"  ><path style="stroke: rgb(13,34,59); stroke-width: 0.5; stroke-dasharray: none; stroke-linecap: butt; stroke-dashoffset: 0; stroke-linejoin: miter; stroke-miterlimit: 10; fill: none; fill-rule: nonzero; opacity: 1;"  transform=" translate(-294.42, -408.75)" d="M 296.29 406.02 C 296.5 408.40999999999997 294.84000000000003 410.83 292.53000000000003 411.47999999999996" stroke-linecap="round" /></g><g transform="matrix(1 0 0 1 65.11 205.38)" id="c"  ><path style="stroke: none; stroke-width: 1; stroke-dasharray: none; stroke-linecap: butt; stroke-dashoffset: 0; stroke-linejoin: miter; stroke-miterlimit: 4; fill: rgb(30,33,40); fill-rule: nonzero; opacity: 1;"  transform=" translate(-281.94, -420.76)" d="M 306.48 411.84 C 306.56 417.95 306.27000000000004 424.06 305.37 430.38 C 289.53000000000003 430.90999999999997 273.68 430.89 257.66 430.36 C 255.49000000000004 419.97 266.94 416.61 275.14000000000004 418.09000000000003 C 275.38000000000005 415.72 275.45000000000005 413.33000000000004 275.25000000000006 410.77000000000004 C 285.83000000000004 410.68000000000006 296.4200000000001 411.00000000000006 306.4800000000001 411.84000000000003 Z" stroke-linecap="round" /></g><g transform="matrix(1 0 0 1 64.78 209.29)" id="c"  ><path style="stroke: none; stroke-width: 1; stroke-dasharray: none; stroke-linecap: butt; stroke-dashoffset: 0; stroke-linejoin: miter; stroke-miterlimit: 4; fill: rgb(255,255,255); fill-rule: nonzero; opacity: 1;"  transform=" translate(-281.62, -424.68)" d="M 305.37 430.38 C 289.53000000000003 430.90999999999997 273.68 430.89 257.66 430.36 C 256.59000000000003 424.93 259.78000000000003 419.32 265.43 418.59000000000003 C 268.56 420.15000000000003 270.88 423.39000000000004 271.09000000000003 426.90000000000003 C 282.65000000000003 426.94000000000005 294.22 426.99 305.78000000000003 427.03000000000003 C 305.66 428.14000000000004 305.52000000000004 429.26000000000005 305.36 430.39000000000004 Z" stroke-linecap="round" /></g><g transform="matrix(1 0 0 1 79.86 204.08)" id="c"  ><path style="stroke: none; stroke-width: 1; stroke-dasharray: none; stroke-linecap: butt; stroke-dashoffset: 0; stroke-linejoin: miter; stroke-miterlimit: 4; fill: rgb(255,255,255); fill-rule: nonzero; opacity: 1;"  transform=" translate(-296.7, -419.46)" d="M 296.7 421.39 C 294.27 421.43 294.27 417.51 296.7 417.53999999999996 C 299.13 417.49999999999994 299.13 421.41999999999996 296.7 421.39 Z" stroke-linecap="round" /></g><g transform="matrix(1 0 0 1 61.09 198.81)" id="c"  ><path style="stroke: rgb(255,255,255); stroke-width: 1; stroke-dasharray: none; stroke-linecap: butt; stroke-dashoffset: 0; stroke-linejoin: miter; stroke-miterlimit: 10; fill: none; fill-rule: nonzero; opacity: 1;"  transform=" translate(-277.93, -414.2)" d="M 281.67 415 C 279.5 413.55 276.72 413.04 274.18 413.65" stroke-linecap="round" /></g><g transform="matrix(1 0 0 1 60.55 201.12)" id="c"  ><path style="stroke: rgb(255,255,255); stroke-width: 1; stroke-dasharray: none; stroke-linecap: butt; stroke-dashoffset: 0; stroke-linejoin: miter; stroke-miterlimit: 10; fill: none; fill-rule: nonzero; opacity: 1;"  transform=" translate(-277.38, -416.51)" d="M 280.62 417.32 C 278.68 416.17 276.4 415.61 274.15 415.71" stroke-linecap="round" /></g><g transform="matrix(1 0 0 1 177.11 77.55)" id="c"  ><path style="stroke: none; stroke-width: 1; stroke-dasharray: none; stroke-linecap: butt; stroke-dashoffset: 0; stroke-linejoin: miter; stroke-miterlimit: 4; fill: rgb(255,211,165); fill-rule: nonzero; opacity: 1;"  transform=" translate(-393.94, -292.93)" d="M 379.12 286.43 C 383.12 282.90000000000003 387.22 279.5 391.45 276.28000000000003 C 398.55 282.72 404.37 290.56 408.77 299.59000000000003 C 404.77 302.89000000000004 400.76 306.20000000000005 396.52 309.58000000000004 C 390.35999999999996 302.07000000000005 384.52 294.29 379.12 286.44000000000005 Z" stroke-linecap="round" /></g><g transform="matrix(1 0 0 1 176.59 72.83)" id="c"  ><path style="stroke: rgb(13,34,59); stroke-width: 0.5; stroke-dasharray: none; stroke-linecap: butt; stroke-dashoffset: 0; stroke-linejoin: miter; stroke-miterlimit: 10; fill: none; fill-rule: nonzero; opacity: 1;"  transform=" translate(-393.42, -288.22)" d="M 390.12 288.97 C 391.8 287.26000000000005 394.73 286.97 396.72 288.3" stroke-linecap="round" /></g><g transform="matrix(1 0 0 1 193.98 71.05)" id="c"  ><path style="stroke: none; stroke-width: 1; stroke-dasharray: none; stroke-linecap: butt; stroke-dashoffset: 0; stroke-linejoin: miter; stroke-miterlimit: 4; fill: rgb(30,33,40); fill-rule: nonzero; opacity: 1;"  transform=" translate(-410.81, -286.44)" d="M 387.96 277.43 C 392.57 273.42 397.40999999999997 269.68 402.81 266.28000000000003 C 413.46 278.01000000000005 423.71 290.11 433.67 302.67 C 427.16 311.05 417.18 304.49 413.01 297.28000000000003 C 411.05 298.64000000000004 409.18 300.12 407.36 301.93 C 400.44 293.92 393.84000000000003 285.64 387.96000000000004 277.44 Z" stroke-linecap="round" /></g><g transform="matrix(1 0 0 1 199.99 71.09)" id="c"  ><path style="stroke: none; stroke-width: 1; stroke-dasharray: none; stroke-linecap: butt; stroke-dashoffset: 0; stroke-linejoin: miter; stroke-miterlimit: 4; fill: rgb(255,255,255); fill-rule: nonzero; opacity: 1;"  transform=" translate(-416.83, -286.47)" d="M 402.81 266.28 C 413.46 278.01 423.71 290.10999999999996 433.67 302.65999999999997 C 430.23 306.98999999999995 423.88 308.18999999999994 419.66 304.35999999999996 C 418.82000000000005 300.96 419.79 297.09999999999997 422.33000000000004 294.65999999999997 C 414.88000000000005 285.82 407.43000000000006 276.96999999999997 399.98 268.13 C 400.91 267.5 401.85 266.88 402.81 266.28 Z" stroke-linecap="round" /></g><g transform="matrix(1 0 0 1 183.27 64.56)" id="c"  ><path style="stroke: none; stroke-width: 1; stroke-dasharray: none; stroke-linecap: butt; stroke-dashoffset: 0; stroke-linejoin: miter; stroke-miterlimit: 4; fill: rgb(255,255,255); fill-rule: nonzero; opacity: 1;"  transform=" translate(-400.11, -279.95)" d="M 398.89 278.52 C 396.96 280.10999999999996 399.44 283.02 401.32 281.38 C 403.25 279.79 400.77 276.88 398.89 278.52 Z" stroke-linecap="round" /></g><g transform="matrix(1 0 0 1 191.51 82.21)" id="c"  ><path style="stroke: rgb(255,255,255); stroke-width: 1; stroke-dasharray: none; stroke-linecap: butt; stroke-dashoffset: 0; stroke-linejoin: miter; stroke-miterlimit: 10; fill: none; fill-rule: nonzero; opacity: 1;"  transform=" translate(-408.34, -297.59)" d="M 406.43 294.3 C 406.72 296.89 408.14 299.34000000000003 410.25 300.88" stroke-linecap="round" /></g><g transform="matrix(1 0 0 1 193.51 81.2)" id="c"  ><path style="stroke: rgb(255,255,255); stroke-width: 1; stroke-dasharray: none; stroke-linecap: butt; stroke-dashoffset: 0; stroke-linejoin: miter; stroke-miterlimit: 10; fill: none; fill-rule: nonzero; opacity: 1;"  transform=" translate(-410.35, -296.59)" d="M 408.87 293.6 C 409.25 295.82000000000005 410.29 297.92 411.83 299.57000000000005" stroke-linecap="round" /></g><g transform="matrix(1 0 0 1 116.79 110.54)" id="c"  ><path style="stroke: none; stroke-width: 1; stroke-dasharray: none; stroke-linecap: butt; stroke-dashoffset: 0; stroke-linejoin: miter; stroke-miterlimit: 4; fill: rgb(0,63,144); fill-rule: nonzero; opacity: 1;"  transform=" translate(-333.62, -325.92)" d="M 346.95 258.79 C 348.75 273.18 349.84999999999997 287.67 350.25 302.17 C 359.55 294.17 368.86 286.16 379.3 278.81 C 386.6 290.3 394.65000000000003 301.32 403.11 311.46 C 391.93 344.58 338.95000000000005 371.7 313.1 340.07 C 314.68 360.4 314.61 380.86 312.67 400.21999999999997 C 297.5 400.89 282.29 400.76 267.64 400.08 C 266.47999999999996 351.26 259.09 298.83 270.06 251.17999999999998 C 295.47 253.46999999999997 320.88 255.81999999999996 346.95 258.78 Z" stroke-linecap="round" /></g><g transform="matrix(1 0 0 1 91.53 92.39)" id="c"  ><path style="stroke: rgb(0,44,101); stroke-width: 0.5; stroke-dasharray: none; stroke-linecap: butt; stroke-dashoffset: 0; stroke-linejoin: miter; stroke-miterlimit: 10; fill: none; fill-rule: nonzero; opacity: 1;"  transform=" translate(-308.37, -307.78)" d="M 303.49 275.57 C 304.42 297.23 304.87 319.78 313.25 339.99" stroke-linecap="round" /></g><g transform="matrix(1 0 0 1 87.18 59.83)" id="c"  ><path style="stroke: rgb(0,44,101); stroke-width: 0.5; stroke-dasharray: none; stroke-linecap: butt; stroke-dashoffset: 0; stroke-linejoin: miter; stroke-miterlimit: 10; fill: none; fill-rule: nonzero; opacity: 1;"  transform=" translate(-304.01, -275.22)" d="M 315.02 276.1 C 307.65 276.38 300.24 275.77000000000004 293.01 274.27000000000004" stroke-linecap="round" /></g><g transform="matrix(1 0 0 1 126.51 57.13)" id="c"  ><path style="stroke: rgb(0,44,101); stroke-width: 0.5; stroke-dasharray: none; stroke-linecap: butt; stroke-dashoffset: 0; stroke-linejoin: miter; stroke-miterlimit: 10; fill: none; fill-rule: nonzero; opacity: 1;"  transform=" translate(-343.34, -272.52)" d="M 337.08 262.09 C 338.40999999999997 270.15 341 280.09999999999997 349.60999999999996 282.95" stroke-linecap="round" /></g><g transform="matrix(1 0 0 1 55.36 56.92)" id="c"  ><path style="stroke: rgb(0,44,101); stroke-width: 0.5; stroke-dasharray: none; stroke-linecap: butt; stroke-dashoffset: 0; stroke-linejoin: miter; stroke-miterlimit: 10; fill: none; fill-rule: nonzero; opacity: 1;"  transform=" translate(-272.19, -272.3)" d="M 278.19 258.96 C 276.43 268.57 279.74 284.56 266.2 285.65" stroke-linecap="round" /></g><g transform="matrix(1 0 0 1 172.51 82.88)" id="c"  ><path style="stroke: rgb(0,44,101); stroke-width: 0.5; stroke-dasharray: none; stroke-linecap: butt; stroke-dashoffset: 0; stroke-linejoin: miter; stroke-miterlimit: 10; fill: none; fill-rule: nonzero; opacity: 1;"  transform=" translate(-389.35, -298.26)" d="M 401.92 314.77 C 392.77000000000004 304.38 384.35 293.34 376.77000000000004 281.75" stroke-linecap="round" /></g><g transform="matrix(1 0 0 1 73.42 182.68)" id="c"  ><path style="stroke: rgb(0,44,101); stroke-width: 0.5; stroke-dasharray: none; stroke-linecap: butt; stroke-dashoffset: 0; stroke-linejoin: miter; stroke-miterlimit: 10; fill: none; fill-rule: nonzero; opacity: 1;"  transform=" translate(-290.26, -398.07)" d="M 313.09 397.7 C 297.96999999999997 399.67 282.64 398.52 267.42999999999995 397.37" stroke-linecap="round" /></g><g transform="matrix(1 0 0 1 104.78 122.82)" id="c"  ><path style="stroke: none; stroke-width: 1; stroke-dasharray: none; stroke-linecap: butt; stroke-dashoffset: 0; stroke-linejoin: miter; stroke-miterlimit: 4; fill: rgb(0,44,101); fill-rule: nonzero; opacity: 1;"  transform=" translate(-321.62, -338.2)" d="M 308.21 323.21 C 320.27 327.77 333.85999999999996 339.81 335.02 353.2 C 326.26 351.76 317.96999999999997 347.71 313.09 340.08 C 313.09 340.15 313.09 340.21 313.09999999999997 340.28 C 310.87999999999994 334.98999999999995 309.09 328.92999999999995 308.21 323.21999999999997 Z" stroke-linecap="round" /></g><g transform="matrix(1 0 0 1 52.51 115.47)" id="c"  ><path style="stroke: none; stroke-width: 1; stroke-dasharray: none; stroke-linecap: butt; stroke-dashoffset: 0; stroke-linejoin: miter; stroke-miterlimit: 4; fill: rgb(0,44,101); fill-rule: nonzero; opacity: 1;"  transform=" translate(-269.35, -330.86)" d="M 264.68 314.22 C 276.13 321.95000000000005 277.87 340.03000000000003 265.26 347.49 C 264.95 336.40000000000003 264.75 325.31 264.68 314.22 Z" stroke-linecap="round" /></g><g transform="matrix(1 0 0 1 21.62 -86.87)" id="c"  ><path style="stroke: none; stroke-width: 1; stroke-dasharray: none; stroke-linecap: butt; stroke-dashoffset: 0; stroke-linejoin: miter; stroke-miterlimit: 4; fill: rgb(255,211,165); fill-rule: nonzero; opacity: 1;"  transform=" translate(-238.46, -128.51)" d="M 266.3 133.35 C 260.84000000000003 132.10999999999999 255.54000000000002 130.18 250.42000000000002 127.66 C 243.63000000000002 116.19 236.83 104.72 230.11 93.41999999999999 C 223.49 95.83999999999999 216.93 98.43999999999998 210.61 101.22999999999999 C 220.32000000000002 125.69999999999999 227.73000000000002 154.91 255.78000000000003 163.60999999999999 C 259.24 153.29 262.70000000000005 142.96999999999997 266.29 133.35 Z" stroke-linecap="round" /></g><g transform="matrix(1 0 0 1 -1.53 -131.49)" id="c"  ><path style="stroke: none; stroke-width: 1; stroke-dasharray: none; stroke-linecap: butt; stroke-dashoffset: 0; stroke-linejoin: miter; stroke-miterlimit: 4; fill: rgb(255,211,165); fill-rule: nonzero; opacity: 1;"  transform=" translate(-215.31, -83.89)" d="M 230.94 94.31 C 224.82999999999998 87.54 228.98 78.07000000000001 225.76 70.52000000000001 C 221.78 68.10000000000001 223.89999999999998 78.00000000000001 223.22 80.06 C 220.35 74.95 219.51 67.84 214.71 64.2 C 210.04000000000002 63.440000000000005 216.98000000000002 74.46000000000001 217.12 76.82000000000001 C 208.14000000000001 60.43000000000001 203.21 61.720000000000006 212.15 79.23 C 202.84 63.940000000000005 200.58 66.9 207.47 82.09 C 205.2 79.57000000000001 204.46 75.96000000000001 201.68 73.91 C 200.54000000000002 72.89 199.16 73.8 199.87 75.22999999999999 C 203.28 84.83999999999999 208.5 93.88 211.47 103.61999999999999 C 217.75 99.99999999999999 224.28 96.71999999999998 230.94 94.30999999999999 Z" stroke-linecap="round" /></g><g transform="matrix(1 0 0 1 15.68 -69.83)" id="c"  ><path style="stroke: none; stroke-width: 1; stroke-dasharray: none; stroke-linecap: butt; stroke-dashoffset: 0; stroke-linejoin: miter; stroke-miterlimit: 4; fill: rgb(232,236,243); fill-rule: nonzero; opacity: 1;"  transform=" translate(-232.51, -145.55)" d="M 225.32 136.5 C 233.31 138.77 239.28 146.31 239.70999999999998 154.6 C 233.15999999999997 150.1 228.21999999999997 143.9 225.32 136.5 Z" stroke-linecap="round" /></g><g transform="matrix(1 0 0 1 0.56 -130.59)" id="c"  ><path style="stroke: rgb(13,34,59); stroke-width: 0.5; stroke-dasharray: none; stroke-linecap: butt; stroke-dashoffset: 0; stroke-linejoin: miter; stroke-miterlimit: 10; fill: none; fill-rule: nonzero; opacity: 1;"  transform=" translate(-217.39, -84.8)" d="M 220.07 81.47 C 217.1 82.32 215.72 85.45 214.72 88.12" stroke-linecap="round" /></g><g transform="matrix(1 0 0 1 -4.12 -130.58)" id="c"  ><path style="stroke: rgb(13,34,59); stroke-width: 0.5; stroke-dasharray: none; stroke-linecap: butt; stroke-dashoffset: 0; stroke-linejoin: miter; stroke-miterlimit: 10; fill: none; fill-rule: nonzero; opacity: 1;"  transform=" translate(-212.72, -84.8)" d="M 209.56 84.77 C 211.6 83.97999999999999 214 84.19 215.88 85.31" stroke-linecap="round" /></g><g transform="matrix(1 0 0 1 33.64 -87.91)" id="c"  ><path style="stroke: rgb(13,34,59); stroke-width: 0.5; stroke-dasharray: none; stroke-linecap: butt; stroke-dashoffset: 0; stroke-linejoin: miter; stroke-miterlimit: 10; fill: none; fill-rule: nonzero; opacity: 1;"  transform=" translate(-250.48, -127.47)" d="M 248.11 125.89 C 248.94000000000003 127.62 251.27 128.13 252.84 129.06" stroke-linecap="round" /></g><g transform="matrix(1 0 0 1 91.97 -18.58)" id="c"  ><path style="stroke: none; stroke-width: 1; stroke-dasharray: none; stroke-linecap: butt; stroke-dashoffset: 0; stroke-linejoin: miter; stroke-miterlimit: 4; fill: rgb(232,236,243); fill-rule: nonzero; opacity: 1;"  transform=" translate(-308.81, -196.8)" d="M 317.84 137.46 C 340.54999999999995 140.18 360.05999999999995 159.32 368.52 179.47 C 362.41999999999996 185.47 353.07 185.81 344.90999999999997 187.9 C 348.53 211.59 350.24999999999994 235.58 349.58 260.09000000000003 C 321.40999999999997 265.39000000000004 291.83 262.96000000000004 264.19 253.51000000000002 C 264.98 231.11 265.26 208.69000000000003 265.17 186.58 C 259.61 181.96 254.38000000000002 176.96 249.10000000000002 171.93 C 251.50000000000003 157.23000000000002 256.86 143.02 265.56 130.76 C 283.58 136.32 299.51 141.10999999999999 317.84000000000003 137.45999999999998 Z" stroke-linecap="round" /></g><g transform="matrix(1 0 0 1 137.22 -52.03)" id="c"  ><path style="stroke: none; stroke-width: 1; stroke-dasharray: none; stroke-linecap: butt; stroke-dashoffset: 0; stroke-linejoin: miter; stroke-miterlimit: 4; fill: rgb(255,255,255); fill-rule: nonzero; opacity: 1;"  transform=" translate(-354.05, -163.36)" d="M 357.98 166.68 C 355.42 171.96 349.91 175.6 347.76 167.86 C 347.46 163.09 350.59 159.23000000000002 351.09 154.4 C 351.22999999999996 154.53 351.38 154.67000000000002 351.52 154.8 C 350.99 160.10000000000002 343.71 170.68 352.71 171.78 C 356.09 170.85 356.59999999999997 165.67 360.07 164.47 C 360.17 164.60999999999999 360.27 164.75 360.37 164.89 C 359.46 165.30999999999997 358.63 165.91 357.98 166.67999999999998 Z" stroke-linecap="round" /></g><g transform="matrix(1 0 0 1 115.06 -67.34)" id="c"  ><path style="stroke: none; stroke-width: 1; stroke-dasharray: none; stroke-linecap: butt; stroke-dashoffset: 0; stroke-linejoin: miter; stroke-miterlimit: 4; fill: rgb(255,255,255); fill-rule: nonzero; opacity: 1;"  transform=" translate(-331.89, -148.04)" d="M 337.35 149.3 C 336.33000000000004 153.64000000000001 333.49 157.95000000000002 329.66 157.13000000000002 C 322.58000000000004 154.32000000000002 326.07000000000005 144.27000000000004 325.66 138.85000000000002 C 325.82000000000005 138.91000000000003 325.99 138.97000000000003 326.15000000000003 139.02 C 326.56000000000006 144.16 323.21000000000004 153.95000000000002 329.76000000000005 156.64000000000001 C 335.33000000000004 157.57000000000002 336.64000000000004 149.34 338.18000000000006 144.71 C 338.33000000000004 144.8 338.4800000000001 144.9 338.63000000000005 144.99 C 338.11000000000007 146.31 337.70000000000005 147.79000000000002 337.34000000000003 149.3 Z" stroke-linecap="round" /></g><g transform="matrix(1 0 0 1 101.27 9.26)" id="c"  ><path style="stroke: none; stroke-width: 1; stroke-dasharray: none; stroke-linecap: butt; stroke-dashoffset: 0; stroke-linejoin: miter; stroke-miterlimit: 4; fill: rgb(255,255,255); fill-rule: nonzero; opacity: 1;"  transform=" translate(-318.11, -224.65)" d="M 329.19 257.85 C 324.8 252.84000000000003 323.75 244.09000000000003 324.42 237.17000000000002 C 318.99 229.35000000000002 311.41 223.76000000000002 305.97 215.96 C 284.34000000000003 179.09 334.8 167.76 324.93 237.03 C 328.76 242.57 332.04 250.5 329.75 257.74 C 331.39 259.66 333.3 261 335.69 262.05 C 335.37 262.08 335.05 262.12 334.73 262.15000000000003 C 332.70000000000005 261.16 331.02000000000004 259.95000000000005 329.56 258.29 C 329 259.84000000000003 328.19 261.33000000000004 327.18 262.67 C 326.96 262.68 326.74 262.68 326.52 262.69 C 327.68 261.23 328.59999999999997 259.58 329.19 257.85 Z M 325.06 229.95000000000002 C 331.34 170.01000000000002 285.76 180.54000000000002 306.38 215.67000000000002 C 311.7 223.27 319.09 228.82000000000002 324.48 236.37 C 324.64000000000004 234.21 324.87 232.09 325.06 229.94 Z M 329.89 254.72000000000003 C 330.56 248.50000000000003 328 242.57000000000002 324.88 237.85000000000002 C 324.31 244.37000000000003 325.37 252.52 329.37 257.28000000000003 C 329.62 256.44000000000005 329.8 255.58000000000004 329.89 254.72000000000003 Z" stroke-linecap="round" /></g><g transform="matrix(1 0 0 1 75.87 34.13)" id="c"  ><path style="stroke: none; stroke-width: 1; stroke-dasharray: none; stroke-linecap: butt; stroke-dashoffset: 0; stroke-linejoin: miter; stroke-miterlimit: 4; fill: rgb(255,255,255); fill-rule: nonzero; opacity: 1;"  transform=" translate(-292.71, -249.51)" d="M 278.45 253.35 C 281.2 244.82999999999998 289.27 233.34 299.31 237.43 C 309.22 243.26000000000002 305.64 253.74 308.63 262.45 C 308.45 262.44 308.27 262.43 308.1 262.42 C 305.20000000000005 253.89000000000001 308.69 243.59000000000003 299.11 237.88000000000002 C 287.29 233.54000000000002 280.59000000000003 248.33 277.27000000000004 257.40000000000003 C 277.11 257.36 276.94000000000005 257.32000000000005 276.78000000000003 257.27000000000004 C 277.37 255.96000000000004 277.92 254.64000000000004 278.45000000000005 253.34000000000003 Z" stroke-linecap="round" /></g><g transform="matrix(1 0 0 1 58.53 -35.65)" id="c"  ><path style="stroke: none; stroke-width: 1; stroke-dasharray: none; stroke-linecap: butt; stroke-dashoffset: 0; stroke-linejoin: miter; stroke-miterlimit: 4; fill: rgb(255,255,255); fill-rule: nonzero; opacity: 1;"  transform=" translate(-275.36, -179.73)" d="M 278.33 167.91 C 287.13 168.31 302.52 183.74 292.09 191.35 C 284.52 193.62 274.71 184.75 265.16999999999996 188.57 C 265.16999999999996 188.4 265.16999999999996 188.22 265.16999999999996 188.04999999999998 C 274.94999999999993 184.32999999999998 284.34999999999997 192.92999999999998 291.86999999999995 190.89999999999998 C 303.74999999999994 182.20999999999998 279.21999999999997 153.89999999999998 255.50999999999993 177.98999999999998 L 255.13999999999993 177.64999999999998 C 260.81999999999994 172.7 269.18999999999994 166.62999999999997 278.31999999999994 167.90999999999997 Z" stroke-linecap="round" /></g><g transform="matrix(1 0 0 1 117.08 -16.12)" id="c"  ><path style="stroke: none; stroke-width: 1; stroke-dasharray: none; stroke-linecap: butt; stroke-dashoffset: 0; stroke-linejoin: miter; stroke-miterlimit: 4; fill: rgb(255,255,255); fill-rule: nonzero; opacity: 1;"  transform=" translate(-333.92, -199.27)" d="M 345.09 187.31 C 338.65999999999997 183.61 327.94 166.21 322.01 167.93 C 313.11 174.01000000000002 327.89 201.45000000000002 332.39 206.66 C 338.47999999999996 214.34 346.81 221.49 349.26 231.25 C 339.59 210.97 322.15999999999997 201.91 318.96999999999997 176.7 C 316.88 168.56 323.46 163.08999999999997 329.91999999999996 171.5 C 334.92999999999995 177.27 340.40999999999997 182.7 346.23999999999995 187.63 C 346.03 187.67 345.81999999999994 187.71 345.61999999999995 187.75 C 345.43999999999994 187.6 345.25999999999993 187.45 345.09 187.3 Z" stroke-linecap="round" /></g><g transform="matrix(1 0 0 1 83.11 -62.98)" id="c"  ><path style="stroke: none; stroke-width: 1; stroke-dasharray: none; stroke-linecap: butt; stroke-dashoffset: 0; stroke-linejoin: miter; stroke-miterlimit: 4; fill: rgb(255,255,255); fill-rule: nonzero; opacity: 1;"  transform=" translate(-299.95, -152.4)" d="M 315.51 146.49 C 315.02 151.06 315.48 155.66 314.39 160.17000000000002 C 311.91999999999996 171.45000000000002 300.25 172.18 295.01 163.94000000000003 C 288.65999999999997 155.49000000000004 287.89 144.02000000000004 282.03 135.33000000000004 C 282.28 135.40000000000003 282.53 135.46000000000004 282.78 135.53000000000003 C 290.78 146.42000000000002 288.67999999999995 166.70000000000005 305.25 169.16000000000003 C 319.34 165.71000000000004 311.94 147.29000000000002 317.31 137.50000000000003 C 317.49 137.50000000000003 317.68 137.47000000000003 317.87 137.47000000000003 C 316.66 140.35000000000002 315.85 143.41000000000003 315.52 146.50000000000003 Z" stroke-linecap="round" /></g><g transform="matrix(1 0 0 1 48.16 -69.9)" id="c"  ><path style="stroke: none; stroke-width: 1; stroke-dasharray: none; stroke-linecap: butt; stroke-dashoffset: 0; stroke-linejoin: miter; stroke-miterlimit: 4; fill: rgb(255,255,255); fill-rule: nonzero; opacity: 1;"  transform=" translate(-265, -145.49)" d="M 271.75 133.08 C 270.37 139.61 272.57 146.21 272.8 152.77 C 271.08 167.70000000000002 260.79 149.44 257.2 145.22 C 257.28 145.06 257.36 144.9 257.43 144.74 C 260.89 148.31 270.71 166.91000000000003 272.3 152.79000000000002 C 272.06 146.01000000000002 269.72 139.19000000000003 271.39 132.43 C 271.55 132.47 271.71 132.52 271.87 132.57 C 271.83 132.73999999999998 271.78000000000003 132.92 271.75 133.07999999999998 Z" stroke-linecap="round" /></g><g transform="matrix(1 0 0 1 57.82 6.44)" id="c"  ><path style="stroke: none; stroke-width: 1; stroke-dasharray: none; stroke-linecap: butt; stroke-dashoffset: 0; stroke-linejoin: miter; stroke-miterlimit: 4; fill: rgb(255,255,255); fill-rule: nonzero; opacity: 1;"  transform=" translate(-274.65, -221.82)" d="M 273.22 229.98 C 281.22 231.69 289.04 224.76 280.35 218.73 C 275.79 215.66 270.12 214.98999999999998 265.07000000000005 213.03 C 265.07000000000005 212.85 265.07000000000005 212.68 265.07000000000005 212.5 C 270.22 214.51 275.96000000000004 215.17 280.63000000000005 218.32 C 285.88000000000005 221.17 286.4200000000001 229.18 278.5400000000001 230.42 C 273.9500000000001 231.01999999999998 269.2800000000001 229.61999999999998 264.7800000000001 231.14999999999998 C 264.7800000000001 230.98 264.7800000000001 230.79999999999998 264.7800000000001 230.62999999999997 C 267.5100000000001 229.83999999999997 270.3900000000001 229.72999999999996 273.2000000000001 229.97999999999996 Z" stroke-linecap="round" /></g><g transform="matrix(1 0 0 1 65.86 -23.7)" id="c"  ><path style="stroke: none; stroke-width: 1; stroke-dasharray: none; stroke-linecap: butt; stroke-dashoffset: 0; stroke-linejoin: miter; stroke-miterlimit: 4; fill: rgb(0,50,115); fill-rule: nonzero; opacity: 1;"  transform=" translate(-282.69, -191.69)" d="M 276.12 181.14 C 280.94 182.07999999999998 285.82 182.76 290.71 183.19 C 290.34999999999997 189.73 292.19 200.73 283.51 202.23 C 272.45 202.78 274.15 188.35999999999999 276.11 181.13 Z" stroke-linecap="round" /></g><g transform="matrix(1 0 0 1 50.35 -33.17)" id="c"  ><path style="stroke: rgb(0,50,115); stroke-width: 0.5; stroke-dasharray: none; stroke-linecap: butt; stroke-dashoffset: 0; stroke-linejoin: miter; stroke-miterlimit: 10; fill: none; fill-rule: nonzero; opacity: 1;"  transform=" translate(-267.19, -182.22)" d="M 269.44 169.84 C 266.61 177.77 265.09 186.17000000000002 264.94 194.59" stroke-linecap="round" /></g><g transform="matrix(1 0 0 1 42.21 -62.83)" id="c"  ><path style="stroke: rgb(0,50,115); stroke-width: 0.5; stroke-dasharray: none; stroke-linecap: butt; stroke-dashoffset: 0; stroke-linejoin: miter; stroke-miterlimit: 10; fill: none; fill-rule: nonzero; opacity: 1;"  transform=" translate(-259.04, -152.55)" d="M 267.52 131.29 C 258.45 143.68 253.74999999999997 158.93 250.57 173.81" stroke-linecap="round" /></g><g transform="matrix(1 0 0 1 90.39 39.9)" id="c"  ><path style="stroke: rgb(0,50,115); stroke-width: 0.5; stroke-dasharray: none; stroke-linecap: butt; stroke-dashoffset: 0; stroke-linejoin: miter; stroke-miterlimit: 10; fill: none; fill-rule: nonzero; opacity: 1;"  transform=" translate(-307.22, -255.29)" d="M 350.16 255.82 C 322.70000000000005 263.38 290.73 261.01 264.28000000000003 250.34" stroke-linecap="round" /></g><g transform="matrix(1 0 0 1 76.78 14.41)" id="c"  ><path style="stroke: rgb(0,50,115); stroke-width: 0.5; stroke-dasharray: none; stroke-linecap: butt; stroke-dashoffset: 0; stroke-linejoin: miter; stroke-miterlimit: 10; fill: none; fill-rule: nonzero; opacity: 1;"  transform=" translate(-293.62, -229.8)" d="M 303.78 236.64 C 303.78 236.64 288.72999999999996 231.95 283.45 222.95999999999998" stroke-linecap="round" /></g><g transform="matrix(1 0 0 1 72.68 17.75)" id="c"  ><path style="stroke: rgb(0,50,115); stroke-width: 0.5; stroke-dasharray: none; stroke-linecap: butt; stroke-dashoffset: 0; stroke-linejoin: miter; stroke-miterlimit: 10; fill: none; fill-rule: nonzero; opacity: 1;"  transform=" translate(-289.52, -233.14)" d="M 294.6 235.08 C 294.6 235.08 289.32000000000005 235.67000000000002 284.44 231.17000000000002" stroke-linecap="round" /></g><g transform="matrix(1 0 0 1 71.39 -100.56)" id="c"  ><path style="stroke: none; stroke-width: 1; stroke-dasharray: none; stroke-linecap: butt; stroke-dashoffset: 0; stroke-linejoin: miter; stroke-miterlimit: 4; fill: rgb(255,211,165); fill-rule: nonzero; opacity: 1;"  transform=" translate(-288.22, -114.83)" d="M 290.03 114.62 C 287.2 107.02000000000001 283.44 115.91000000000001 289.85999999999996 118.05000000000001 C 289.96 116.78000000000002 290.24999999999994 115.48000000000002 290.03 114.62 Z" stroke-linecap="round" /></g><g transform="matrix(1 0 0 1 71.69 -101.25)" id="c"  ><path style="stroke: rgb(13,34,59); stroke-width: 0.5; stroke-dasharray: none; stroke-linecap: butt; stroke-dashoffset: 0; stroke-linejoin: miter; stroke-miterlimit: 10; fill: none; fill-rule: nonzero; opacity: 1;"  transform=" translate(-288.52, -114.14)" d="M 289.47 114.96 C 288.6 114.82 287.84000000000003 114.16 287.57000000000005 113.32" stroke-linecap="round" /></g><g transform="matrix(1 0 0 1 88.41 -96.01)" id="c"  ><path style="stroke: none; stroke-width: 1; stroke-dasharray: none; stroke-linecap: butt; stroke-dashoffset: 0; stroke-linejoin: miter; stroke-miterlimit: 4; fill: rgb(255,211,165); fill-rule: nonzero; opacity: 1;"  transform=" translate(-305.25, -119.37)" d="M 320.07 138.05 C 319.34999999999997 125.36000000000001 324.87 109.84 316.69 99.06 C 296.34 83.15 279.65999999999997 119.9 295.65999999999997 133.35 C 295.7 136.23999999999998 295.73999999999995 137.12 295.78999999999996 139.64 C 301.43999999999994 146.08999999999997 314.78999999999996 144.04 320.06999999999994 138.04999999999998 Z" stroke-linecap="round" /></g><g transform="matrix(1 0 0 1 76.35 -103.59)" id="c"  ><path style="stroke: none; stroke-width: 1; stroke-dasharray: none; stroke-linecap: butt; stroke-dashoffset: 0; stroke-linejoin: miter; stroke-miterlimit: 4; fill: rgb(13,34,59); fill-rule: nonzero; opacity: 1;"  transform=" translate(-293.19, -111.8)" d="M 293.67 112 C 293.27000000000004 112.17 292.65000000000003 112.55 292.28000000000003 112.16 C 292.17 111.28 295.19000000000005 110.77 293.67 112 Z" stroke-linecap="round" /></g><g transform="matrix(1 0 0 1 85.18 -102.9)" id="c"  ><path style="stroke: none; stroke-width: 1; stroke-dasharray: none; stroke-linecap: butt; stroke-dashoffset: 0; stroke-linejoin: miter; stroke-miterlimit: 4; fill: rgb(13,34,59); fill-rule: nonzero; opacity: 1;"  transform=" translate(-302.02, -112.49)" d="M 301.94 112.93 C 301.31 112.74000000000001 300.55 111.66000000000001 301.67 111.67 C 302.96000000000004 111.85000000000001 303.6 114.19 301.94 112.93 Z" stroke-linecap="round" /></g><g transform="matrix(1 0 0 1 74.52 -97.14)" id="c"  ><path style="stroke: none; stroke-width: 1; stroke-dasharray: none; stroke-linecap: butt; stroke-dashoffset: 0; stroke-linejoin: miter; stroke-miterlimit: 4; fill: rgb(232,236,243); fill-rule: nonzero; opacity: 1;"  transform=" translate(-291.35, -118.25)" d="M 293.36 118.25 C 293.36 119.71 291.63 120.92 289.56 120.88 C 289.34 119.13 289.28000000000003 117.36999999999999 289.42 115.61999999999999 C 291.48 115.49 293.39000000000004 116.74999999999999 293.36 118.24 Z" stroke-linecap="round" /></g><g transform="matrix(1 0 0 1 91.33 -97.13)" id="c"  ><path style="stroke: none; stroke-width: 1; stroke-dasharray: none; stroke-linecap: butt; stroke-dashoffset: 0; stroke-linejoin: miter; stroke-miterlimit: 4; fill: rgb(232,236,243); fill-rule: nonzero; opacity: 1;"  transform=" translate(-308.16, -118.25)" d="M 308.16 120.89 C 303.29 120.94 303.29 115.57 308.16 115.62 C 313.03000000000003 115.57000000000001 313.03000000000003 120.94 308.16 120.89 Z" stroke-linecap="round" /></g><g transform="matrix(1 0 0 1 82.62 -80.59)" id="c"  ><path style="stroke: none; stroke-width: 1; stroke-dasharray: none; stroke-linecap: butt; stroke-dashoffset: 0; stroke-linejoin: miter; stroke-miterlimit: 4; fill: rgb(232,236,243); fill-rule: nonzero; opacity: 1;"  transform=" translate(-299.46, -134.8)" d="M 303.32 134.37 C 300.98 135.61 298.27 136.74 295.59999999999997 136.05 C 295.67999999999995 135.17000000000002 295.68999999999994 134.28 295.61999999999995 133.34 C 297.93999999999994 134.59 300.7099999999999 134.96 303.31999999999994 134.37 Z" stroke-linecap="round" /></g><g transform="matrix(1 0 0 1 84.17 -82.06)" id="c"  ><path style="stroke: rgb(13,34,59); stroke-width: 0.5; stroke-dasharray: none; stroke-linecap: butt; stroke-dashoffset: 0; stroke-linejoin: miter; stroke-miterlimit: 10; fill: none; fill-rule: nonzero; opacity: 1;"  transform=" translate(-301, -133.32)" d="M 307.22 132.12 C 304.15000000000003 135.41 298.39000000000004 135.01 294.79 132.8" stroke-linecap="round" /></g><g transform="matrix(1 0 0 1 91.29 -74.67)" id="c"  ><path style="stroke: rgb(13,34,59); stroke-width: 0.5; stroke-dasharray: none; stroke-linecap: butt; stroke-dashoffset: 0; stroke-linejoin: miter; stroke-miterlimit: 10; fill: none; fill-rule: nonzero; opacity: 1;"  transform=" translate(-308.13, -140.71)" d="M 320.33 137.99 C 319.72999999999996 139.73000000000002 305.22999999999996 148.13 295.93 139.83" stroke-linecap="round" /></g><g transform="matrix(1 0 0 1 87.35 -111.46)" id="c"  ><path style="stroke: none; stroke-width: 1; stroke-dasharray: none; stroke-linecap: butt; stroke-dashoffset: 0; stroke-linejoin: miter; stroke-miterlimit: 4; fill: rgb(13,34,59); fill-rule: nonzero; opacity: 1;"  transform=" translate(-304.18, -103.92)" d="M 320.35 119.17 C 317.01000000000005 116.9 316.32000000000005 112.52 315.83000000000004 108.78 C 313.83000000000004 110.9 310.68000000000006 111.17 307.94000000000005 110.54 C 308.64000000000004 110.10000000000001 309.07000000000005 109.25 308.97 108.24000000000001 C 303.87 111.2 297.89000000000004 108.69000000000001 293.05 106.28000000000002 C 292.53000000000003 109.63000000000001 289.66 112.44000000000001 290.23 116.19000000000001 C 289.96000000000004 116.24000000000001 289.68 116.29 289.29 116.34000000000002 C 289.25 114.60000000000002 289.93 111.80000000000001 287.31 111.77000000000001 C 287.24 108.97000000000001 288.11 106.16000000000001 289.99 104.14000000000001 C 287.26 101.44000000000001 285.40000000000003 97.85000000000001 284.65000000000003 93.95000000000002 C 286.65000000000003 94.84000000000002 288.81000000000006 95.38000000000002 291.07000000000005 95.77000000000001 C 290.88000000000005 86.07000000000001 299.27000000000004 88.72000000000001 305.52000000000004 89.95000000000002 C 311.84000000000003 87.79000000000002 320.63000000000005 89.49000000000002 320.65000000000003 97.64000000000001 C 326.29 98.36000000000001 322.35 112.15000000000002 322.72 113.23000000000002 C 318.54 114.43000000000002 320.93 118.37000000000002 320.35 119.18000000000002 Z" stroke-linecap="round" /></g><g transform="matrix(1 0 0 1 105.43 -98.41)" id="c"  ><path style="stroke: none; stroke-width: 1; stroke-dasharray: none; stroke-linecap: butt; stroke-dashoffset: 0; stroke-linejoin: miter; stroke-miterlimit: 4; fill: rgb(255,211,165); fill-rule: nonzero; opacity: 1;"  transform=" translate(-322.26, -116.98)" d="M 320.06 114.96 C 325.93 109.16999999999999 326.12 120.6 320 120.63 C 320.11 119.16 320.16 115.27 320.06 114.96 Z" stroke-linecap="round" /></g><g transform="matrix(1 0 0 1 105.06 -99.63)" id="c"  ><path style="stroke: rgb(13,34,59); stroke-width: 0.5; stroke-dasharray: none; stroke-linecap: butt; stroke-dashoffset: 0; stroke-linejoin: miter; stroke-miterlimit: 10; fill: none; fill-rule: nonzero; opacity: 1;"  transform=" translate(-321.89, -115.76)" d="M 323.18 114.81 C 323.02 116.01 321.79 116.89 320.6 116.67" stroke-linecap="round" /></g><g transform="matrix(1 0 0 1 -8.11 95.18)" id="c"  ><path style="stroke: none; stroke-width: 1; stroke-dasharray: none; stroke-linecap: butt; stroke-dashoffset: 0; stroke-linejoin: miter; stroke-miterlimit: 4; fill: rgb(255,255,255); fill-rule: nonzero; opacity: 1;"  transform=" translate(-208.73, -310.56)" d="M 246.64 269.03 C 234.42 296.44 219.79 327.38 205.69 353.75 C 193.68 351.12 182.13 344.66 170.81 339.7 C 182.19 316.56 193.11 293.2 203.56 269.66999999999996 C 217.93 267.86999999999995 235.74 265.86999999999995 246.65 269.03999999999996 Z" stroke-linecap="round" /></g><g transform="matrix(1 0 0 1 -15.56 127.64)" id="c"  ><path style="stroke: rgb(0,44,101); stroke-width: 1; stroke-dasharray: none; stroke-linecap: butt; stroke-dashoffset: 0; stroke-linejoin: miter; stroke-miterlimit: 10; fill: none; fill-rule: nonzero; opacity: 1;"  transform=" translate(-201.27, -343.02)" d="M 204.96 335.68 L 197.58 350.37" stroke-linecap="round" /></g><g transform="matrix(1 0 0 1 6.16 84.36)" id="c"  ><path style="stroke: rgb(0,44,101); stroke-width: 1; stroke-dasharray: none; stroke-linecap: butt; stroke-dashoffset: 0; stroke-linejoin: miter; stroke-miterlimit: 10; fill: none; fill-rule: nonzero; opacity: 1;"  transform=" translate(-223, -299.75)" d="M 238.43 269.03 L 207.57 330.46999999999997" stroke-linecap="round" /></g><g transform="matrix(1 0 0 1 -29.03 89.66)" id="c"  ><path style="stroke: none; stroke-width: 1; stroke-dasharray: none; stroke-linecap: butt; stroke-dashoffset: 0; stroke-linejoin: miter; stroke-miterlimit: 4; fill: rgb(0,44,101); fill-rule: nonzero; opacity: 1;"  transform=" translate(-187.81, -305.05)" d="M 198.68 293.51 C 195.55 303.09999999999997 191.07 312.32 185.44 320.81 C 182.51 319.59 179.67 318.2 176.93 316.64 C 180.72 307.3 185.07 298.15999999999997 189.95000000000002 289.28999999999996 C 193.08 290.08 196.02 291.51 198.68 293.51 Z" stroke-linecap="round" /></g><g transform="matrix(1 0 0 1 -33.16 97.2)" id="c"  ><path style="stroke: rgb(0,75,173); stroke-width: 1; stroke-dasharray: none; stroke-linecap: butt; stroke-dashoffset: 0; stroke-linejoin: miter; stroke-miterlimit: 10; fill: none; fill-rule: nonzero; opacity: 1;"  transform=" translate(-183.68, -312.59)" d="M 188.11 308.59 L 184.42000000000002 316.59 L 179.25000000000003 314.45" stroke-linecap="round" /></g><g transform="matrix(1 0 0 1 -24.6 84.26)" id="c"  ><path style="stroke: rgb(0,75,173); stroke-width: 1; stroke-dasharray: none; stroke-linecap: butt; stroke-dashoffset: 0; stroke-linejoin: miter; stroke-miterlimit: 10; fill: none; fill-rule: nonzero; opacity: 1;"  transform=" translate(-192.24, -299.64)" d="M 195.33 292.94 L 189.14000000000001 306.35" stroke-linecap="round" /></g><g transform="matrix(1 0 0 1 -75.15 -72.98)" id="c"  ><path style="stroke: none; stroke-width: 1; stroke-dasharray: none; stroke-linecap: butt; stroke-dashoffset: 0; stroke-linejoin: miter; stroke-miterlimit: 4; fill: rgb(255,255,255); fill-rule: nonzero; opacity: 1;"  transform=" translate(-141.68, -142.41)" d="M 246.38 159.42 C 255.65 166.29 265.21 173.08999999999997 272.1 182.32 C 290.92 206.74 284.84000000000003 249.94 256.43 265.69 C 246.83 270.81 235.74 271.55 225.12 271.58 C 152.27 269.59 82.42000000000002 249.76 14.629999999999995 284.81 C -26.48 244.38 27.23 2.14 106.47 0 C 115.88 2.82 115.57 31.11 133.69 54.57 C 163.51999999999998 93.19 214 135.41 246.38 159.42 Z" stroke-linecap="round" /></g><g transform="matrix(1 0 0 1 -166.2 -75.79)" id="c"  ><path style="stroke: none; stroke-width: 1; stroke-dasharray: none; stroke-linecap: butt; stroke-dashoffset: 0; stroke-linejoin: miter; stroke-miterlimit: 4; fill: rgb(0,44,101); fill-rule: nonzero; opacity: 0.1;"  transform=" translate(-50.64, -139.59)" d="M 10.99 277.88 C -23.35 228.35 27.69 21.56 96.4 1.31 C 115.43 71.97 77 218.18 10.990000000000009 277.88 Z" stroke-linecap="round" /></g><g transform="matrix(1 0 0 1 -174.78 -0.59)" id="c"  ><path style="stroke: none; stroke-width: 1; stroke-dasharray: none; stroke-linecap: butt; stroke-dashoffset: 0; stroke-linejoin: miter; stroke-miterlimit: 4; fill: rgb(0,44,101); fill-rule: nonzero; opacity: 0.1;"  transform=" translate(-42.06, -214.8)" d="M 21.99 203.97 C 45.849999999999994 208.54 72.07 171.32 84.06 151.71 C 61.24 207.67000000000002 44.120000000000005 247.89000000000001 10.990000000000009 277.88 C 5.660000000000009 264.99 -3.04999999999999 234.45999999999998 1.1700000000000088 189.45 C 6.400000000000009 196.67999999999998 13.190000000000008 202.26999999999998 21.980000000000008 203.95999999999998 Z" stroke-linecap="round" /></g><g transform="matrix(1 0 0 1 -190.73 46.56)" id="c"  ><path style="stroke: rgb(0,44,101); stroke-width: 1; stroke-dasharray: none; stroke-linecap: butt; stroke-dashoffset: 0; stroke-linejoin: miter; stroke-miterlimit: 10; fill: none; fill-rule: nonzero; opacity: 1;"  transform=" translate(-26.11, -261.94)" d="M 32.84 252.84 C 28.620000000000005 258.9 24.130000000000003 264.98 19.380000000000003 271.05" stroke-linecap="round" /></g><g transform="matrix(1 0 0 1 -147.72 -87.19)" id="c"  ><path style="stroke: rgb(0,44,101); stroke-width: 1; stroke-dasharray: none; stroke-linecap: butt; stroke-dashoffset: 0; stroke-linejoin: miter; stroke-miterlimit: 10; fill: none; fill-rule: nonzero; opacity: 1;"  transform=" translate(-69.12, -128.19)" d="M 98.12 10.78 C 98.12 10.78 118.7 123.96000000000001 37.78 245.6" stroke-linecap="round" /></g><g transform="matrix(1 0 0 1 21.07 -2.88)" id="c"  ><path style="stroke: none; stroke-width: 1; stroke-dasharray: none; stroke-linecap: butt; stroke-dashoffset: 0; stroke-linejoin: miter; stroke-miterlimit: 4; fill: rgb(30,33,40); fill-rule: nonzero; opacity: 1;"  transform=" translate(-237.91, -212.5)" d="M 192.85 270.19 C 213.93 271 236.70999999999998 275.14 256.43 265.69 C 281.75 251.5 289.63 215.75 277.12 190.57 C 269 173.81 252.39000000000001 164.41 238.15 153.22 C 236.81 195.45 225.15 240.67000000000002 192.85000000000002 270.19 Z" stroke-linecap="round" /></g><g transform="matrix(1 0 0 1 5.51 -11.2)" id="c"  ><path style="stroke: rgb(0,50,115); stroke-width: 1; stroke-dasharray: none; stroke-linecap: butt; stroke-dashoffset: 0; stroke-linejoin: miter; stroke-miterlimit: 10; fill: none; fill-rule: nonzero; opacity: 1;"  transform=" translate(-222.35, -204.19)" d="M 206.55 255.16 C 228.85000000000002 226.19 236.87 188.92000000000002 238.14000000000001 153.20999999999998" stroke-linecap="round" /></g><g transform="matrix(1 0 0 1 -19.17 49.81)" id="c"  ><path style="stroke: rgb(0,50,115); stroke-width: 1; stroke-dasharray: none; stroke-linecap: butt; stroke-dashoffset: 0; stroke-linejoin: miter; stroke-miterlimit: 10; fill: none; fill-rule: nonzero; opacity: 1;"  transform=" translate(-197.66, -265.19)" d="M 192.85 270.19 C 196.26999999999998 267.06 199.48 263.71999999999997 202.48 260.2" stroke-linecap="round" /></g><g transform="matrix(1 0 0 1 40.53 -25.76)" id="c"  ><path style="stroke: rgb(0,75,173); stroke-width: 1; stroke-dasharray: none; stroke-linecap: butt; stroke-dashoffset: 0; stroke-linejoin: miter; stroke-miterlimit: 10; fill: none; fill-rule: nonzero; opacity: 0.2;"  transform=" translate(-257.36, -189.63)" d="M 277.01 215.62 C 277.01 215.62 276.5 186.62 237.70999999999998 163.64000000000001" stroke-linecap="round" /></g><g transform="matrix(1 0 0 1 51.62 21.83)" id="c"  ><path style="stroke: rgb(0,75,173); stroke-width: 1; stroke-dasharray: none; stroke-linecap: butt; stroke-dashoffset: 0; stroke-linejoin: miter; stroke-miterlimit: 10; fill: none; fill-rule: nonzero; opacity: 0.2;"  transform=" translate(-268.45, -237.22)" d="M 279.61 213.66 C 279.61 213.66 257.29 230.22 257.29 260.78" stroke-linecap="round" /></g><g transform="matrix(1 0 0 1 -116.62 37.66)" id="c"  ><path style="stroke: rgb(0,44,101); stroke-width: 1; stroke-dasharray: none; stroke-linecap: butt; stroke-dashoffset: 0; stroke-linejoin: miter; stroke-miterlimit: 10; fill: none; fill-rule: nonzero; opacity: 0.3;"  transform=" translate(-100.22, -253.04)" d="M 145.92 248.37 C 119.15999999999998 245.76 84.64999999999998 246.26 54.51999999999998 258.98" stroke-linecap="round" /></g><g transform="matrix(1 0 0 1 -43.58 37.59)" id="c"  ><path style="stroke: rgb(0,44,101); stroke-width: 1; stroke-dasharray: none; stroke-linecap: butt; stroke-dashoffset: 0; stroke-linejoin: miter; stroke-miterlimit: 10; fill: none; fill-rule: nonzero; opacity: 0.3;"  transform=" translate(-173.26, -252.97)" d="M 190.85 256.46 C 190.85 256.46 176.63 252.26 155.67 249.48999999999998" stroke-linecap="round" /></g><g transform="matrix(1 0 0 1 54.3 -9.35)" id="c"  ><path style="stroke: none; stroke-width: 1; stroke-dasharray: none; stroke-linecap: butt; stroke-dashoffset: 0; stroke-linejoin: miter; stroke-miterlimit: 4; fill: rgb(0,50,115); fill-rule: nonzero; opacity: 1;"  transform=" translate(-271.14, -206.03)" d="M 261.72 203.18 C 265.48 203.99 269.25 204.8 273.01000000000005 205.62 C 255.16000000000005 204.26 256.23 207.84 272.61000000000007 211.09 C 269.24000000000007 211.46 265.88000000000005 209.96 262.5900000000001 211.02 C 256.3900000000001 214.17000000000002 280.9100000000001 216.69 282.9700000000001 217.81 C 283.12000000000006 210.7 282.05000000000007 203.61 279.7900000000001 197.01 C 274.07000000000005 196.39 267.94000000000005 192.98999999999998 262.2900000000001 194.76999999999998 C 258.9500000000001 198.13 271.94000000000005 198.89999999999998 273.9500000000001 200.17 C 269.3800000000001 200.23 263.5100000000001 198.22 259.4600000000001 200.60999999999999 C 258.7600000000001 202.1 260.4400000000001 203.04 261.7200000000001 203.17999999999998 Z" stroke-linecap="round" /></g><g transform="matrix(1 0 0 1 108.6 -9.66)" id="c"  ><path style="stroke: none; stroke-width: 1; stroke-dasharray: none; stroke-linecap: butt; stroke-dashoffset: 0; stroke-linejoin: miter; stroke-miterlimit: 4; fill: rgb(255,211,165); fill-rule: nonzero; opacity: 1;"  transform=" translate(-325.43, -205.73)" d="M 333.35 188.38 C 334.6 191.59 335.84000000000003 194.79999999999998 336.94 198.26 C 318.77 197.85 300.6 197.07999999999998 282.40999999999997 196.12 C 280.54999999999995 201.95000000000002 281.2 209.20000000000002 280.09 214.85 C 312.25 231.42 394.49 244.29999999999998 364.18999999999994 182.89 C 361.80999999999995 185.10999999999999 336.0899999999999 189.67999999999998 333.35999999999996 188.36999999999998 Z" stroke-linecap="round" /></g><g transform="matrix(1 0 0 1 60.69 -11.81)" id="c"  ><path style="stroke: none; stroke-width: 1; stroke-dasharray: none; stroke-linecap: butt; stroke-dashoffset: 0; stroke-linejoin: miter; stroke-miterlimit: 4; fill: rgb(255,211,165); fill-rule: nonzero; opacity: 1;"  transform=" translate(-277.52, -203.57)" d="M 296 197.77 C 286.93 198.79000000000002 281.66 189.9 273.65 188.12 C 269.35999999999996 189.94 278.65 193.99 279.91999999999996 195.74 C 274.09 195.10000000000002 267.83 191.63 262.06999999999994 193.42000000000002 C 258.72999999999996 196.78000000000003 271.7199999999999 197.56 273.72999999999996 198.82000000000002 C 255.22999999999996 196.55 253.41999999999996 201.36 272.78999999999996 204.26000000000002 C 254.93999999999997 202.91000000000003 256.02 206.48000000000002 272.39 209.73000000000002 C 269.02 210.11 265.65999999999997 208.60000000000002 262.37 209.67000000000002 C 260.88 210.00000000000003 260.81 211.66000000000003 262.39 211.91000000000003 C 272.19 214.74000000000004 282.58 215.76000000000002 292.21999999999997 219.02000000000004 C 292.92999999999995 211.80000000000004 294.08 204.59000000000003 295.98999999999995 197.77000000000004 Z" stroke-linecap="round" /></g><g transform="matrix(1 0 0 1 120.61 -16.72)" id="c"  ><path style="stroke: rgb(13,34,59); stroke-width: 0.5; stroke-dasharray: none; stroke-linecap: butt; stroke-dashoffset: 0; stroke-linejoin: miter; stroke-miterlimit: 10; fill: none; fill-rule: nonzero; opacity: 1;"  transform=" translate(-337.45, -198.66)" d="M 340.21 198.85 C 338.37 198.73 336.53 198.6 334.69 198.48" stroke-linecap="round" /></g><g transform="matrix(1 0 0 1 146.96 -0.87)" id="c"  ><path style="stroke: none; stroke-width: 1; stroke-dasharray: none; stroke-linecap: butt; stroke-dashoffset: 0; stroke-linejoin: miter; stroke-miterlimit: 4; fill: rgb(232,236,243); fill-rule: nonzero; opacity: 1;"  transform=" translate(-363.79, -214.51)" d="M 357.25 225.9 C 355.84 216.52 360.5 205.62 370.19 203.13 C 372.13 212.92 366.69 222.47 357.25 225.9 Z" stroke-linecap="round" /></g><g transform="matrix(1 0 0 1 114.26 -31.17)" id="c"  ><path style="stroke: rgb(0,50,115); stroke-width: 0.5; stroke-dasharray: none; stroke-linecap: butt; stroke-dashoffset: 0; stroke-linejoin: miter; stroke-miterlimit: 10; fill: none; fill-rule: nonzero; opacity: 1;"  transform=" translate(-331.09, -184.22)" d="M 325.1 170.15 C 329.57000000000005 179.31 333.58000000000004 188.70000000000002 337.08000000000004 198.28" stroke-linecap="round" /></g><g transform="matrix(1 0 0 1 133.09 -33.87)" id="c"  ><path style="stroke: rgb(0,50,115); stroke-width: 0.5; stroke-dasharray: none; stroke-linecap: butt; stroke-dashoffset: 0; stroke-linejoin: miter; stroke-miterlimit: 10; fill: none; fill-rule: nonzero; opacity: 1;"  transform=" translate(-349.93, -181.51)" d="M 367.32 176.62 C 356.84 182.71 344.53999999999996 184.67000000000002 332.53999999999996 186.41" stroke-linecap="round" /></g><g transform="matrix(1 0 0 1 134.1 -31.45)" id="c"  ><path style="stroke: rgb(0,50,115); stroke-width: 0.5; stroke-dasharray: none; stroke-linecap: butt; stroke-dashoffset: 0; stroke-linejoin: miter; stroke-miterlimit: 10; fill: none; fill-rule: nonzero; opacity: 1;"  transform=" translate(-350.93, -183.94)" d="M 368.52 179.48 C 368.52 179.48 362.34999999999997 187.64 333.34999999999997 188.39" stroke-linecap="round" /></g><g transform="matrix(1 0 0 1 29.86 -153.22)" id="c"  ><path style="stroke: rgb(255,255,255); stroke-width: 1; stroke-dasharray: none; stroke-linecap: butt; stroke-dashoffset: 0; stroke-linejoin: miter; stroke-miterlimit: 10; fill: none; fill-rule: nonzero; opacity: 1;"  transform=" translate(-246.69, -62.17)" d="M 240.42 70.37 C 242.95 68.14 240.29999999999998 65.14 242.82999999999998 62.910000000000004 C 245.35999999999999 60.68000000000001 248.01 63.68000000000001 250.54 61.440000000000005 C 253.07 59.21000000000001 250.42999999999998 56.21000000000001 252.95999999999998 53.970000000000006" stroke-linecap="round" /></g><g transform="matrix(1 0 0 1 -38.49 -144.02)" id="c"  ><path style="stroke: rgb(255,255,255); stroke-width: 1; stroke-dasharray: none; stroke-linecap: butt; stroke-dashoffset: 0; stroke-linejoin: miter; stroke-miterlimit: 10; fill: none; fill-rule: nonzero; opacity: 1;"  transform=" translate(-178.34, -71.37)" d="M 187.58 78.36 C 184.99 75.58 182.06 78.3 179.47000000000003 75.52 C 176.88000000000002 72.72999999999999 179.80000000000004 70.00999999999999 177.21000000000004 67.22 C 174.62000000000003 64.42999999999999 171.69000000000003 67.16 169.10000000000002 64.37" stroke-linecap="round" /></g><g transform="matrix(1 0 0 1 -5.59 -170.08)" id="c"  ><path style="stroke: rgb(248,249,250); stroke-width: 1; stroke-dasharray: none; stroke-linecap: butt; stroke-dashoffset: 0; stroke-linejoin: miter; stroke-miterlimit: 10; fill: none; fill-rule: nonzero; opacity: 1;"  transform=" translate(-211.25, -45.3)" d="M 211.83 56.64 C 212.3 52.95 208.33 52.45 208.8 48.75 C 209.27 45.05 213.23000000000002 45.56 213.70000000000002 41.86 C 214.17000000000002 38.16 210.20000000000002 37.66 210.66000000000003 33.97" stroke-linecap="round" /></g></g></g></svg>