<svg viewBox = "0 0 243 179" width="243" height="179" xmlns="http://www.w3.org/2000/svg"><g transform="matrix(1 0 0 1 121.5 89.5)"  ><g style=""   ><g transform="matrix(1 0 0 1 -33.66 15.42)"  ><path style="stroke: rgb(50,55,67); stroke-width: 0.75; stroke-dasharray: 4 5; stroke-linecap: butt; stroke-dashoffset: 0; stroke-linejoin: miter; stroke-miterlimit: 10; fill: none; fill-rule: nonzero; opacity: 1;"  transform=" translate(-87.84, -104.92)" d="M 1 170.458 C 1 170.458 45.27 188.478 75.028 167.86 C 116.616 139.046 108.518 88.42 96.546 79.553 C 84.575 70.685 70.086 85.874 85.612 100.355 C 100.758 114.483 127.929 114.137 141.168 91.968 C 154.408 69.799 143.54 42.708 174.69 32.089" stroke-linecap="round" /></g><g transform="matrix(1 0 0 1 82.11 -69.41)"  ><path style="stroke: none; stroke-width: 1; stroke-dasharray: none; stroke-linecap: butt; stroke-dashoffset: 0; stroke-linejoin: miter; stroke-miterlimit: 4; fill: rgb(0,75,173); fill-rule: nonzero; opacity: 1;"  transform=" translate(-203.61, -20.09)" d="M 172.518 16.48 L 164.865 37.497 L 180.93 24.951 L 242.352 2.67505 L 172.518 16.48 Z" stroke-linecap="round" /></g><g transform="matrix(1 0 0 1 82.11 -69.41)"  ><path style="stroke: none; stroke-width: 1; stroke-dasharray: none; stroke-linecap: butt; stroke-dashoffset: 0; stroke-linejoin: miter; stroke-miterlimit: 4; fill: rgb(23,26,31); fill-rule: nonzero; opacity: 0.1;"  transform=" translate(-203.61, -20.09)" d="M 172.518 16.48 L 164.865 37.497 L 180.93 24.951 L 242.352 2.67505 L 172.518 16.48 Z" stroke-linecap="round" /></g><g transform="matrix(1 0 0 1 52.43 -58.28)"  ><path style="stroke: none; stroke-width: 1; stroke-dasharray: none; stroke-linecap: butt; stroke-dashoffset: 0; stroke-linejoin: miter; stroke-miterlimit: 4; fill: rgb(50,55,67); fill-rule: nonzero; opacity: 1;"  transform=" translate(-173.93, -31.22)" d="M 182.992 29.8481 L 164.865 37.4971 L 180.93 24.951 L 182.992 29.8481 Z" stroke-linecap="round" /></g><g transform="matrix(1 0 0 1 90.14 -62.24)"  ><path style="stroke: none; stroke-width: 1; stroke-dasharray: none; stroke-linecap: butt; stroke-dashoffset: 0; stroke-linejoin: miter; stroke-miterlimit: 4; fill: rgb(0,75,173); fill-rule: nonzero; opacity: 1;"  transform=" translate(-211.64, -27.26)" d="M 180.93 24.951 L 242.352 2.67505 L 191.972 51.839 L 180.93 24.951 Z" stroke-linecap="round" /></g><g transform="matrix(1 0 0 1 73.17 -81.26)"  ><path style="stroke: none; stroke-width: 1; stroke-dasharray: none; stroke-linecap: butt; stroke-dashoffset: 0; stroke-linejoin: miter; stroke-miterlimit: 4; fill: rgb(0,75,173); fill-rule: nonzero; opacity: 1;"  transform=" translate(-194.67, -8.24)" d="M 172.518 16.48 L 146.992 0 L 242.352 2.675 L 172.518 16.48 Z" stroke-linecap="round" /></g></g></g></svg>