<svg viewBox = "0 0 346.06 273.97" width="346.06" height="273.97" xmlns="http://www.w3.org/2000/svg"><g transform="matrix(1 0 0 1 173.03 136.99)"  ><g style=""   ><g transform="matrix(1 0 0 1 -107.63 -111.57)" id="c"  ><path style="stroke: none; stroke-width: 1; stroke-dasharray: none; stroke-linecap: butt; stroke-dashoffset: 0; stroke-linejoin: miter; stroke-miterlimit: 4; fill: rgb(232,236,243); fill-rule: nonzero; opacity: 1;"  transform=" translate(-65.41, -25.42)" d="M 95.53 0 L 29.56 9 L 35.269999999999996 50.84 L 101.25 41.84 L 95.53 0 Z" stroke-linecap="round" /></g><g transform="matrix(1 0 0 1 -110.48 -119.98)" id="c"  ><path style="stroke: none; stroke-width: 1; stroke-dasharray: none; stroke-linecap: butt; stroke-dashoffset: 0; stroke-linejoin: miter; stroke-miterlimit: 4; fill: rgb(255,255,255); fill-rule: nonzero; opacity: 1;"  transform=" translate(-62.55, -17.01)" d="M 95.54 0 C 86.17 11.6 76.44 22.86 66.57000000000001 34.02 C 54.09 25.900000000000006 41.68000000000001 17.680000000000003 29.56000000000001 9.000000000000004 C 39.35000000000001 14.730000000000004 48.96000000000001 20.710000000000004 58.53000000000001 26.830000000000002 C 61.11000000000001 28.470000000000002 63.70000000000001 30.130000000000003 66.28 31.790000000000003 C 68.31 29.51 70.35 27.21 72.39 24.950000000000003 Q 72.39 24.950000000000003 72.41 24.92 C 79.98 16.49 87.65 8.12 95.54 0 Z" stroke-linecap="round" /></g><g transform="matrix(1 0 0 1 -126.04 -98.36)" id="c"  ><path style="stroke: none; stroke-width: 1; stroke-dasharray: none; stroke-linecap: butt; stroke-dashoffset: 0; stroke-linejoin: miter; stroke-miterlimit: 4; fill: rgb(255,255,255); fill-rule: nonzero; opacity: 1;"  transform=" translate(-46.99, -38.63)" d="M 58.75 27.77 C 51.59 35.69 43.7 42.96 35.239999999999995 49.480000000000004 C 42.41 41.550000000000004 50.279999999999994 34.28 58.75 27.770000000000003 Z" stroke-linecap="round" /></g><g transform="matrix(1 0 0 1 -86.36 -103.77)" id="c"  ><path style="stroke: none; stroke-width: 1; stroke-dasharray: none; stroke-linecap: butt; stroke-dashoffset: 0; stroke-linejoin: miter; stroke-miterlimit: 4; fill: rgb(255,255,255); fill-rule: nonzero; opacity: 1;"  transform=" translate(-86.67, -33.22)" d="M 100.91 40.53 C 91.00999999999999 36.52 81.46 31.630000000000003 72.44 25.910000000000004 C 82.34 29.910000000000004 91.88 34.81 100.91 40.53 Z" stroke-linecap="round" /></g><g transform="matrix(1 0 0 1 -51.35 12.17)" id="c"  ><path style="stroke: none; stroke-width: 1; stroke-dasharray: none; stroke-linecap: butt; stroke-dashoffset: 0; stroke-linejoin: miter; stroke-miterlimit: 4; fill: rgb(0,75,173); fill-rule: nonzero; opacity: 1;"  transform=" translate(-121.68, -149.16)" d="M 42.33 254.21 L 208.92000000000002 254.93 C 249.41000000000003 223.13 253.59000000000003 176.03 224.71 147.47000000000003 C 201.13 124.17000000000003 168.98000000000002 138.65000000000003 142.38 124.63000000000002 C 118.07 111.93000000000002 104.38 77.65000000000003 82.85999999999999 54.96000000000002 C 67.79999999999998 38.880000000000024 37.829999999999984 38.36000000000002 22.149999999999984 60.96000000000002 C -17.68 118.41 0.57 203.9 42.33 254.21 Z" stroke-linecap="round" /></g><g transform="matrix(1 0 0 1 -54.98 -5.85)" id="c"  ><path style="stroke: none; stroke-width: 1; stroke-dasharray: none; stroke-linecap: butt; stroke-dashoffset: 0; stroke-linejoin: miter; stroke-miterlimit: 4; fill: rgb(1,1,1); fill-rule: nonzero; opacity: 0.1;"  transform=" translate(-118.05, -131.13)" d="M 38.63 122.79 C 42.99 191.14 121.93 216.65 171.22 196.18 C 214.07999999999998 178.37 200.06 137.74 163.88 130.94 C 126.67999999999999 127.78 113.38999999999999 92.65 90.03 63.28 C 62.75 49.11 35.43 72.74000000000001 38.63 122.78999999999999 Z" stroke-linecap="round" /></g><g transform="matrix(1 0 0 1 1.94 73.43)" id="c"  ><path style="stroke: none; stroke-width: 1; stroke-dasharray: none; stroke-linecap: butt; stroke-dashoffset: 0; stroke-linejoin: miter; stroke-miterlimit: 4; fill: rgb(255,211,165); fill-rule: nonzero; opacity: 1;"  transform=" translate(-174.97, -210.42)" d="M 195.46 264.98 C 192.89000000000001 264.04 134.83 217.64000000000001 133.74 214.47000000000003 C 135.62 206.96000000000004 176.73000000000002 156.76000000000002 177.27 155.77000000000004 L 216.20000000000002 186.69000000000005 C 212.04000000000002 191.62000000000006 188.54000000000002 219.50000000000006 184.97000000000003 223.75000000000006 C 184.97000000000003 223.75000000000006 199.25000000000003 251.46000000000006 200.08000000000004 255.06000000000006 C 200.90000000000003 258.65000000000003 198.03000000000003 265.9200000000001 195.46000000000004 264.9800000000001 Z" stroke-linecap="round" /></g><g transform="matrix(1 0 0 1 -6.05 95.34)" id="c"  ><path style="stroke: none; stroke-width: 1; stroke-dasharray: none; stroke-linecap: butt; stroke-dashoffset: 0; stroke-linejoin: miter; stroke-miterlimit: 4; fill: rgb(0,37,87); fill-rule: nonzero; opacity: 1;"  transform=" translate(-166.98, -232.32)" d="M 195.46 264.97 C 192.9 264.03000000000003 134.84 217.64000000000004 133.75 214.46000000000004 C 133.4 213.48000000000005 137.48 207.44000000000003 143.26 199.59000000000003 C 147.54999999999998 204.34000000000003 201.72 264.85 191.35999999999999 236.30000000000004 C 195.27999999999997 244.13000000000005 199.64999999999998 253.10000000000005 200.1 255.05000000000004 C 200.91 258.65000000000003 198.04999999999998 265.91 195.47 264.97 Z" stroke-linecap="round" /></g><g transform="matrix(1 0 0 1 -6.19 15.9)" id="c"  ><path style="stroke: none; stroke-width: 1; stroke-dasharray: none; stroke-linecap: butt; stroke-dashoffset: 0; stroke-linejoin: miter; stroke-miterlimit: 4; fill: rgb(222,225,230); fill-rule: nonzero; opacity: 1;"  transform=" translate(-166.84, -152.88)" d="M 255.52 127.22 C 252.11 148.86 202.64000000000001 206.1 195.94 214.04 L 154.71 182.35999999999999 C 155.33 181.57999999999998 190.89000000000001 134.98 191.49 134.20999999999998 C 174.76000000000002 143.60999999999999 108.35000000000001 180.26999999999998 77.93 133.51 L 117.13000000000001 112.60999999999999 C 143.14000000000001 122.90999999999998 207.64000000000001 90.03999999999999 225.06 91.78999999999999 C 241.45 92.46 257.95 108.66 255.5 127.22 Z" stroke-linecap="round" /></g><g transform="matrix(1 0 0 1 24.17 -10.27)" id="c"  ><path style="stroke: none; stroke-width: 1; stroke-dasharray: none; stroke-linecap: butt; stroke-dashoffset: 0; stroke-linejoin: miter; stroke-miterlimit: 4; fill: rgb(0,37,87); fill-rule: nonzero; opacity: 1;"  transform=" translate(-197.2, -126.71)" d="M 204.53 116.55 C 201.79 119.66 199.5 123.2 196.88 126.42999999999999 C 205.19 109.25 192.45 133.09 189.87 136.87 C 195.02 130.48000000000002 200.56 123.35000000000001 204.53 116.55000000000001 Z" stroke-linecap="round" /></g><g transform="matrix(1 0 0 1 -58.92 -70.73)" id="c"  ><path style="stroke: none; stroke-width: 1; stroke-dasharray: none; stroke-linecap: butt; stroke-dashoffset: 0; stroke-linejoin: miter; stroke-miterlimit: 4; fill: rgb(39,51,57); fill-rule: nonzero; opacity: 1;"  transform=" translate(-114.11, -66.25)" d="M 71.4 58.22 C 68.67 82.2 68.30000000000001 104.68 94.46000000000001 114.93 C 113.65 123.43 140.53 124.53 153.98000000000002 105.47 C 159.35000000000002 97.86 160.27 82 151.36 76.2 C 141.07000000000002 70.5 126.46000000000001 71.94 121.29000000000002 59.14 C 112.62000000000002 45.39 119.42000000000002 26.17 111.92000000000002 17.32 C 101.06000000000002 7.42 89.20000000000002 11.91 79.66000000000003 21.060000000000002 C 75.02000000000002 24.51 72.89000000000003 28.110000000000003 72.53000000000003 33.93 C 72.04000000000003 42.019999999999996 71.79000000000003 50.129999999999995 71.41000000000003 58.22 Z" stroke-linecap="round" /></g><g transform="matrix(1 0 0 1 -85.89 -64.74)" id="c"  ><path style="stroke: none; stroke-width: 1; stroke-dasharray: none; stroke-linecap: butt; stroke-dashoffset: 0; stroke-linejoin: miter; stroke-miterlimit: 4; fill: rgb(39,51,57); fill-rule: nonzero; opacity: 1;"  transform=" translate(-87.14, -72.24)" d="M 69.91 63.91 C 71.11999999999999 52.89 72.55 41.89999999999999 73.89999999999999 30.9 C 73.07 48.57 69.69 67.11 68.74 85.08 C 68.36 105.17 89.02 113.34 106.1 112.36 C 106.88 112.32 106.86 113.56 106.07 113.58 C 72.57 113.92999999999999 62.519999999999996 94.71 69.89999999999999 63.91 Z" stroke-linecap="round" /></g><g transform="matrix(1 0 0 1 -35.97 -72.9)" id="c"  ><path style="stroke: none; stroke-width: 1; stroke-dasharray: none; stroke-linecap: butt; stroke-dashoffset: 0; stroke-linejoin: miter; stroke-miterlimit: 4; fill: rgb(39,51,57); fill-rule: nonzero; opacity: 1;"  transform=" translate(-137.06, -64.09)" d="M 114.2 23.29 C 114.96000000000001 45.93 117.75 68.59 146.56 70.16 C 163.86 72.75999999999999 163.37 99.11 151.02 104.88 C 159.69 97.97 162.55 85.39999999999999 155.48000000000002 76.17999999999999 C 149.8 68.77999999999999 138.90000000000003 71.13 131.16000000000003 67.13 C 115.12000000000003 58.849999999999994 113.86000000000003 39.339999999999996 114.20000000000002 23.299999999999997 Z" stroke-linecap="round" /></g><g transform="matrix(1 0 0 1 -19.32 -46.59)" id="c"  ><path style="stroke: none; stroke-width: 1; stroke-dasharray: none; stroke-linecap: butt; stroke-dashoffset: 0; stroke-linejoin: miter; stroke-miterlimit: 4; fill: rgb(255,211,165); fill-rule: nonzero; opacity: 1;"  transform=" translate(-153.71, -90.4)" d="M 96.84 71.26 C 104.18 81.80000000000001 129.25 110.76 146.65 114.72 C 156.24 116.91 202.56 123.39 208.91 117.61 C 216.35 110.85 212.9 85.34 206.98 85.11 C 188.94 84.4 155.54 87.92999999999999 147.2 86.09 C 143.42999999999998 85.26 123.42999999999999 72.36 102.07 62.040000000000006 C 93.99 58.14000000000001 92.08999999999999 64.47000000000001 96.83 71.27000000000001 Z" stroke-linecap="round" /></g><g transform="matrix(1 0 0 1 -65.5 -58.6)" id="c"  ><path style="stroke: none; stroke-width: 1; stroke-dasharray: none; stroke-linecap: butt; stroke-dashoffset: 0; stroke-linejoin: miter; stroke-miterlimit: 4; fill: rgb(232,236,243); fill-rule: nonzero; opacity: 1;"  transform=" translate(-107.53, -78.38)" d="M 114.76 96.53 L 121.77000000000001 70.73 C 121.77000000000001 70.73 110.02000000000001 64.21000000000001 103.01 61.52 C 75.7 52.24 114.60000000000001 96.26 114.76 96.53 Z" stroke-linecap="round" /></g><g transform="matrix(1 0 0 1 -56.96 -54.99)" id="c"  ><path style="stroke: none; stroke-width: 1; stroke-dasharray: none; stroke-linecap: butt; stroke-dashoffset: 0; stroke-linejoin: miter; stroke-miterlimit: 4; fill: rgb(39,51,57); fill-rule: nonzero; opacity: 1;"  transform=" translate(-116.07, -81.99)" d="M 113.03 93.25 C 114.59 85.82 116.32000000000001 77.28999999999999 119.11 70.73 C 116.94 78.01 115.2 86.5 113.03 93.25 Z" stroke-linecap="round" /></g><g transform="matrix(1 0 0 1 -66.11 -56.9)" id="c"  ><path style="stroke: none; stroke-width: 1; stroke-dasharray: none; stroke-linecap: butt; stroke-dashoffset: 0; stroke-linejoin: miter; stroke-miterlimit: 4; fill: rgb(39,51,57); fill-rule: nonzero; opacity: 1;"  transform=" translate(-106.92, -80.09)" d="M 120.67 74.79 L 114.77 96.53 C 113.74 94.86 93.44 72.38 93.17999999999999 63.64 L 120.66999999999999 74.79 Z" stroke-linecap="round" /></g><g transform="matrix(1 0 0 1 -79.99 -36.32)" id="c"  ><path style="stroke: none; stroke-width: 1; stroke-dasharray: none; stroke-linecap: butt; stroke-dashoffset: 0; stroke-linejoin: miter; stroke-miterlimit: 4; fill: rgb(232,236,243); fill-rule: nonzero; opacity: 1;"  transform=" translate(-93.04, -100.67)" d="M 59.12 142.65 C 61.419999999999995 143.39000000000001 126.96000000000001 124.43 126.96000000000001 124.43 L 119.22000000000001 101.67 C 119.22000000000001 101.67 123.04 94.35 121.27000000000001 87.31 C 74.8 4.93 60.57 124.57 59.12 142.65 Z" stroke-linecap="round" /></g><g transform="matrix(1 0 0 1 -57.3 -50.99)" id="c"  ><path style="stroke: none; stroke-width: 1; stroke-dasharray: none; stroke-linecap: butt; stroke-dashoffset: 0; stroke-linejoin: miter; stroke-miterlimit: 4; fill: rgb(39,51,57); fill-rule: nonzero; opacity: 1;"  transform=" translate(-115.73, -86)" d="M 109.11 69.74 C 110.8 71.71 112.61 73.57 114.35 75.5 C 113.61 74.07 112.53999999999999 72.51 111.91 71.19 C 116.3 78.41 124.03 85.15 122.02 94.46 C 121.75999999999999 95.61999999999999 120.21 103.46 119.3 102.1 C 125.07 89.39999999999999 116.92999999999999 78.44 109.11 69.75 Z" stroke-linecap="round" /></g><g transform="matrix(1 0 0 1 -66.25 -37.41)" id="c"  ><path style="stroke: none; stroke-width: 1; stroke-dasharray: none; stroke-linecap: butt; stroke-dashoffset: 0; stroke-linejoin: miter; stroke-miterlimit: 4; fill: rgb(39,51,57); fill-rule: nonzero; opacity: 1;"  transform=" translate(-106.78, -99.58)" d="M 98.19 100.04 C 103.75999999999999 98.80000000000001 109.99 99.24000000000001 115.36 99.11 C 110.02 100.34 103.05 99.98 98.19 100.04 Z" stroke-linecap="round" /></g><g transform="matrix(1 0 0 1 -74.08 -34.29)" id="c"  ><path style="stroke: none; stroke-width: 1; stroke-dasharray: none; stroke-linecap: butt; stroke-dashoffset: 0; stroke-linejoin: miter; stroke-miterlimit: 4; fill: rgb(39,51,57); fill-rule: nonzero; opacity: 1;"  transform=" translate(-98.95, -102.7)" d="M 92.08 104.38 C 96.38 102.75 101.44 101.06 105.82 101.02 C 101.41999999999999 102.00999999999999 96.00999999999999 103.86999999999999 92.08 104.38 Z" stroke-linecap="round" /></g><g transform="matrix(1 0 0 1 -76.19 -81.07)" id="c"  ><path style="stroke: none; stroke-width: 1; stroke-dasharray: none; stroke-linecap: butt; stroke-dashoffset: 0; stroke-linejoin: miter; stroke-miterlimit: 4; fill: rgb(255,211,165); fill-rule: nonzero; opacity: 1;"  transform=" translate(-96.84, -55.91)" d="M 89.03 61.67 C 89.29 62.86 94.83 70.63 100.25 70.45 C 102.01 70.39 102.11 60.74 102.11 60.74 L 102.28 60.03 L 104.66 50.08 L 91.37 41.37 C 91.37 41.37 88.93 61.15 89.03 61.66 Z" stroke-linecap="round" /></g><g transform="matrix(1 0 0 1 -75.38 -86.28)" id="c"  ><path style="stroke: none; stroke-width: 1; stroke-dasharray: none; stroke-linecap: butt; stroke-dashoffset: 0; stroke-linejoin: miter; stroke-miterlimit: 4; fill: rgb(39,51,57); fill-rule: nonzero; opacity: 1;"  transform=" translate(-97.65, -50.7)" d="M 104.66 50.08 L 102.28 60.03 C 96.92 58.28 88.07 50.56 91.36 41.38 C 91.96 41.620000000000005 103.7 49.46 104.66 50.08 Z" stroke-linecap="round" /></g><g transform="matrix(1 0 0 1 -71.35 -102.49)" id="c"  ><path style="stroke: none; stroke-width: 1; stroke-dasharray: none; stroke-linecap: butt; stroke-dashoffset: 0; stroke-linejoin: miter; stroke-miterlimit: 4; fill: rgb(255,211,165); fill-rule: nonzero; opacity: 1;"  transform=" translate(-101.68, -34.5)" d="M 117.56 31.76 C 124.81 56.96 95.7 65.42 87 41.24 C 75.38 11.720000000000002 110.25 1.240000000000002 117.56 31.76 Z" stroke-linecap="round" /></g><g transform="matrix(1 0 0 1 -75.13 -109.84)" id="c"  ><path style="stroke: none; stroke-width: 1; stroke-dasharray: none; stroke-linecap: butt; stroke-dashoffset: 0; stroke-linejoin: miter; stroke-miterlimit: 4; fill: rgb(39,51,57); fill-rule: nonzero; opacity: 1;"  transform=" translate(-97.9, -27.14)" d="M 88.25 42.55 C 90.12 41.93 93.67 35.37 91.37 26.139999999999997 C 91.37 26.139999999999997 92.87 34.56999999999999 92.57000000000001 35.94 C 92.27000000000001 37.309999999999995 94.55000000000001 32.25 92.79 24.79 C 93.31 25.72 106.2 27.79 107.52000000000001 25.81 C 107.70000000000002 25.49 102.12 25.25 100.30000000000001 24.009999999999998 C 100.30000000000001 24.009999999999998 110.76000000000002 25.849999999999998 115.14000000000001 25.02 C 113.40000000000002 8.91 95.90000000000002 7.5 86.58000000000001 20.42 C 86.58000000000001 20.42 83.39000000000001 21.78 81.10000000000001 27.650000000000002 C 78.81 33.52 86.23 43.2 88.25000000000001 42.53 Z" stroke-linecap="round" /></g><g transform="matrix(1 0 0 1 -85.91 -93.37)" id="c"  ><path style="stroke: none; stroke-width: 1; stroke-dasharray: none; stroke-linecap: butt; stroke-dashoffset: 0; stroke-linejoin: miter; stroke-miterlimit: 4; fill: rgb(255,211,165); fill-rule: nonzero; opacity: 1;"  transform=" translate(-87.12, -43.61)" d="M 90.11 41.88 C 90.11 41.88 85.34 36.99 83.05 38.78 C 79.75 42.08 89.45 53.83 91.86 46.45 L 90.1 41.88 Z" stroke-linecap="round" /></g><g transform="matrix(1 0 0 1 -85.75 -93.04)" id="c"  ><path style="stroke: none; stroke-width: 1; stroke-dasharray: none; stroke-linecap: butt; stroke-dashoffset: 0; stroke-linejoin: miter; stroke-miterlimit: 4; fill: rgb(39,51,57); fill-rule: nonzero; opacity: 1;"  transform=" translate(-87.28, -43.94)" d="M 84.31 40.9 C 86.26 41.519999999999996 87.98 43.12 89 45.08 C 88.26 44.42 87.36 44.129999999999995 86.45 45.03 C 87.83 44.64 89.12 45.550000000000004 89.9 46.92 C 90.03 47.09 90.34 46.93 90.24000000000001 46.730000000000004 C 89.83000000000001 44.080000000000005 87.22000000000001 40.7 84.31 40.900000000000006 Z" stroke-linecap="round" /></g><g transform="matrix(1 0 0 1 -68.15 -38.43)" id="c"  ><path style="stroke: none; stroke-width: 1; stroke-dasharray: none; stroke-linecap: butt; stroke-dashoffset: 0; stroke-linejoin: miter; stroke-miterlimit: 4; fill: rgb(255,211,165); fill-rule: nonzero; opacity: 1;"  transform=" translate(-104.88, -98.56)" d="M 75.55 76.42 C 63.919999999999995 152.07999999999998 93.89 136.17000000000002 136.20999999999998 120.78999999999999 C 139.95 119.57 122.88999999999999 90.94999999999999 119.06999999999998 92.71 C 110.06999999999998 96.86999999999999 97.45999999999998 103.92999999999999 96.94999999999997 103.88 C 95.93999999999997 103.77 94.74999999999997 96.14999999999999 89.52999999999997 73.91 C 85.29999999999997 55.92 77.70999999999998 64.19 75.55999999999997 76.42 Z" stroke-linecap="round" /></g><g transform="matrix(1 0 0 1 -31.15 -38.65)" id="c"  ><path style="stroke: none; stroke-width: 1; stroke-dasharray: none; stroke-linecap: butt; stroke-dashoffset: 0; stroke-linejoin: miter; stroke-miterlimit: 4; fill: rgb(255,211,165); fill-rule: nonzero; opacity: 1;"  transform=" translate(-141.88, -98.34)" d="M 166.05 78.55 C 166.99 82.31 157.53 83.83 157.53 83.83 C 162.3 85.42 162.56 89.95 159.18 92.82 C 163.56 95.14999999999999 163.55 100 160.65 103.16 C 166.86 116.14 140.05 118.84 132.78 121.89999999999999 L 117.65 94.17999999999999 C 117.65 94.17999999999999 132.27 78.69999999999999 140.61 76.3 C 145.24 74.97 164.62 72.81 166.05 78.55 Z" stroke-linecap="round" /></g><g transform="matrix(1 0 0 1 -23.42 -52.23)" id="c"  ><path style="stroke: none; stroke-width: 1; stroke-dasharray: none; stroke-linecap: butt; stroke-dashoffset: 0; stroke-linejoin: miter; stroke-miterlimit: 4; fill: rgb(39,51,57); fill-rule: nonzero; opacity: 1;"  transform=" translate(-149.61, -84.75)" d="M 157.43 83.74 C 152.4 83.64999999999999 146.06 84.32 141.79000000000002 85.77 C 146.60000000000002 84.45 153.33 85.28 157.43 83.74 Z" stroke-linecap="round" /></g><g transform="matrix(1 0 0 1 -21.29 -42.43)" id="c"  ><path style="stroke: none; stroke-width: 1; stroke-dasharray: none; stroke-linecap: butt; stroke-dashoffset: 0; stroke-linejoin: miter; stroke-miterlimit: 4; fill: rgb(39,51,57); fill-rule: nonzero; opacity: 1;"  transform=" translate(-151.74, -94.56)" d="M 158.96 92.47 C 154.23000000000002 93.2 148.45000000000002 94.85 144.51000000000002 96.65 C 148.87000000000003 94.83000000000001 155.65000000000003 94.69000000000001 158.96 92.47 Z" stroke-linecap="round" /></g><g transform="matrix(1 0 0 1 -19.04 -31.84)" id="c"  ><path style="stroke: none; stroke-width: 1; stroke-dasharray: none; stroke-linecap: butt; stroke-dashoffset: 0; stroke-linejoin: miter; stroke-miterlimit: 4; fill: rgb(39,51,57); fill-rule: nonzero; opacity: 1;"  transform=" translate(-153.99, -105.15)" d="M 160.55 103.19 C 156.32000000000002 104.1 151.05 105.78 147.43 107.11 C 151.63 105.73 156.93 105.28 160.55 103.19 Z" stroke-linecap="round" /></g><g transform="matrix(1 0 0 1 -57.32 -45.32)" id="c"  ><path style="stroke: none; stroke-width: 1; stroke-dasharray: none; stroke-linecap: butt; stroke-dashoffset: 0; stroke-linejoin: miter; stroke-miterlimit: 4; fill: rgb(39,51,57); fill-rule: nonzero; opacity: 1;"  transform=" translate(-115.71, -91.66)" d="M 96.95 103.88 C 104.07000000000001 99.89999999999999 111.51 95.64999999999999 118.99000000000001 92.36 L 118.82000000000001 92.46 C 123.73 87.80999999999999 128.59 82.88 134.46 79.44999999999999 C 128.82000000000002 83.32 124.15 88.46999999999998 119.15 93.07 C 111.81 96.38 104.26 100.49 96.95 103.88 Z" stroke-linecap="round" /></g><g transform="matrix(1 0 0 1 -90.62 -54.09)" id="c"  ><path style="stroke: none; stroke-width: 1; stroke-dasharray: none; stroke-linecap: butt; stroke-dashoffset: 0; stroke-linejoin: miter; stroke-miterlimit: 4; fill: rgb(232,236,243); fill-rule: nonzero; opacity: 1;"  transform=" translate(-82.41, -82.89)" d="M 70.47 102.41 L 94.36 90.41 C 94.36 90.41 91.37 77.31 88.7 70.28999999999999 C 77.39 43.75999999999999 70.57000000000001 102.10999999999999 70.47 102.41 Z" stroke-linecap="round" /></g><g transform="matrix(1 0 0 1 -90.85 -43.31)" id="c"  ><path style="stroke: none; stroke-width: 1; stroke-dasharray: none; stroke-linecap: butt; stroke-dashoffset: 0; stroke-linejoin: miter; stroke-miterlimit: 4; fill: rgb(39,51,57); fill-rule: nonzero; opacity: 1;"  transform=" translate(-82.18, -93.68)" d="M 71.76 98.93 C 78.33000000000001 95.14 85.85000000000001 90.73 92.59 88.42 C 85.73 91.66 78.24000000000001 96.03 71.76 98.93 Z" stroke-linecap="round" /></g><g transform="matrix(1 0 0 1 -100.99 -44.2)" id="c"  ><path style="stroke: none; stroke-width: 1; stroke-dasharray: none; stroke-linecap: butt; stroke-dashoffset: 0; stroke-linejoin: miter; stroke-miterlimit: 4; fill: rgb(39,51,57); fill-rule: nonzero; opacity: 1;"  transform=" translate(-72.04, -92.79)" d="M 73.33 100.98 C 72.31 101.60000000000001 71.27 102.18 70.24 102.78 C 70.99 96.05 72.07 89.35 73.83999999999999 82.8 C 73.02 89.39 71.93999999999998 95.92999999999999 70.66999999999999 102.44999999999999 L 70.38999999999999 102.24999999999999 C 71.36999999999999 101.81999999999998 72.33999999999999 101.38999999999999 73.32999999999998 100.98999999999998 Z" stroke-linecap="round" /></g><g transform="matrix(1 0 0 1 -100.58 -48.6)" id="c"  ><path style="stroke: none; stroke-width: 1; stroke-dasharray: none; stroke-linecap: butt; stroke-dashoffset: 0; stroke-linejoin: miter; stroke-miterlimit: 4; fill: rgb(39,51,57); fill-rule: nonzero; opacity: 1;"  transform=" translate(-72.45, -88.39)" d="M 72.52 86.09 C 72.64 87.62 72.58999999999999 89.16 72.38 90.68 C 72.25999999999999 89.15 72.31 87.61000000000001 72.52 86.09 Z" stroke-linecap="round" /></g><g transform="matrix(1 0 0 1 -79.89 -50.61)" id="c"  ><path style="stroke: none; stroke-width: 1; stroke-dasharray: none; stroke-linecap: butt; stroke-dashoffset: 0; stroke-linejoin: miter; stroke-miterlimit: 4; fill: rgb(39,51,57); fill-rule: nonzero; opacity: 1;"  transform=" translate(-93.14, -86.37)" d="M 91.45 91.88 C 91.68 91.71 94.10000000000001 90.39 94.3 90.35 C 93.67 87.38 92.24 83.39 92.17999999999999 80.83 C 93.16999999999999 84.09 94.07 87.19 94.83 90.48 C 94.89 90.57000000000001 91.52 92.12 91.45 91.89 Z" stroke-linecap="round" /></g><g transform="matrix(1 0 0 1 -79.67 -53.6)" id="c"  ><path style="stroke: none; stroke-width: 1; stroke-dasharray: none; stroke-linecap: butt; stroke-dashoffset: 0; stroke-linejoin: miter; stroke-miterlimit: 4; fill: rgb(39,51,57); fill-rule: nonzero; opacity: 1;"  transform=" translate(-93.36, -83.39)" d="M 93.36 81.96 C 93.53 82.91 93.53 83.86999999999999 93.36 84.82 C 93.19 83.86999999999999 93.19 82.91 93.36 81.96 Z" stroke-linecap="round" /></g><g transform="matrix(1 0 0 1 -20.49 -16.11)" id="c"  ><path style="stroke: none; stroke-width: 1; stroke-dasharray: none; stroke-linecap: butt; stroke-dashoffset: 0; stroke-linejoin: miter; stroke-miterlimit: 4; fill: rgb(200,199,198); fill-rule: nonzero; opacity: 1;"  transform=" translate(-152.54, -120.88)" d="M 187.31 119.32 L 117.77 119.32 L 117.77 122.44 L 187.31 122.44 L 187.31 119.32 Z" stroke-linecap="round" /></g><g transform="matrix(1 0 0 1 -14.24 -16.11)" id="c"  ><path style="stroke: none; stroke-width: 1; stroke-dasharray: none; stroke-linecap: butt; stroke-dashoffset: 0; stroke-linejoin: miter; stroke-miterlimit: 4; fill: rgb(167,166,166); fill-rule: nonzero; opacity: 1;"  transform=" translate(-158.79, -120.88)" d="M 132.65 119.32 L 130.27 122.44 L 187.31 122.44 L 187.31 119.32 L 132.65 119.32 Z" stroke-linecap="round" /></g><g transform="matrix(1 0 0 1 -0.71 -37.56)" id="c"  ><path style="stroke: none; stroke-width: 1; stroke-dasharray: none; stroke-linecap: butt; stroke-dashoffset: 0; stroke-linejoin: miter; stroke-miterlimit: 4; fill: rgb(200,199,198); fill-rule: nonzero; opacity: 1;"  transform=" translate(-172.32, -99.42)" d="M 135.62 122.44 L 203.39 122.44 L 209.02999999999997 76.41 L 141.26 76.41 L 135.62 122.44 Z" stroke-linecap="round" /></g><g transform="matrix(1 0 0 1 -0.7 -37.55)" id="c"  ><path style="stroke: none; stroke-width: 1; stroke-dasharray: none; stroke-linecap: butt; stroke-dashoffset: 0; stroke-linejoin: miter; stroke-miterlimit: 4; fill: rgb(255,255,255); fill-rule: nonzero; opacity: 1;"  transform=" translate(-172.33, -99.43)" d="M 168.2 99.43 C 168.06 104.83000000000001 176.45999999999998 104.73 176.45 99.43 C 176.6 94.03 168.17999999999998 94.13000000000001 168.2 99.43 Z" stroke-linecap="round" /></g><g transform="matrix(1 0 0 1 32.13 -35.49)" id="c"  ><path style="stroke: none; stroke-width: 1; stroke-dasharray: none; stroke-linecap: butt; stroke-dashoffset: 0; stroke-linejoin: miter; stroke-miterlimit: 4; fill: rgb(255,211,165); fill-rule: nonzero; opacity: 1;"  transform=" translate(-205.16, -101.49)" d="M 208.48 80.86 C 211.51999999999998 85.75 222.64999999999998 92.72 216.56 97.28 C 219.04 97.86 222.89000000000001 102.39 218.14000000000001 105.06 C 221.26000000000002 106.08 222.39000000000001 110.9 218.64000000000001 112.67 C 227.11 122.19 200.04000000000002 125.56 195.49 117.95 C 193.65 114.8 198.43 114.43 198.43 114.43 C 193.18 114.4 185.20000000000002 106.35000000000001 196.41 105.23 C 190.48 105.04 184.47 95.93 195.41 96.47 C 195.41 96.47 190.71 94.11 191.26 90.86 C 192.17 85.48 203.23999999999998 91.2 207.37 89.62 L 208.49 80.85000000000001 Z" stroke-linecap="round" /></g><g transform="matrix(1 0 0 1 35.2 -22.75)" id="c"  ><path style="stroke: none; stroke-width: 1; stroke-dasharray: none; stroke-linecap: butt; stroke-dashoffset: 0; stroke-linejoin: miter; stroke-miterlimit: 4; fill: rgb(39,51,57); fill-rule: nonzero; opacity: 1;"  transform=" translate(-208.23, -114.23)" d="M 218.27 112.95 C 213.07000000000002 115.24000000000001 202.83 116.77 198.19 114.09 C 205.17 114.56 211.4 114.42 218.26999999999998 112.95 Z" stroke-linecap="round" /></g><g transform="matrix(1 0 0 1 34.15 -30.76)" id="c"  ><path style="stroke: none; stroke-width: 1; stroke-dasharray: none; stroke-linecap: butt; stroke-dashoffset: 0; stroke-linejoin: miter; stroke-miterlimit: 4; fill: rgb(39,51,57); fill-rule: nonzero; opacity: 1;"  transform=" translate(-207.18, -106.22)" d="M 218.24 105.09 C 212.82000000000002 107.67 201.76000000000002 108.52000000000001 196.12 105.10000000000001 C 201.05 106.61000000000001 212.07 106.45 218.24 105.09 Z" stroke-linecap="round" /></g><g transform="matrix(1 0 0 1 32.61 -39.3)" id="c"  ><path style="stroke: none; stroke-width: 1; stroke-dasharray: none; stroke-linecap: butt; stroke-dashoffset: 0; stroke-linejoin: miter; stroke-miterlimit: 4; fill: rgb(39,51,57); fill-rule: nonzero; opacity: 1;"  transform=" translate(-205.64, -97.69)" d="M 194.94 96.11 C 201.85 98.74 209.54 98.15 216.34 97.55 C 209.94 99.84 200.01 100.27 194.94 96.11 Z" stroke-linecap="round" /></g><g transform="matrix(1 0 0 1 118.34 95.69)" id="c"  ><path style="stroke: none; stroke-width: 1; stroke-dasharray: none; stroke-linecap: butt; stroke-dashoffset: 0; stroke-linejoin: miter; stroke-miterlimit: 4; fill: rgb(255,211,165); fill-rule: nonzero; opacity: 1;"  transform=" translate(-291.37, -232.67)" d="M 345.97 212.39 C 345.02000000000004 214.95999999999998 298.44000000000005 272.86 295.26000000000005 273.95 C 287.75000000000006 272.05 237.69000000000005 230.76999999999998 236.70000000000005 230.23 L 267.75000000000006 191.39999999999998 C 272.6700000000001 195.56999999999996 300.47 219.17 304.70000000000005 222.74999999999997 C 304.70000000000005 222.74999999999997 332.45000000000005 208.55999999999997 336.06000000000006 207.73999999999998 C 339.6600000000001 206.93999999999997 346.9200000000001 209.82 345.96000000000004 212.39 Z" stroke-linecap="round" /></g><g transform="matrix(1 0 0 1 139.3 103.8)" id="c"  ><path style="stroke: none; stroke-width: 1; stroke-dasharray: none; stroke-linecap: butt; stroke-dashoffset: 0; stroke-linejoin: miter; stroke-miterlimit: 4; fill: rgb(0,37,87); fill-rule: nonzero; opacity: 1;"  transform=" translate(-312.33, -240.79)" d="M 345.97 212.39 C 345.02000000000004 214.95 298.43 272.87 295.26000000000005 273.95 C 294.21000000000004 274.32 287.33000000000004 269.55 278.62000000000006 263.06 C 281.1700000000001 261.09 344.9200000000001 208.77 320.4200000000001 214.87 C 327.37000000000006 211.45000000000002 334.36000000000007 208.12 336.05000000000007 207.74 C 339.6500000000001 206.93 346.9000000000001 209.83 345.9600000000001 212.39000000000001 Z" stroke-linecap="round" /></g><g transform="matrix(1 0 0 1 5.35 43.29)" id="c"  ><path style="stroke: none; stroke-width: 1; stroke-dasharray: none; stroke-linecap: butt; stroke-dashoffset: 0; stroke-linejoin: miter; stroke-miterlimit: 4; fill: rgb(222,225,230); fill-rule: nonzero; opacity: 1;"  transform=" translate(-178.38, -180.28)" d="M 296.43 211.25 L 264.12 254.85 C 259.37 251.54999999999998 145.7 172.68 144.57 171.89 C 114.78 195.69 49.879999999999995 191.79999999999998 61.75999999999999 142.27999999999997 C 80.91999999999999 138.03999999999996 97.38 111.88999999999997 134.57999999999998 105.70999999999998 C 168.35999999999999 106.13999999999999 277.87 201.10999999999999 296.44 211.25 Z" stroke-linecap="round" /></g><g transform="matrix(1 0 0 1 -44.8 25.72)" id="c"  ><path style="stroke: none; stroke-width: 1; stroke-dasharray: none; stroke-linecap: butt; stroke-dashoffset: 0; stroke-linejoin: miter; stroke-miterlimit: 4; fill: rgb(0,37,87); fill-rule: nonzero; opacity: 1;"  transform=" translate(-128.23, -162.71)" d="M 144.56 171.89 C 144.56 171.89 141.58 173.89 137.1 176.36999999999998 C 129.18 166.89 112.41 149.65999999999997 111.89999999999999 149.04999999999998 L 144.56 171.89 Z" stroke-linecap="round" /></g><g transform="matrix(1 0 0 1 -95.05 -1.09)" id="c"  ><path style="stroke: none; stroke-width: 1; stroke-dasharray: none; stroke-linecap: butt; stroke-dashoffset: 0; stroke-linejoin: miter; stroke-miterlimit: 4; fill: rgb(0,37,87); fill-rule: nonzero; opacity: 1;"  transform=" translate(-77.98, -135.89)" d="M 89.5 126.09 C 81.56 131.91 72.05 138.08 66.47 145.7 C 74.32 139.5 81.92 132.28 89.5 126.08999999999999 Z" stroke-linecap="round" /></g><g transform="matrix(1 0 0 1 101.14 91.31)" id="c"  ><path style="stroke: none; stroke-width: 1; stroke-dasharray: none; stroke-linecap: butt; stroke-dashoffset: 0; stroke-linejoin: miter; stroke-miterlimit: 4; fill: rgb(0,37,87); fill-rule: nonzero; opacity: 1;"  transform=" translate(-274.17, -228.3)" d="M 288.84 209.69 C 279 221.67 267.60999999999996 234.51999999999998 259.51 246.91 C 269.48 235 280.53 222.05 288.84 209.69 Z" stroke-linecap="round" /></g><g transform="matrix(1 0 0 1 4.58 57.87)" id="c"  ><path style="stroke: none; stroke-width: 1; stroke-dasharray: none; stroke-linecap: butt; stroke-dashoffset: 0; stroke-linejoin: miter; stroke-miterlimit: 4; fill: rgb(0,37,87); fill-rule: nonzero; opacity: 1;"  transform=" translate(-177.61, -194.85)" d="M 199.36 210.13 C 185.37 199.62 170.34 188.42 155.86 179.57999999999998 C 169.78 189.83999999999997 185.16000000000003 202.23 199.36 210.13 Z" stroke-linecap="round" /></g><g transform="matrix(1 0 0 1 20.32 1.01)" id="c"  ><path style="stroke: none; stroke-width: 1; stroke-dasharray: none; stroke-linecap: butt; stroke-dashoffset: 0; stroke-linejoin: miter; stroke-miterlimit: 4; fill: rgb(0,37,87); fill-rule: nonzero; opacity: 1;"  transform=" translate(-193.35, -138)" d="M 234.23 165.15 C 218.76 153.08 202.6 141.88 186.76999999999998 130.27 C 176.27999999999997 122.75000000000001 164.67 114.15 152.46999999999997 110.85000000000001 C 181.83999999999997 124.80000000000001 207.20999999999998 149.39000000000001 234.22999999999996 165.15 Z" stroke-linecap="round" /></g></g></g></svg>