<svg viewBox = "0 0 425.49 345.38" width="425.49" height="345.38" xmlns="http://www.w3.org/2000/svg"><g transform="matrix(1 0 0 1 212.75 172.69)"  ><g style=""   ><g transform="matrix(1 0 0 1 130.87 50.9)" id="c"  ><path style="stroke: none; stroke-width: 1; stroke-dasharray: none; stroke-linecap: butt; stroke-dashoffset: 0; stroke-linejoin: miter; stroke-miterlimit: 4; fill: rgb(238,242,246); fill-rule: nonzero; opacity: 1;"  transform=" translate(-343.62, -223.59)" d="M 388.31 124.25 C 388.31 124.25 375.16 132.74 370.03 143.39 C 364.9 154.04999999999998 355.90999999999997 167.98999999999998 352.60999999999996 157.47 C 340.15 162.69 322.98999999999995 161.64 310.96 158.79 C 310.96 158.79 300.84999999999997 163.66 282.45 159.25 C 283.71 173.62 276.67 303.09000000000003 273.99 317.65999999999997 C 273.99 317.65999999999997 302.73 331.86999999999995 324.44 313.71 L 317.56 201.60999999999999 C 361.37 284.51 378.08 174.32999999999998 413.24 150.69 C 413.24 150.69 402.04 124.24 388.3 124.24 Z" stroke-linecap="round" /></g><g transform="matrix(1 0 0 1 105.17 -98.91)" id="c"  ><path style="stroke: none; stroke-width: 1; stroke-dasharray: none; stroke-linecap: butt; stroke-dashoffset: 0; stroke-linejoin: miter; stroke-miterlimit: 4; fill: rgb(1,1,1); fill-rule: nonzero; opacity: 1;"  transform=" translate(-317.91, -73.78)" d="M 334.3 61.75 C 334.3 61.75 329.76 53.33 317.56 53.86 C 302.35 53.67 301.94 72.13 291.15 65.44 C 291.15 65.44 289.83 72.67999999999999 292.98999999999995 77.53999999999999 L 298.24999999999994 76.49 L 296.00999999999993 82.81 C 307.29999999999995 98.88 333.19999999999993 94.11 344.94999999999993 88.07000000000001 C 338.5299999999999 80.92 344.25999999999993 60.99000000000001 334.2899999999999 61.760000000000005 Z" stroke-linecap="round" /></g><g transform="matrix(1 0 0 1 91.53 -89.97)" id="c"  ><path style="stroke: none; stroke-width: 1; stroke-dasharray: none; stroke-linecap: butt; stroke-dashoffset: 0; stroke-linejoin: miter; stroke-miterlimit: 4; fill: rgb(0,75,173); fill-rule: nonzero; opacity: 1;"  transform=" translate(-304.28, -82.72)" d="M 304.26 87.22 C 298.53999999999996 87.12 299.31 77.49 304.28999999999996 78.25999999999999 C 304.55999999999995 78.3 304.74999999999994 78.55999999999999 304.7 78.83999999999999 C 304.65999999999997 79.10999999999999 304.4 79.29999999999998 304.13 79.24999999999999 C 300.44 78.57999999999998 299.96 86.90999999999998 304.79 86.15999999999998 C 307.07 85.64999999999998 307.26000000000005 83.88999999999999 307.27000000000004 83.86999999999998 C 307.32000000000005 83.21999999999997 308.34000000000003 83.31999999999998 308.26000000000005 83.95999999999998 C 308.56000000000006 84.05999999999997 306.97 87.38999999999999 304.26000000000005 87.20999999999998 Z" stroke-linecap="round" /></g><g transform="matrix(1 0 0 1 113.18 -80.29)" id="c"  ><path style="stroke: none; stroke-width: 1; stroke-dasharray: none; stroke-linecap: butt; stroke-dashoffset: 0; stroke-linejoin: miter; stroke-miterlimit: 4; fill: rgb(0,69,159); fill-rule: nonzero; opacity: 1;"  transform=" translate(-325.93, -92.4)" d="M 308.07 91.76 C 283.39 83.65 273.40999999999997 49.400000000000006 275.36 23.99000000000001 C 275.36 23.99000000000001 269.05 22.15000000000001 262.2 25.31000000000001 C 262.2 25.31000000000001 250.89 87.28 280.09 107.87 C 280.09 107.87 279.03999999999996 115.56 275.09 124.77000000000001 C 271.14 133.98000000000002 268.78 146.08 268.78 146.08 C 289.78 147.61 328.5 173.06 357.71999999999997 154.76000000000002 C 357.71999999999997 154.76000000000002 347.97999999999996 138.62 347.97999999999996 120.90000000000002 C 381.02 118.04000000000002 403.76 97.89000000000001 385.08 62.40000000000002 C 385.08 62.40000000000002 375.60999999999996 61.08000000000002 371.13 63.72000000000002 C 371.13 63.72000000000002 376.65999999999997 78.46000000000002 372.45 85.17000000000002 C 361.15999999999997 97.62000000000002 324.15 98.06000000000002 308.06 91.76000000000002 Z" stroke-linecap="round" /></g><g transform="matrix(1 0 0 1 104.88 -98.01)" id="c"  ><path style="stroke: none; stroke-width: 1; stroke-dasharray: none; stroke-linecap: butt; stroke-dashoffset: 0; stroke-linejoin: miter; stroke-miterlimit: 4; fill: rgb(255,211,165); fill-rule: nonzero; opacity: 1;"  transform=" translate(-317.62, -74.68)" d="M 307.86 63.73 C 300.57 71.94 302.72 95.28 324.44 81.22999999999999 C 334.62 82.94999999999999 332.08 67.88 324.44 74.64999999999999 L 322.86 74.64999999999999 L 323.39 69.91999999999999 C 323.39 69.91999999999999 315.5 69.78999999999999 307.87 63.73999999999999 Z" stroke-linecap="round" /></g><g transform="matrix(1 0 0 1 103.51 -84.15)" id="c"  ><path style="stroke: none; stroke-width: 1; stroke-dasharray: none; stroke-linecap: butt; stroke-dashoffset: 0; stroke-linejoin: miter; stroke-miterlimit: 4; fill: rgb(255,211,165); fill-rule: nonzero; opacity: 1;"  transform=" translate(-316.26, -88.54)" d="M 310.96 85.31 C 310.96 85.31 312.76 89.67 308.08 91.76 C 308.08 91.76 310.63 97.67 323.52 95.30000000000001 C 323.52 95.30000000000001 319.27 89.04 324.44 81.22000000000001 C 319 85.12000000000002 314.41 86.07000000000001 310.96 85.30000000000001 Z" stroke-linecap="round" /></g><g transform="matrix(1 0 0 1 104.94 -87.52)" id="c"  ><path style="stroke: none; stroke-width: 1; stroke-dasharray: none; stroke-linecap: butt; stroke-dashoffset: 0; stroke-linejoin: miter; stroke-miterlimit: 4; fill: rgb(1,1,1); fill-rule: nonzero; opacity: 1;"  transform=" translate(-317.69, -85.17)" d="M 311.29 87.38 C 313.6 87.57 318.21000000000004 88.07 321.87 89.11999999999999 C 321.87 86.86999999999999 322.49 84.16 324.43 81.21999999999998 C 318.99 85.11999999999999 314.40000000000003 86.06999999999998 310.95 85.29999999999998 C 310.95 85.29999999999998 311.32 86.19999999999999 311.28 87.37999999999998 Z" stroke-linecap="round" /></g><g transform="matrix(1 0 0 1 113.77 -89.97)" id="c"  ><path style="stroke: none; stroke-width: 1; stroke-dasharray: none; stroke-linecap: butt; stroke-dashoffset: 0; stroke-linejoin: miter; stroke-miterlimit: 4; fill: rgb(0,75,173); fill-rule: nonzero; opacity: 1;"  transform=" translate(-326.51, -82.72)" d="M 326.53 87.22 C 323.83 87.39 322.2 84.08 322.53 83.97 C 322.46 83.33 323.47999999999996 83.22 323.52 83.88 C 323.52 83.94999999999999 323.74 85.66 326 86.16 C 330.84 86.91 330.35 78.58 326.66 79.25 C 326.39000000000004 79.29 326.13000000000005 79.11 326.09000000000003 78.83 C 326.05 78.56 326.23 78.3 326.50000000000006 78.26 C 331.4800000000001 77.49000000000001 332.25000000000006 87.12 326.53000000000003 87.22 Z" stroke-linecap="round" /></g><g transform="matrix(1 0 0 1 60.69 -160.54)" id="c"  ><path style="stroke: none; stroke-width: 1; stroke-dasharray: none; stroke-linecap: butt; stroke-dashoffset: 0; stroke-linejoin: miter; stroke-miterlimit: 4; fill: rgb(255,211,165); fill-rule: nonzero; opacity: 1;"  transform=" translate(-273.44, -12.15)" d="M 275.36 23.99 L 276.68 17.18 C 277.11 17.18 289.5 6.039999999999999 278.16 10.67 C 278.16 10.67 280.73 2.7800000000000002 278.65000000000003 1.8900000000000006 C 276.58000000000004 1.0000000000000004 275.36 7.510000000000001 275.36 7.510000000000001 C 276.43 -1.2799999999999985 271.66 -3.55 272.24 7.210000000000001 C 270.05 -1.1099999999999994 265.31 -1.7199999999999989 268.39 8.49 C 265.68 3.3 261.7 2.3200000000000003 265.53 10.96 C 266.71 13.620000000000001 264.84999999999997 24.310000000000002 264.84999999999997 24.310000000000002 C 264.84999999999997 24.310000000000002 271.09 22.110000000000003 275.36999999999995 23.990000000000002 Z" stroke-linecap="round" /></g><g transform="matrix(1 0 0 1 158.28 -124.74)" id="c"  ><path style="stroke: none; stroke-width: 1; stroke-dasharray: none; stroke-linecap: butt; stroke-dashoffset: 0; stroke-linejoin: miter; stroke-miterlimit: 4; fill: rgb(255,211,165); fill-rule: nonzero; opacity: 1;"  transform=" translate(-371.02, -47.95)" d="M 371.14 63.73 L 367.26 53.839999999999996 C 367.26 53.839999999999996 359.76 50.739999999999995 358.58 49.849999999999994 C 357.4 48.959999999999994 359.85999999999996 47.089999999999996 363.81 48.769999999999996 C 363.81 48.769999999999996 356.71 39.4 358.78000000000003 38.11 C 360.85 36.83 365.49 43.83 365.49 43.83 C 361.24 36.739999999999995 363.04 26.659999999999997 368.75 41.16 C 368.63 32.169999999999995 371.46 26.949999999999996 373.39 40.169999999999995 C 373.39 40.169999999999995 374.47999999999996 32.669999999999995 376.45 33.06999999999999 C 378.42 33.46999999999999 377.24 45.00999999999999 377.24 45.00999999999999 L 383.76 62.25999999999999 C 383.76 62.25999999999999 374.53999999999996 61.11999999999999 371.15 63.71999999999999 Z" stroke-linecap="round" /></g><g transform="matrix(1 0 0 1 83.95 -17.76)" id="c"  ><path style="stroke: none; stroke-width: 1; stroke-dasharray: none; stroke-linecap: butt; stroke-dashoffset: 0; stroke-linejoin: miter; stroke-miterlimit: 4; fill: rgb(255,211,165); fill-rule: nonzero; opacity: 1;"  transform=" translate(-296.69, -154.93)" d="M 299.57 154.77 C 295.17 152.28 288.46999999999997 150.26000000000002 282.44 148.81 L 282.44 159.24 C 282.44 159.24 295.76 163.59 310.95 158.78 C 306.11 157.63 302.09999999999997 156.2 299.57 154.77 Z" stroke-linecap="round" /></g><g transform="matrix(1 0 0 1 90.7 -8.17)" id="c"  ><path style="stroke: none; stroke-width: 1; stroke-dasharray: none; stroke-linecap: butt; stroke-dashoffset: 0; stroke-linejoin: miter; stroke-miterlimit: 4; fill: rgb(205,215,229); fill-rule: nonzero; opacity: 1;"  transform=" translate(-303.44, -164.52)" d="M 282.45 167.4 C 296.61 167.02 311.05 166.07 324.44 161.15 C 311.62 167.66 296.57 168.69 282.45 167.4 Z" stroke-linecap="round" /></g><g transform="matrix(1 0 0 1 181.08 -29.97)" id="c"  ><path style="stroke: none; stroke-width: 1; stroke-dasharray: none; stroke-linecap: butt; stroke-dashoffset: 0; stroke-linejoin: miter; stroke-miterlimit: 4; fill: rgb(205,215,229); fill-rule: nonzero; opacity: 1;"  transform=" translate(-393.83, -142.72)" d="M 382.12 128.93 C 393.15 134.20000000000002 403.75 143.88 405.53000000000003 156.51 C 402.11 144.48 392.25000000000006 135.64999999999998 382.12 128.93 Z" stroke-linecap="round" /></g><g transform="matrix(1 0 0 1 99.1 4.08)" id="c"  ><path style="stroke: none; stroke-width: 1; stroke-dasharray: none; stroke-linecap: butt; stroke-dashoffset: 0; stroke-linejoin: miter; stroke-miterlimit: 4; fill: rgb(205,215,229); fill-rule: nonzero; opacity: 1;"  transform=" translate(-311.84, -176.77)" d="M 309.84 165.61 C 311.03999999999996 172.21 312.94 181.36 313.88 187.93 C 311.15 180.85 309.55 173.22 309.84 165.61 Z" stroke-linecap="round" /></g><g transform="matrix(1 0 0 1 197.45 -40.3)" id="c"  ><path style="stroke: none; stroke-width: 1; stroke-dasharray: none; stroke-linecap: butt; stroke-dashoffset: 0; stroke-linejoin: miter; stroke-miterlimit: 4; fill: rgb(1,1,1); fill-rule: nonzero; opacity: 1;"  transform=" translate(-410.19, -132.39)" d="M 398.63 128.93 C 401.93 121.34 419.27 128.88 421.65999999999997 132.69 C 423.05999999999995 135.6 409.03 134.56 407.01 139.10999999999999 C 407.01 139.10999999999999 404.34999999999997 132.64999999999998 398.63 128.92999999999998 Z" stroke-linecap="round" /></g><g transform="matrix(1 0 0 1 86.53 134.68)" id="c"  ><path style="stroke: none; stroke-width: 1; stroke-dasharray: none; stroke-linecap: butt; stroke-dashoffset: 0; stroke-linejoin: miter; stroke-miterlimit: 4; fill: rgb(205,215,229); fill-rule: nonzero; opacity: 1;"  transform=" translate(-299.27, -307.37)" d="M 274.83 307.89 C 290.84999999999997 312.96 310.32 313.8 323.71999999999997 302.13 C 311.30999999999995 315.3 290.38 314.67 274.83 307.89 Z" stroke-linecap="round" /></g><g transform="matrix(1 0 0 1 83.17 156.29)" id="c"  ><path style="stroke: none; stroke-width: 1; stroke-dasharray: none; stroke-linecap: butt; stroke-dashoffset: 0; stroke-linejoin: miter; stroke-miterlimit: 4; fill: rgb(1,1,1); fill-rule: nonzero; opacity: 1;"  transform=" translate(-295.92, -328.98)" d="M 289.2 322.21 C 289.2 322.21 285.40999999999997 331.85999999999996 289.2 335.28 C 292.99 338.7 304.32 322.5 304.32 322.5 C 304.32 322.5 297.77 324.24 289.2 322.21 Z" stroke-linecap="round" /></g><g transform="matrix(1 0 0 1 103.8 -95.04)" id="c"  ><path style="stroke: none; stroke-width: 1; stroke-dasharray: none; stroke-linecap: butt; stroke-dashoffset: 0; stroke-linejoin: miter; stroke-miterlimit: 4; fill: rgb(245,147,147); fill-rule: nonzero; opacity: 1;"  transform=" translate(-316.54, -77.65)" d="M 316.54 81.36 C 321.35 81.42999999999999 321.35 73.88 316.54 73.95 C 311.73 73.88000000000001 311.73 81.43 316.54 81.36 Z" stroke-linecap="round" /></g><g transform="matrix(1 0 0 1 93.26 -99.65)" id="c"  ><path style="stroke: none; stroke-width: 1; stroke-dasharray: none; stroke-linecap: butt; stroke-dashoffset: 0; stroke-linejoin: miter; stroke-miterlimit: 4; fill: rgb(245,147,147); fill-rule: nonzero; opacity: 1;"  transform=" translate(-306.01, -73.04)" d="M 304.93 69.35 C 309.86 69.78 308.82 77.57 303.93 76.66 C 303.65000000000003 74.49 304.37 71.44 304.93 69.35 Z" stroke-linecap="round" /></g><g transform="matrix(1 0 0 1 74.36 -77.44)" id="c"  ><path style="stroke: none; stroke-width: 1; stroke-dasharray: none; stroke-linecap: butt; stroke-dashoffset: 0; stroke-linejoin: miter; stroke-miterlimit: 4; fill: rgb(238,242,246); fill-rule: nonzero; opacity: 1;"  transform=" translate(-287.1, -95.25)" d="M 281.41 108.23 C 283.74 99.38000000000001 287.21000000000004 89.72 294.67 83.91 C 296.07 82.88 294.71000000000004 80.52 293.29 81.56 C 288.03000000000003 85.43 284.67 91.31 282.18 97.23 C 281.3 98.95 275.85 112.93 281.41 108.24000000000001 Z" stroke-linecap="round" /></g><g transform="matrix(1 0 0 1 66.99 -84.95)" id="c"  ><path style="stroke: none; stroke-width: 1; stroke-dasharray: none; stroke-linecap: butt; stroke-dashoffset: 0; stroke-linejoin: miter; stroke-miterlimit: 4; fill: rgb(238,242,246); fill-rule: nonzero; opacity: 1;"  transform=" translate(-279.74, -87.74)" d="M 274.71 101.6 C 275.97999999999996 91.78 280.12 82.03 287.10999999999996 74.91 C 288.34 73.66 286.41999999999996 71.72999999999999 285.17999999999995 72.97999999999999 C 277.84999999999997 80.41 272.86999999999995 91.13999999999999 271.97999999999996 101.6 C 271.83 103.35 274.55999999999995 103.33999999999999 274.71 101.6 Z" stroke-linecap="round" /></g><g transform="matrix(1 0 0 1 59.43 -100.3)" id="c"  ><path style="stroke: none; stroke-width: 1; stroke-dasharray: none; stroke-linecap: butt; stroke-dashoffset: 0; stroke-linejoin: miter; stroke-miterlimit: 4; fill: rgb(238,242,246); fill-rule: nonzero; opacity: 1;"  transform=" translate(-272.18, -72.39)" d="M 265.92 85.54 C 268.44 76.38000000000001 272.63 66.84 280.33000000000004 60.900000000000006 C 281.73 59.870000000000005 280.37000000000006 57.50000000000001 278.95000000000005 58.550000000000004 C 273.48 62.59 269.69000000000005 68.46000000000001 266.93000000000006 74.60000000000001 C 265.99000000000007 76.29 260.2300000000001 90.21000000000001 265.9100000000001 85.55000000000001 Z" stroke-linecap="round" /></g><g transform="matrix(1 0 0 1 55.57 -120.07)" id="c"  ><path style="stroke: none; stroke-width: 1; stroke-dasharray: none; stroke-linecap: butt; stroke-dashoffset: 0; stroke-linejoin: miter; stroke-miterlimit: 4; fill: rgb(238,242,246); fill-rule: nonzero; opacity: 1;"  transform=" translate(-268.32, -52.62)" d="M 261.23 60.41 C 264.37 54.169999999999995 269.69 47.8 276.91 46.55 C 277.64000000000004 46.44 278.04 45.529999999999994 277.86 44.87 C 271.96000000000004 41.199999999999996 262.57 52.379999999999995 259.81 57.33 C 259.48 57.879999999999995 259.16 58.449999999999996 258.88 59.019999999999996 C 258.12 60.589999999999996 260.46999999999997 61.97 261.23 60.4 Z" stroke-linecap="round" /></g><g transform="matrix(1 0 0 1 55.27 -139.03)" id="c"  ><path style="stroke: none; stroke-width: 1; stroke-dasharray: none; stroke-linecap: butt; stroke-dashoffset: 0; stroke-linejoin: miter; stroke-miterlimit: 4; fill: rgb(238,242,246); fill-rule: nonzero; opacity: 1;"  transform=" translate(-268.01, -33.66)" d="M 261.77 37.2 C 264.88 34.84 270.39 32.02 275 33.28 C 276.7 33.72 277.43 31.09 275.73 30.650000000000002 C 269.92 27.64 253.08 37.77 261.77000000000004 37.2 Z" stroke-linecap="round" /></g><g transform="matrix(1 0 0 1 130.92 -64.25)" id="c"  ><path style="stroke: none; stroke-width: 1; stroke-dasharray: none; stroke-linecap: butt; stroke-dashoffset: 0; stroke-linejoin: miter; stroke-miterlimit: 4; fill: rgb(238,242,246); fill-rule: nonzero; opacity: 1;"  transform=" translate(-343.66, -108.44)" d="M 348.68 119.73 C 341.57 115.04 338.8 104.51 342.3 96.22 C 342.90000000000003 94.57 340.27000000000004 93.86 339.67 95.5 C 337.76 100.77 337.29 106.61 339.36 111.91 C 340.95 115.97 343.71000000000004 119.61 347.31 122.09 C 348.79 123.04 350.16 120.69 348.69 119.74000000000001 Z" stroke-linecap="round" /></g><g transform="matrix(1 0 0 1 140.72 -66.53)" id="c"  ><path style="stroke: none; stroke-width: 1; stroke-dasharray: none; stroke-linecap: butt; stroke-dashoffset: 0; stroke-linejoin: miter; stroke-miterlimit: 4; fill: rgb(238,242,246); fill-rule: nonzero; opacity: 1;"  transform=" translate(-353.46, -106.16)" d="M 348.19 93.68 C 346.24 102.93 346.73 116.93 357.92 119.64000000000001 C 359.62 120.06000000000002 360.35 117.43000000000002 358.64000000000004 117.01000000000002 C 343.48 113.41000000000003 354.80000000000007 87.13000000000002 348.18000000000006 93.68000000000002 Z" stroke-linecap="round" /></g><g transform="matrix(1 0 0 1 152.72 -69.21)" id="c"  ><path style="stroke: none; stroke-width: 1; stroke-dasharray: none; stroke-linecap: butt; stroke-dashoffset: 0; stroke-linejoin: miter; stroke-miterlimit: 4; fill: rgb(238,242,246); fill-rule: nonzero; opacity: 1;"  transform=" translate(-365.47, -103.48)" d="M 358.58 92.02 C 358.71 100.97999999999999 360.39 113.8 370.65 116.35 C 372.35999999999996 116.71 373.09 114.08 371.38 113.72 C 358.07 111.51 363.78 84.08 358.58 92.02 Z" stroke-linecap="round" /></g><g transform="matrix(1 0 0 1 167.61 -78.98)" id="c"  ><path style="stroke: none; stroke-width: 1; stroke-dasharray: none; stroke-linecap: butt; stroke-dashoffset: 0; stroke-linejoin: miter; stroke-miterlimit: 4; fill: rgb(238,242,246); fill-rule: nonzero; opacity: 1;"  transform=" translate(-380.36, -93.71)" d="M 371.1 85.17 C 373.42 111.03 395.81 102.87 387.95000000000005 100.28 C 385.79 100.99 383.81000000000006 101.17 381.77000000000004 100.33 C 376.46000000000004 97.91 374.57000000000005 90.05 373.85 85.37 C 373.99 83.51 371.11 83.28 371.1 85.18 Z" stroke-linecap="round" /></g><g transform="matrix(1 0 0 1 170.1 -91.55)" id="c"  ><path style="stroke: none; stroke-width: 1; stroke-dasharray: none; stroke-linecap: butt; stroke-dashoffset: 0; stroke-linejoin: miter; stroke-miterlimit: 4; fill: rgb(238,242,246); fill-rule: nonzero; opacity: 1;"  transform=" translate(-382.84, -81.14)" d="M 373.06 78.64 C 377.26 84.17 385.76 88.75 392.07 83.91 C 392.67 83.47999999999999 392.96 82.72 392.56 82.05 C 392.22 81.46 391.3 81.13 390.69 81.56 C 381.63 88.92 371.73 69.96000000000001 373.06 78.65 Z" stroke-linecap="round" /></g><g transform="matrix(1 0 0 1 167.64 -102.89)" id="c"  ><path style="stroke: none; stroke-width: 1; stroke-dasharray: none; stroke-linecap: butt; stroke-dashoffset: 0; stroke-linejoin: miter; stroke-miterlimit: 4; fill: rgb(238,242,246); fill-rule: nonzero; opacity: 1;"  transform=" translate(-380.38, -69.8)" d="M 372.1 70.11 C 375.95000000000005 70.67 388.34000000000003 74.67 389.63 69.76 C 389.45 69.11 388.64 68.54 387.95 68.81 C 383.03999999999996 70.13 377.69 68.5 372.83 67.48 C 371.13 67.04 370.40999999999997 69.66000000000001 372.10999999999996 70.11 Z" stroke-linecap="round" /></g><g transform="matrix(1 0 0 1 101.16 -76.37)" id="c"  ><path style="stroke: none; stroke-width: 1; stroke-dasharray: none; stroke-linecap: butt; stroke-dashoffset: 0; stroke-linejoin: miter; stroke-miterlimit: 4; fill: rgb(238,242,246); fill-rule: nonzero; opacity: 1;"  transform=" translate(-313.9, -96.32)" d="M 287.73 89.72 C 303.14000000000004 98.92 321.28000000000003 108.00999999999999 339.71000000000004 104.85 C 341.43000000000006 104.47999999999999 340.70000000000005 101.86 338.99 102.22 C 321.29 105.17999999999999 303.92 96.11 289.11 87.37 C 287.64 86.4 286.27000000000004 88.76 287.74 89.72 Z" stroke-linecap="round" /></g><g transform="matrix(1 0 0 1 99.78 -65.33)" id="c"  ><path style="stroke: none; stroke-width: 1; stroke-dasharray: none; stroke-linecap: butt; stroke-dashoffset: 0; stroke-linejoin: miter; stroke-miterlimit: 4; fill: rgb(238,242,246); fill-rule: nonzero; opacity: 1;"  transform=" translate(-312.52, -107.36)" d="M 282.09 100.55 C 295.84 107.17 310.30999999999995 112.72 325.35999999999996 115.45 C 327.66999999999996 116.09 348.87999999999994 118.64 342.43999999999994 113.68 C 321.8299999999999 115.04 301.8499999999999 106.60000000000001 283.4599999999999 98.2 C 281.8999999999999 97.41 280.5199999999999 99.76 282.0799999999999 100.55 Z" stroke-linecap="round" /></g><g transform="matrix(1 0 0 1 100.87 -51.24)" id="c"  ><path style="stroke: none; stroke-width: 1; stroke-dasharray: none; stroke-linecap: butt; stroke-dashoffset: 0; stroke-linejoin: miter; stroke-miterlimit: 4; fill: rgb(238,242,246); fill-rule: nonzero; opacity: 1;"  transform=" translate(-313.61, -121.45)" d="M 278.09 115.24 C 298.89 128.06 324.69 133.26999999999998 348.75 128.53 C 350.47 128.19 349.74 125.57000000000001 348.03 125.9 C 326.23999999999995 130.16 303 125.95 283.59 115.32000000000001 C 282.19 114.56 280.79999999999995 113.77000000000001 279.47999999999996 112.88000000000001 C 278.03 111.89000000000001 276.65999999999997 114.26 278.10999999999996 115.23 Z" stroke-linecap="round" /></g><g transform="matrix(1 0 0 1 99.48 -38.64)" id="c"  ><path style="stroke: none; stroke-width: 1; stroke-dasharray: none; stroke-linecap: butt; stroke-dashoffset: 0; stroke-linejoin: miter; stroke-miterlimit: 4; fill: rgb(238,242,246); fill-rule: nonzero; opacity: 1;"  transform=" translate(-312.23, -134.05)" d="M 273.3 128.73 C 296.01 143.17999999999998 325.1 144.73999999999998 350.77 138.5 C 352.46999999999997 138.09 351.75 135.46 350.04999999999995 135.87 C 326.59999999999997 141.55 300.25999999999993 140.63 278.71999999999997 128.84 C 277.34 128.09 275.95 127.3 274.67999999999995 126.38000000000001 C 273.25999999999993 125.35000000000001 271.9 127.71000000000001 273.29999999999995 128.73000000000002 Z" stroke-linecap="round" /></g><g transform="matrix(1 0 0 1 99.81 -26.13)" id="c"  ><path style="stroke: none; stroke-width: 1; stroke-dasharray: none; stroke-linecap: butt; stroke-dashoffset: 0; stroke-linejoin: miter; stroke-miterlimit: 4; fill: rgb(238,242,246); fill-rule: nonzero; opacity: 1;"  transform=" translate(-312.56, -146.56)" d="M 269.72 140.29 C 283.90000000000003 146.72 299.49 149.35 314.57000000000005 152.87 C 328.14000000000004 156.48000000000002 342.6700000000001 156.57 355.38000000000005 149.99 C 356.97 149.26000000000002 355.59000000000003 146.91 354.00000000000006 147.64000000000001 C 342.39000000000004 153.61 329.1000000000001 153.74 316.6600000000001 150.54000000000002 C 301.3500000000001 147.19000000000003 285.5400000000001 144.13000000000002 271.1000000000001 137.95000000000002 C 269.5300000000001 137.18 268.1500000000001 139.53000000000003 269.7200000000001 140.3 Z" stroke-linecap="round" /></g><g transform="matrix(1 0 0 1 152.65 18.68)" id="c"  ><path style="stroke: none; stroke-width: 1; stroke-dasharray: none; stroke-linecap: butt; stroke-dashoffset: 0; stroke-linejoin: miter; stroke-miterlimit: 4; fill: rgb(205,215,229); fill-rule: nonzero; opacity: 1;"  transform=" translate(-365.4, -191.37)" d="M 352.07 211.52 C 331.53999999999996 220.25 317.56 201.61 317.56 201.61 C 361.37 284.51 378.08 174.33 413.24 150.69 C 379.29 159.37 372.59000000000003 202.79 352.06 211.51999999999998 Z" stroke-linecap="round" /></g><g transform="matrix(1 0 0 1 32.35 -137.75)" id="c"  ><path style="stroke: none; stroke-width: 1; stroke-dasharray: none; stroke-linecap: butt; stroke-dashoffset: 0; stroke-linejoin: miter; stroke-miterlimit: 4; fill: rgb(189,193,202); fill-rule: nonzero; opacity: 1;"  transform=" translate(-245.09, -34.94)" d="M 243.26 12.73 C 234.14999999999998 26.509999999999998 242.79 43.519999999999996 248.1 56.959999999999994 C 248.81 58.75999999999999 251.5 57.419999999999995 250.79 55.63999999999999 C 245.85 42.86999999999999 237.6 27.489999999999995 245.78 14.36999999999999 C 246.84 12.759999999999991 244.33 11.11999999999999 243.26 12.739999999999991 Z" stroke-linecap="round" /></g><g transform="matrix(1 0 0 1 20.99 -133.44)" id="c"  ><path style="stroke: none; stroke-width: 1; stroke-dasharray: none; stroke-linecap: butt; stroke-dashoffset: 0; stroke-linejoin: miter; stroke-miterlimit: 4; fill: rgb(189,193,202); fill-rule: nonzero; opacity: 1;"  transform=" translate(-233.73, -39.25)" d="M 228.88 32.89 C 229.91 38.1 232.38 42.97 235.99 46.870000000000005 C 237.3 48.28 239.55 46.300000000000004 238.23000000000002 44.88 C 234.96 41.36 232.74 37.02 231.81000000000003 32.300000000000004 C 231.44000000000003 30.400000000000006 228.49000000000004 30.990000000000006 228.87000000000003 32.89000000000001 Z" stroke-linecap="round" /></g><g transform="matrix(1 0 0 1 204.77 44.96)" id="c"  ><path style="stroke: none; stroke-width: 1; stroke-dasharray: none; stroke-linecap: butt; stroke-dashoffset: 0; stroke-linejoin: miter; stroke-miterlimit: 4; fill: rgb(189,193,202); fill-rule: nonzero; opacity: 1;"  transform=" translate(-417.51, -217.65)" d="M 422.78 171.15 C 397.61999999999995 213.94 423.96 230.60000000000002 409.65999999999997 262.9 C 408.91999999999996 264.69 411.74999999999994 265.67999999999995 412.48999999999995 263.9 C 424.79999999999995 239.14999999999998 407.7699999999999 217.27999999999997 417.31999999999994 191.07 C 419.18999999999994 184.68 421.8399999999999 178.54999999999998 425.25999999999993 172.84 C 426.24999999999994 171.19 423.7699999999999 169.49 422.7799999999999 171.15 Z" stroke-linecap="round" /></g><g transform="matrix(1 0 0 1 191.54 45.95)" id="c"  ><path style="stroke: none; stroke-width: 1; stroke-dasharray: none; stroke-linecap: butt; stroke-dashoffset: 0; stroke-linejoin: miter; stroke-miterlimit: 4; fill: rgb(189,193,202); fill-rule: nonzero; opacity: 1;"  transform=" translate(-404.29, -218.64)" d="M 403.21 197.77 C 399.89 211.47 400.29999999999995 225.92000000000002 404.54999999999995 239.38 C 405.11999999999995 241.2 408.0799999999999 240.66 407.49999999999994 238.82 C 403.40999999999997 225.89 402.84999999999997 211.97 406.03999999999996 198.78 C 406.48999999999995 196.92 403.66999999999996 195.9 403.21 197.78 Z" stroke-linecap="round" /></g><g transform="matrix(1 0 0 1 -88.06 -124.44)" id="c"  ><path style="stroke: none; stroke-width: 1; stroke-dasharray: none; stroke-linecap: butt; stroke-dashoffset: 0; stroke-linejoin: miter; stroke-miterlimit: 4; fill: rgb(255,211,165); fill-rule: nonzero; opacity: 1;"  transform=" translate(-124.68, -48.25)" d="M 133.84 38.84 C 145.8 51.86 132.61 73.46000000000001 118.54 57 C 108.93 59.18 108.33000000000001 44.93 116.76 50.39 C 116.76 50.39 117.85000000000001 49.8 117.75 46.34 C 116.53 38.540000000000006 130.86 44.67 122.78 35.18000000000001 C 121.79 34.49000000000001 127.12 31.92000000000001 128.7 35.18000000000001 C 130.28 38.440000000000005 133.82999999999998 38.830000000000005 133.82999999999998 38.830000000000005 Z" stroke-linecap="round" /></g><g transform="matrix(1 0 0 1 -89.29 -134.03)" id="c"  ><path style="stroke: none; stroke-width: 1; stroke-dasharray: none; stroke-linecap: butt; stroke-dashoffset: 0; stroke-linejoin: miter; stroke-miterlimit: 4; fill: rgb(56,25,61); fill-rule: nonzero; opacity: 1;"  transform=" translate(-123.45, -38.66)" d="M 138.65 32.33 C 136.4 30.45 141.24 26.599999999999998 136.6 25.909999999999997 C 131.96 25.219999999999995 130.97 27.389999999999997 125.83999999999999 24.629999999999995 C 116.42999999999999 19.159999999999997 113.21999999999998 26.819999999999997 114.18999999999998 32.33 C 114.18999999999998 32.33 114.97999999999999 33.019999999999996 109.54999999999998 34.01 C 104.11999999999998 35 103.03999999999998 39.239999999999995 105.89999999999998 41.51 C 108.75999999999998 43.78 104.21999999999997 44.15 103.92999999999998 48.16 C 103.67999999999998 51.56999999999999 107.70999999999998 54.22 111.59999999999998 54.56999999999999 C 108.59999999999998 50.35999999999999 114.00999999999998 47.22999999999999 116.76999999999998 50.39999999999999 C 116.76999999999998 50.39999999999999 117.85999999999999 49.80999999999999 117.75999999999998 46.349999999999994 C 116.53999999999998 38.55 130.86999999999998 44.67999999999999 122.78999999999998 35.19 C 121.79999999999998 34.5 127.12999999999998 31.93 128.70999999999998 35.19 C 130.29 38.449999999999996 133.83999999999997 38.839999999999996 133.83999999999997 38.839999999999996 C 133.83999999999997 38.839999999999996 134.45999999999998 39.629999999999995 135.25999999999996 40.91 C 135.25999999999996 40.91 140.84999999999997 39.23 142.52999999999997 37.16 C 144.20999999999998 35.089999999999996 140.90999999999997 34.199999999999996 138.65999999999997 32.31999999999999 Z" stroke-linecap="round" /></g><g transform="matrix(1 0 0 1 -84.14 -117.99)" id="c"  ><path style="stroke: none; stroke-width: 1; stroke-dasharray: none; stroke-linecap: butt; stroke-dashoffset: 0; stroke-linejoin: miter; stroke-miterlimit: 4; fill: rgb(56,25,61); fill-rule: nonzero; opacity: 1;"  transform=" translate(-128.61, -54.7)" d="M 137.91 46.55 C 130.43 46.379999999999995 126.25999999999999 57.769999999999996 118.53 52.86 L 118.53 57.01 C 127.79 70 142.17000000000002 59.04 137.91 46.55 Z" stroke-linecap="round" /></g><g transform="matrix(1 0 0 1 -86.16 -103.95)" id="c"  ><path style="stroke: none; stroke-width: 1; stroke-dasharray: none; stroke-linecap: butt; stroke-dashoffset: 0; stroke-linejoin: miter; stroke-miterlimit: 4; fill: rgb(255,211,165); fill-rule: nonzero; opacity: 1;"  transform=" translate(-126.58, -68.74)" d="M 118.54 57.01 C 118.54 57.01 121.11 63.03 118.54 68.86 C 122.19000000000001 78.19 136.49 89.7 134.43 68.37 C 134.43 68.37 132.85 63.24 133.24 61.56 C 133.24 61.56 124.95000000000002 66.4 118.53 57.02 Z" stroke-linecap="round" /></g><g transform="matrix(1 0 0 1 -86.75 -110.73)" id="c"  ><path style="stroke: none; stroke-width: 1; stroke-dasharray: none; stroke-linecap: butt; stroke-dashoffset: 0; stroke-linejoin: miter; stroke-miterlimit: 4; fill: rgb(1,1,1); fill-rule: nonzero; opacity: 1;"  transform=" translate(-125.99, -61.96)" d="M 119.28 66.65 C 122.53 67.10000000000001 128.1 67.26 133.45 64.42 C 133.23 63.28 133.1 62.17 133.25 61.550000000000004 C 133.25 61.550000000000004 124.96000000000001 66.39 118.53999999999999 57.010000000000005 C 118.53999999999999 57.010000000000005 120.49999999999999 61.61000000000001 119.27999999999999 66.66000000000001 Z" stroke-linecap="round" /></g><g transform="matrix(1 0 0 1 -75.09 -52.09)" id="c"  ><path style="stroke: none; stroke-width: 1; stroke-dasharray: none; stroke-linecap: butt; stroke-dashoffset: 0; stroke-linejoin: miter; stroke-miterlimit: 4; fill: rgb(1,1,1); fill-rule: nonzero; opacity: 1;"  transform=" translate(-137.66, -120.6)" d="M 142.98 68.59 L 134.42999999999998 68.36 C 136.48999999999998 89.74 122.14999999999998 78.12 118.53999999999998 68.85 L 114.22999999999998 70.27 C 114.22999999999998 70.27 134.81999999999996 132.13 126.62999999999998 172.8 C 126.62999999999998 172.8 144.89999999999998 173.59 161.08999999999997 168.06 C 161.08999999999997 168.06 160.12999999999997 112.53999999999999 142.98999999999998 68.58 Z" stroke-linecap="round" /></g><g transform="matrix(1 0 0 1 -128.65 -48.16)" id="c"  ><path style="stroke: none; stroke-width: 1; stroke-dasharray: none; stroke-linecap: butt; stroke-dashoffset: 0; stroke-linejoin: miter; stroke-miterlimit: 4; fill: rgb(238,242,246); fill-rule: nonzero; opacity: 1;"  transform=" translate(-84.09, -124.53)" d="M 114.23 70.27 C 114.23 70.27 59.21 59.48 39.47 134.89999999999998 C 39.47 134.89999999999998 43.94 141.34999999999997 49.47 139.76999999999998 C 49.47 139.76999999999998 65.88 104.67999999999998 95.27 108.56999999999998 C 95.27 108.56999999999998 90.53 136.61999999999998 79.21 160.57 C 79.21 160.57 90.27 180.57999999999998 123.44 179.26 C 139.63 144.25 113.27 68.74999999999999 114.22999999999999 70.27999999999999 Z" stroke-linecap="round" /></g><g transform="matrix(1 0 0 1 -37.35 -67.37)" id="c"  ><path style="stroke: none; stroke-width: 1; stroke-dasharray: none; stroke-linecap: butt; stroke-dashoffset: 0; stroke-linejoin: miter; stroke-miterlimit: 4; fill: rgb(238,242,246); fill-rule: nonzero; opacity: 1;"  transform=" translate(-175.39, -105.32)" d="M 207.28 40.52 C 204.91 35.78 195.43 38.68 195.43 38.68 C 195.43 38.68 199.38 68.35 182.99 72.11 C 156.81 78.1 142.98000000000002 68.58 142.98000000000002 68.58 C 161.76000000000002 117.6 159.61 166.97 162.27 172.82999999999998 C 178.66000000000003 171.88 185.57000000000002 165.67999999999998 185.57000000000002 165.67999999999998 C 183.20000000000002 132.90999999999997 175.14000000000001 104.07999999999998 175.14000000000001 104.07999999999998 C 214.46 88.67999999999998 207.29000000000002 40.509999999999984 207.29000000000002 40.509999999999984 Z" stroke-linecap="round" /></g><g transform="matrix(1 0 0 1 -171.51 -26.18)" id="c"  ><path style="stroke: none; stroke-width: 1; stroke-dasharray: none; stroke-linecap: butt; stroke-dashoffset: 0; stroke-linejoin: miter; stroke-miterlimit: 4; fill: rgb(255,211,165); fill-rule: nonzero; opacity: 1;"  transform=" translate(-41.24, -146.51)" d="M 39.47 134.89 C 40.36 133.98 28.619999999999997 151.69 34.04 149.2 C 32.98 153.82 33.769999999999996 163.38 37.5 151.07999999999998 C 35.78 159.14 42.69 161.57999999999998 41.45 151.67 C 41.45 151.67 43.03 158.08999999999997 44.31 157.39999999999998 C 45.59 156.70999999999998 45.59 148.90999999999997 45.59 148.90999999999997 C 45.59 148.90999999999997 47.370000000000005 153.44999999999996 49.14 151.96999999999997 C 50.91 150.48999999999998 48.81 143.63999999999996 49.47 139.75999999999996 C 49.47 139.75999999999996 44.8 141.30999999999997 39.47 134.88999999999996 Z" stroke-linecap="round" /></g><g transform="matrix(1 0 0 1 -11.43 -143.75)" id="c"  ><path style="stroke: none; stroke-width: 1; stroke-dasharray: none; stroke-linecap: butt; stroke-dashoffset: 0; stroke-linejoin: miter; stroke-miterlimit: 4; fill: rgb(255,211,165); fill-rule: nonzero; opacity: 1;"  transform=" translate(-201.32, -28.94)" d="M 195.49 39.14 C 195.46 38.86 195.44 38.69 195.44 38.69 C 195.3 38.669999999999995 206.17 35.61 207.35999999999999 41.129999999999995 C 209.10999999999999 36.62 217.14999999999998 13.689999999999994 208.42 27.099999999999994 C 210.94 15.989999999999995 206.28 15.369999999999994 203.82 26.129999999999995 C 203.67 9.799999999999997 198.89 17.859999999999996 198.68 27.099999999999994 C 198.08 20.269999999999996 196.26000000000002 18.149999999999995 194.99 19.359999999999992 C 193.72 20.569999999999993 194.75 29.879999999999992 194.75 29.879999999999992 C 194.75 29.879999999999992 194.21 28.96999999999999 193.39 27.57999999999999 C 192.57 26.18999999999999 189.01 25.519999999999992 190.64 29.38999999999999 C 191.85999999999999 32.27999999999999 194.32 36.94999999999999 195.48999999999998 39.139999999999986 Z" stroke-linecap="round" /></g><g transform="matrix(1 0 0 1 -81.87 47.26)" id="c"  ><path style="stroke: none; stroke-width: 1; stroke-dasharray: none; stroke-linecap: butt; stroke-dashoffset: 0; stroke-linejoin: miter; stroke-miterlimit: 4; fill: rgb(0,69,159); fill-rule: nonzero; opacity: 1;"  transform=" translate(-130.87, -219.95)" d="M 220.51 194.72 C 218.53 159.57999999999998 185.39999999999998 163.48 185.39 163.48 C 185.45 164.22 185.51 164.95999999999998 185.55999999999997 165.7 C 185.55999999999997 165.7 178.64999999999998 171.89999999999998 162.25999999999996 172.85 L 161.06999999999996 168.07 C 144.87999999999997 173.6 126.60999999999996 172.81 126.60999999999996 172.81 C 124.26999999999995 177.42000000000002 123.41999999999996 179.26 123.41999999999996 179.26 C 100.25999999999996 180.17999999999998 87.88999999999996 170.7 82.52999999999996 164.89999999999998 C 78.57999999999996 180.46999999999997 91.34999999999997 207.04999999999998 73.79999999999995 219.39999999999998 C 61.159999999999954 227.29999999999998 45.369999999999955 219.39999999999998 45.369999999999955 219.39999999999998 C 40.23999999999995 221.36999999999998 41.17999999999996 228.73999999999998 41.17999999999996 228.73999999999998 C 75.99999999999996 306.78999999999996 148.63999999999996 249.42 151.38999999999996 217.02999999999997 C 186.68999999999994 217.54999999999998 196.37999999999997 245.34999999999997 186.33999999999997 273.68999999999994 C 193.04999999999998 278.81999999999994 203.11999999999998 275.4699999999999 203.11999999999998 275.4699999999999 C 203.11999999999998 275.4699999999999 222.46999999999997 229.8599999999999 220.48999999999998 194.7199999999999 Z" stroke-linecap="round" /></g><g transform="matrix(1 0 0 1 -51.7 -6.06)" id="c"  ><path style="stroke: none; stroke-width: 1; stroke-dasharray: none; stroke-linecap: butt; stroke-dashoffset: 0; stroke-linejoin: miter; stroke-miterlimit: 4; fill: rgb(0,69,159); fill-rule: nonzero; opacity: 1;"  transform=" translate(-161.04, -166.63)" d="M 161.06 167.27 C 161.06 166.94 161.04 166.51000000000002 161.02 165.99 C 161.04000000000002 166.51000000000002 161.05 166.94 161.06 167.27 Z" stroke-linecap="round" /></g><g transform="matrix(1 0 0 1 -35.75 62.81)" id="c"  ><path style="stroke: none; stroke-width: 1; stroke-dasharray: none; stroke-linecap: butt; stroke-dashoffset: 0; stroke-linejoin: miter; stroke-miterlimit: 4; fill: rgb(0,50,115); fill-rule: nonzero; opacity: 1;"  transform=" translate(-177, -235.5)" d="M 197.12 276.51 C 214.9 235.89999999999998 186.43 193.64999999999998 152.88 194.45999999999998 C 154.94 208.60999999999999 151.41 217.02999999999997 151.41 217.02999999999997 C 186.70999999999998 217.54999999999998 196.4 245.34999999999997 186.36 273.68999999999994 C 189.67000000000002 276.2199999999999 193.79000000000002 276.67999999999995 197.12 276.50999999999993 Z" stroke-linecap="round" /></g><g transform="matrix(1 0 0 1 -176.66 49.53)" id="c"  ><path style="stroke: none; stroke-width: 1; stroke-dasharray: none; stroke-linecap: butt; stroke-dashoffset: 0; stroke-linejoin: miter; stroke-miterlimit: 4; fill: rgb(1,1,1); fill-rule: nonzero; opacity: 1;"  transform=" translate(-36.09, -222.22)" d="M 41.2 226 C 41.42 223.69 42.31 220.58 45.39 219.39 C 45.39 219.39 42.230000000000004 215.04999999999998 37.89 214.05999999999997 C 33.55 213.06999999999996 24.270000000000003 227.47999999999996 27.43 230.04999999999998 C 30.59 232.61999999999998 37.22 220.73999999999998 41.21 225.99999999999997 Z" stroke-linecap="round" /></g><g transform="matrix(1 0 0 1 -15.44 108.39)" id="c"  ><path style="stroke: none; stroke-width: 1; stroke-dasharray: none; stroke-linecap: butt; stroke-dashoffset: 0; stroke-linejoin: miter; stroke-miterlimit: 4; fill: rgb(1,1,1); fill-rule: nonzero; opacity: 1;"  transform=" translate(-197.3, -281.08)" d="M 186.35 273.69 C 186.35 273.69 183.19 284.35 186.35 285.93 C 189.51 287.51 206.88 289.48 209.25 287.90000000000003 C 211.62 286.32000000000005 202.93 282.57000000000005 203.13 275.46000000000004 C 203.13 275.46000000000004 193.06 278.82000000000005 186.35 273.68000000000006 Z" stroke-linecap="round" /></g><g transform="matrix(1 0 0 1 -119.93 14.52)" id="c"  ><path style="stroke: none; stroke-width: 1; stroke-dasharray: none; stroke-linecap: butt; stroke-dashoffset: 0; stroke-linejoin: miter; stroke-miterlimit: 4; fill: rgb(0,75,173); fill-rule: nonzero; opacity: 1;"  transform=" translate(-92.81, -187.21)" d="M 102.29 176.81 C 101.52000000000001 185.94 95 202.72 83.34 196.1 C 94.99000000000001 200.71 99.64 185.26 102.29 176.81 Z" stroke-linecap="round" /></g><g transform="matrix(1 0 0 1 -60.4 29.36)" id="c"  ><path style="stroke: none; stroke-width: 1; stroke-dasharray: none; stroke-linecap: butt; stroke-dashoffset: 0; stroke-linejoin: miter; stroke-miterlimit: 4; fill: rgb(0,75,173); fill-rule: nonzero; opacity: 1;"  transform=" translate(-152.34, -202.05)" d="M 151.21 187.06 C 154.15 196.71 154.24 207.34 151.41 217.03 C 152.57 207.05 152.5 197.02 151.21 187.06 Z" stroke-linecap="round" /></g><g transform="matrix(1 0 0 1 -37.72 65.28)" id="c"  ><path style="stroke: none; stroke-width: 1; stroke-dasharray: none; stroke-linecap: butt; stroke-dashoffset: 0; stroke-linejoin: miter; stroke-miterlimit: 4; fill: rgb(0,75,173); fill-rule: nonzero; opacity: 1;"  transform=" translate(-175.03, -237.97)" d="M 191.26 276 C 197.03 257.28 200.67 232.54 184.88 217.72 C 175.54999999999998 210.12 165.37 200.85 152.85 199.93 C 165.53 200.14000000000001 176.19 209.31 185.62 216.9 C 201.94 231.8 198.27 257.34000000000003 191.27 276.01 Z" stroke-linecap="round" /></g><g transform="matrix(1 0 0 1 -146.59 42.67)" id="c"  ><path style="stroke: none; stroke-width: 1; stroke-dasharray: none; stroke-linecap: butt; stroke-dashoffset: 0; stroke-linejoin: miter; stroke-miterlimit: 4; fill: rgb(0,75,173); fill-rule: nonzero; opacity: 1;"  transform=" translate(-66.16, -215.36)" d="M 89.61 197.31 C 87.87 228.15 68.81 247 42.71 221.48000000000002 C 70.27 244.82000000000002 85.4 227.43 89.61 197.31 Z" stroke-linecap="round" /></g><g transform="matrix(1 0 0 1 -22.23 -100.38)" id="c"  ><path style="stroke: none; stroke-width: 1; stroke-dasharray: none; stroke-linecap: butt; stroke-dashoffset: 0; stroke-linejoin: miter; stroke-miterlimit: 4; fill: rgb(205,215,229); fill-rule: nonzero; opacity: 1;"  transform=" translate(-190.51, -72.31)" d="M 173.22 97.27 L 175.14 104.1 C 214.45999999999998 88.69999999999999 207.29 40.529999999999994 207.29 40.529999999999994 C 202.54999999999998 80.41 173.22 97.27 173.22 97.27 Z" stroke-linecap="round" /></g><g transform="matrix(1 0 0 1 -40.1 -75.21)" id="c"  ><path style="stroke: none; stroke-width: 1; stroke-dasharray: none; stroke-linecap: butt; stroke-dashoffset: 0; stroke-linejoin: miter; stroke-miterlimit: 4; fill: rgb(205,215,229); fill-rule: nonzero; opacity: 1;"  transform=" translate(-172.64, -97.48)" d="M 175.13 104.1 C 172.71 100.00999999999999 171.03 95.55 170.16 90.86999999999999 C 172.6 94.99999999999999 174.24 99.38 175.13 104.1 Z" stroke-linecap="round" /></g><g transform="matrix(1 0 0 1 -196.23 17.21)" id="c"  ><path style="stroke: none; stroke-width: 1; stroke-dasharray: none; stroke-linecap: butt; stroke-dashoffset: 0; stroke-linejoin: miter; stroke-miterlimit: 4; fill: rgb(189,193,202); fill-rule: nonzero; opacity: 1;"  transform=" translate(-16.51, -189.9)" d="M 21.78 143.4 C -3.379999999999999 186.19 22.96 202.85000000000002 8.660000000000002 235.15 C 7.920000000000002 236.94 10.750000000000002 237.93 11.490000000000002 236.15 C 23.800000000000004 211.4 6.770000000000002 189.53 16.32 163.32 C 18.19 156.93 20.84 150.79999999999998 24.26 145.09 C 25.25 143.44 22.78 141.74 21.78 143.4 Z" stroke-linecap="round" /></g><g transform="matrix(1 0 0 1 -209.47 18.19)" id="c"  ><path style="stroke: none; stroke-width: 1; stroke-dasharray: none; stroke-linecap: butt; stroke-dashoffset: 0; stroke-linejoin: miter; stroke-miterlimit: 4; fill: rgb(189,193,202); fill-rule: nonzero; opacity: 1;"  transform=" translate(-3.28, -190.88)" d="M 2.2 170.01 C -1.1199999999999997 183.70999999999998 -0.71 198.16 3.54 211.62 C 4.11 213.44 7.07 212.9 6.49 211.06 C 2.4000000000000004 198.13 1.8399999999999999 184.21 5.03 171.02 C 5.48 169.16 2.66 168.14000000000001 2.2 170.02 Z" stroke-linecap="round" /></g><g transform="matrix(1 0 0 1 6.65 121.79)" id="c"  ><path style="stroke: none; stroke-width: 1; stroke-dasharray: none; stroke-linecap: butt; stroke-dashoffset: 0; stroke-linejoin: miter; stroke-miterlimit: 4; fill: rgb(189,193,202); fill-rule: nonzero; opacity: 1;"  transform=" translate(-219.4, -294.48)" d="M 235.34 244.99 C 234.88 280.19 222.57 315.08000000000004 200.79000000000002 342.74 C 199.61 344.24 201.72000000000003 346.38 202.91000000000003 344.86 C 220.3 322.79 231.90000000000003 296.32 236.31000000000003 268.57 C 236.61000000000004 265.98 241.30000000000004 236.95 235.35000000000002 244.99 Z" stroke-linecap="round" /></g><g transform="matrix(1 0 0 1 19.87 142.03)" id="c"  ><path style="stroke: none; stroke-width: 1; stroke-dasharray: none; stroke-linecap: butt; stroke-dashoffset: 0; stroke-linejoin: miter; stroke-miterlimit: 4; fill: rgb(189,193,202); fill-rule: nonzero; opacity: 1;"  transform=" translate(-232.62, -314.72)" d="M 237.87 296.8 C 233.4 308.48 228.94 320.16 224.47 331.84000000000003 C 223.78 333.65000000000003 226.68 334.43 227.35999999999999 332.64000000000004 C 231.82999999999998 320.96000000000004 236.29 309.28000000000003 240.76 297.6 C 241.45 295.79 238.54999999999998 295.01000000000005 237.87 296.8 Z" stroke-linecap="round" /></g></g></g></svg>