<svg viewBox = "0 0 180 180" width="180" height="180" xmlns="http://www.w3.org/2000/svg"><g transform="matrix(1 0 0 1 90 90)"  ><g style=""   ><g transform="matrix(1 0 0 1 -6.41 51.25)" clip-path="url(#CLIPPATH_77)"  ><clipPath id="CLIPPATH_77" ><rect transform="matrix(1 0 0 1 6.41 -51.25)" id="clip0_1106_114" x="-90" y="-90" rx="0" ry="0" width="180" height="180" /></clipPath><path style="stroke: rgb(0,0,0); stroke-width: 2.11131; stroke-dasharray: none; stroke-linecap: round; stroke-dashoffset: 0; stroke-linejoin: miter; stroke-miterlimit: 4; fill: none; fill-rule: nonzero; opacity: 1;"  transform=" translate(-83.59, -141.25)" d="M 97.5303 120.881 C 103.254 120.74 116.461 118.904 121.731 117.154 C 124.911 116.098 127.582 117.28 127.242 121.165 C 126.903 125.05 114.735 132.007 104.771 133.622 C 98.6944 134.607 84.3356 135.987 75.5168 133.622 C 66.6979 131.257 56.5789 140.8 52.6218 145.868 C 50.0779 149.035 43.9726 157.438 39.9023 165.714" stroke-linecap="round" /></g><g transform="matrix(1 0 0 1 23.91 24.91)" clip-path="url(#CLIPPATH_78)"  ><clipPath id="CLIPPATH_78" ><rect transform="matrix(1 0 0 1 -23.91 -24.91)" id="clip0_1106_114" x="-90" y="-90" rx="0" ry="0" width="180" height="180" /></clipPath><path style="stroke: rgb(0,0,0); stroke-width: 2.11131; stroke-dasharray: none; stroke-linecap: round; stroke-dashoffset: 0; stroke-linejoin: miter; stroke-miterlimit: 4; fill: none; fill-rule: nonzero; opacity: 1;"  transform=" translate(-113.91, -114.91)" d="M 98.4141 117.999 C 104.703 117.084 119.003 114.074 122.793 112.298 C 126.397 110.609 128.729 112.298 129.365 114.832 C 129.506 115.535 129.365 117.196 127.669 118.21" stroke-linecap="round" /></g><g transform="matrix(1 0 0 1 12.23 20.44)" clip-path="url(#CLIPPATH_79)"  ><clipPath id="CLIPPATH_79" ><rect transform="matrix(1 0 0 1 -12.23 -20.44)" id="clip0_1106_114" x="-90" y="-90" rx="0" ry="0" width="180" height="180" /></clipPath><path style="stroke: rgb(0,0,0); stroke-width: 2.11131; stroke-dasharray: none; stroke-linecap: round; stroke-dashoffset: 0; stroke-linejoin: miter; stroke-miterlimit: 4; fill: none; fill-rule: nonzero; opacity: 1;"  transform=" translate(-102.23, -110.44)" d="M 92.4746 112.297 C 97.5624 110.045 108.586 106.47 111.978 110.186" stroke-linecap="round" /></g><g transform="matrix(1 0 0 1 18.48 22.03)" clip-path="url(#CLIPPATH_80)"  ><clipPath id="CLIPPATH_80" ><rect transform="matrix(1 0 0 1 -18.48 -22.03)" id="clip0_1106_114" x="-90" y="-90" rx="0" ry="0" width="180" height="180" /></clipPath><path style="stroke: rgb(0,0,0); stroke-width: 2.11131; stroke-dasharray: none; stroke-linecap: round; stroke-dashoffset: 0; stroke-linejoin: miter; stroke-miterlimit: 4; fill: none; fill-rule: nonzero; opacity: 1;"  transform=" translate(-108.48, -112.03)" d="M 96.5059 114.83 C 97.1418 114.408 105.833 112.719 114.101 109.552 C 115.868 108.989 119.613 108.75 120.461 112.297" stroke-linecap="round" /></g><g transform="matrix(1 0 0 1 -25.52 29.49)" clip-path="url(#CLIPPATH_81)"  ><clipPath id="CLIPPATH_81" ><rect transform="matrix(1 0 0 1 25.52 -29.49)" id="clip0_1106_114" x="-90" y="-90" rx="0" ry="0" width="180" height="180" /></clipPath><path style="stroke: rgb(0,0,0); stroke-width: 2.11131; stroke-dasharray: none; stroke-linecap: round; stroke-dashoffset: 0; stroke-linejoin: miter; stroke-miterlimit: 4; fill: none; fill-rule: nonzero; opacity: 1;"  transform=" translate(-64.48, -119.49)" d="M 73.6101 121.165 C 82.5844 123.206 99.9817 125.472 97.777 118.209 C 95.6214 111.108 85.319 110.56 80.1059 111.197 C 79.881 111.224 79.6534 111.16 79.4717 111.025 C 65.2498 100.438 45.7884 113.411 38.2077 122.01 C 35.3811 125.388 33.9679 127.288 31 131.933" stroke-linecap="round" /></g><g transform="matrix(1 0 0 1 0.49 -33.05)" clip-path="url(#CLIPPATH_82)"  ><clipPath id="CLIPPATH_82" ><rect transform="matrix(1 0 0 1 -0.49 33.05)" id="clip0_1106_114" x="-90" y="-90" rx="0" ry="0" width="180" height="180" /></clipPath><path style="stroke: rgb(0,0,0); stroke-width: 2.11131; stroke-dasharray: none; stroke-linecap: round; stroke-dashoffset: 0; stroke-linejoin: miter; stroke-miterlimit: 4; fill: none; fill-rule: nonzero; opacity: 1;"  transform=" translate(-90.49, -56.95)" d="M 71.9145 50.0496 L 71.9145 50.0496 C 71.6419 50.0484 71.5227 50.389 71.7431 50.5495 C 77.3866 54.6573 89.7041 61.4847 99.7728 59.7795 C 99.8542 59.7657 99.9377 59.7754 100.014 59.8081 L 109.358 63.8455" stroke-linecap="round" /></g><g transform="matrix(1 0 0 1 -22.5 -47.55)" clip-path="url(#CLIPPATH_83)"  ><clipPath id="CLIPPATH_83" ><rect transform="matrix(1 0 0 1 22.5 47.55)" id="clip0_1106_114" x="-90" y="-90" rx="0" ry="0" width="180" height="180" /></clipPath><path style="stroke: rgb(0,0,0); stroke-width: 2.11131; stroke-dasharray: none; stroke-linecap: round; stroke-dashoffset: 0; stroke-linejoin: miter; stroke-miterlimit: 4; fill: none; fill-rule: nonzero; opacity: 1;"  transform=" translate(-67.5, -42.45)" d="M 63.2242 34.8447 C 62.0936 35.1966 59.8748 36.7871 60.0443 40.3341 C 60.3154 44.8337 63.7473 47.6787 65.4293 48.8554 C 67.5492 50.1222 69.2706 50.017 71.0678 50.0461 L 71.0678 50.0461 C 71.1326 50.0472 72.7511 49.8963 72.8128 49.8766 C 73.9755 49.5042 75.2817 48.4865 74.8837 46.2436" stroke-linecap="round" /></g><g transform="matrix(1 0 0 1 -17.4 -52.62)" clip-path="url(#CLIPPATH_84)"  ><clipPath id="CLIPPATH_84" ><rect transform="matrix(1 0 0 1 17.4 52.62)" id="clip0_1106_114" x="-90" y="-90" rx="0" ry="0" width="180" height="180" /></clipPath><path style="stroke: rgb(0,0,0); stroke-width: 2.11131; stroke-dasharray: none; stroke-linecap: round; stroke-dashoffset: 0; stroke-linejoin: miter; stroke-miterlimit: 4; fill: none; fill-rule: nonzero; opacity: 1;"  transform=" translate(-72.6, -37.38)" d="M 67.0386 28.3008 C 65.4133 28.8638 62.3748 30.961 63.2227 34.8458 C 64.0707 38.7306 64.7212 39.8483 65.0039 40.4113 C 66.0059 42.5735 67.6382 43.8213 68.3626 44.1949 C 68.3851 44.2065 68.4051 44.2188 68.4256 44.2337 C 69.4142 44.9539 71.9598 45.9449 74.8822 46.2447 C 75.6831 46.3269 78.3219 46.398 78.91 46.458 C 81.2419 46.458 82.7259 45.5628 81.8779 41.9258" stroke-linecap="round" /></g><g transform="matrix(1 0 0 1 -13.68 -58.53)" clip-path="url(#CLIPPATH_85)"  ><clipPath id="CLIPPATH_85" ><rect transform="matrix(1 0 0 1 13.68 58.53)" id="clip0_1106_114" x="-90" y="-90" rx="0" ry="0" width="180" height="180" /></clipPath><path style="stroke: rgb(0,0,0); stroke-width: 2.11131; stroke-dasharray: none; stroke-linecap: round; stroke-dashoffset: 0; stroke-linejoin: miter; stroke-miterlimit: 4; fill: none; fill-rule: nonzero; opacity: 1;"  transform=" translate(-76.32, -31.47)" d="M 70.9377 20.9111 C 69.3713 20.9111 65.9794 22.6002 67.0394 28.3007 C 67.8873 32.8611 68.8205 34.9218 70.0924 36.3998 C 71.3644 37.8777 73.0603 39.5667 75.6042 40.3352 L 81.8413 41.9162 C 81.8662 41.9225 81.8916 41.9265 81.9171 41.9282 L 83.2693 42.018 C 83.3308 42.0221 83.3918 42.0133 83.4487 41.9896 C 84.7288 41.4553 86.7629 39.7646 85.2705 36.9571" stroke-linecap="round" /></g><g transform="matrix(1 0 0 1 6.78 -63.43)" clip-path="url(#CLIPPATH_86)"  ><clipPath id="CLIPPATH_86" ><rect transform="matrix(1 0 0 1 -6.78 63.43)" id="clip0_1106_114" x="-90" y="-90" rx="0" ry="0" width="180" height="180" /></clipPath><path style="stroke: rgb(0,0,0); stroke-width: 2.11131; stroke-dasharray: none; stroke-linecap: round; stroke-dashoffset: 0; stroke-linejoin: miter; stroke-miterlimit: 4; fill: none; fill-rule: nonzero; opacity: 1;"  transform=" translate(-96.78, -26.57)" d="M 122.714 39.1435 L 115.369 35.5791 C 115.239 35.5162 115.152 35.3957 115.133 35.253 C 114.476 30.381 110.584 20.4937 99.8977 18.1655 C 89.0438 15.8008 81.2426 14.5059 78.6987 14.154 C 75.9428 13.6614 70.5158 14.0695 70.855 19.6434 C 70.8815 20.0792 70.9091 20.5015 70.9375 20.9102 C 71.272 25.7288 72.4241 27.3202 73.908 29.5666 C 76.2844 33.0527 78.7388 34.5588 79.8437 35.1321 C 81.8784 36.1877 87.3901 38.6452 87.8142 33.3669 L 87.8142 31.2381" stroke-linecap="round" /></g><g transform="matrix(1 0 0 1 3.27 -64.22)" clip-path="url(#CLIPPATH_87)"  ><clipPath id="CLIPPATH_87" ><rect transform="matrix(1 0 0 1 -3.27 64.22)" id="clip0_1106_114" x="-90" y="-90" rx="0" ry="0" width="180" height="180" /></clipPath><path style="stroke: rgb(0,0,0); stroke-width: 2.11131; stroke-dasharray: none; stroke-linecap: round; stroke-dashoffset: 0; stroke-linejoin: miter; stroke-miterlimit: 4; fill: none; fill-rule: nonzero; opacity: 1;"  transform=" translate(-93.27, -25.78)" d="M 99.899 18.166 C 96.9311 18.3771 87.2219 19.8973 82.3037 20.9107 C 77.3855 21.9242 78.5586 26.2594 79.7598 28.3003 C 82.1483 31.6702 91.1396 31.1937 93.2238 29.8414 C 93.4187 29.7149 93.6912 29.6841 93.8766 29.8242 C 99.1991 33.8457 100.767 33.3675 107.828 33.3675" stroke-linecap="round" /></g><g transform="matrix(1 0 0 1 -4.73 -38)" clip-path="url(#CLIPPATH_88)"  ><clipPath id="CLIPPATH_88" ><rect transform="matrix(1 0 0 1 4.73 38)" id="clip0_1106_114" x="-90" y="-90" rx="0" ry="0" width="180" height="180" /></clipPath><path style="stroke: rgb(0,0,0); stroke-width: 2.11131; stroke-dasharray: none; stroke-linecap: round; stroke-dashoffset: 0; stroke-linejoin: miter; stroke-miterlimit: 4; fill: none; fill-rule: nonzero; opacity: 1;"  transform=" translate(-85.27, -52)" d="M 85.2695 40.6025 L 85.2695 63.4047" stroke-linecap="round" /></g><g transform="matrix(1 0 0 1 -4.02 -22.54)" clip-path="url(#CLIPPATH_89)"  ><clipPath id="CLIPPATH_89" ><rect transform="matrix(1 0 0 1 4.02 22.54)" id="clip0_1106_114" x="-90" y="-90" rx="0" ry="0" width="180" height="180" /></clipPath><rect style="stroke: rgb(0,0,0); stroke-width: 4.11526; stroke-dasharray: none; stroke-linecap: butt; stroke-dashoffset: 0; stroke-linejoin: miter; stroke-miterlimit: 4; fill: none; fill-rule: nonzero; opacity: 1;"  x="-8.6856" y="-4.52679" rx="4.52679" ry="4.52679" width="17.3712" height="9.05358" /></g><g transform="matrix(1 0 0 1 -4.03 -1.97)" clip-path="url(#CLIPPATH_90)"  ><clipPath id="CLIPPATH_90" ><rect transform="matrix(1 0 0 1 4.03 1.97)" id="clip0_1106_114" x="-90" y="-90" rx="0" ry="0" width="180" height="180" /></clipPath><path style="stroke: rgb(0,0,0); stroke-width: 4.11526; stroke-dasharray: none; stroke-linecap: round; stroke-dashoffset: 0; stroke-linejoin: miter; stroke-miterlimit: 4; fill: none; fill-rule: nonzero; opacity: 1;"  transform=" translate(-85.97, -88.03)" d="M 85.9727 73.2168 L 85.9727 102.847" stroke-linecap="round" /></g><g transform="matrix(1 0 0 1 37.91 -31.99)" clip-path="url(#CLIPPATH_91)"  ><clipPath id="CLIPPATH_91" ><rect transform="matrix(1 0 0 1 -37.91 31.99)" id="clip0_1106_114" x="-90" y="-90" rx="0" ry="0" width="180" height="180" /></clipPath><path style="stroke: rgb(0,0,0); stroke-width: 2.11131; stroke-dasharray: none; stroke-linecap: round; stroke-dashoffset: 0; stroke-linejoin: miter; stroke-miterlimit: 4; fill: none; fill-rule: nonzero; opacity: 1;"  transform=" translate(-127.91, -58.01)" d="M 133.319 77.1655 L 109.152 63.6532 C 106.043 58.0934 103.768 45.8761 117.844 40.64 C 130.769 35.8319 143.065 41.8887 149.001 45.2669" stroke-linecap="round" /></g><g transform="matrix(1 0 0 1 -10.84 4.73)" clip-path="url(#CLIPPATH_92)"  ><clipPath id="CLIPPATH_92" ><rect transform="matrix(1 0 0 1 10.84 -4.73)" id="clip0_1106_114" x="-90" y="-90" rx="0" ry="0" width="180" height="180" /></clipPath><path style="stroke: none; stroke-width: 1; stroke-dasharray: none; stroke-linecap: butt; stroke-dashoffset: 0; stroke-linejoin: miter; stroke-miterlimit: 4; fill: rgb(0,0,0); fill-rule: nonzero; opacity: 1;"  transform=" translate(-79.16, -94.73)" d="M 73.984 88.5537 L 84.3274 88.5537 C 85.2366 88.5537 85.9736 89.2907 85.9736 90.1998 L 85.9736 99.2534 C 85.9736 100.163 85.2366 100.899 84.3274 100.899 L 77.7028 100.899 C 76.7937 100.899 76.0567 100.163 76.0567 99.2534 L 76.0567 98.0188 C 76.0567 97.1097 76.7937 96.3727 77.7028 96.3727 L 77.922 96.3727 C 78.7175 96.3727 79.3623 95.7278 79.3623 94.9324 C 79.3623 94.1369 78.7175 93.492 77.922 93.492 L 73.984 93.492 C 73.0749 93.492 72.3379 92.755 72.3379 91.8459 L 72.3379 90.1998 C 72.3379 89.2907 73.0749 88.5537 73.984 88.5537 Z" stroke-linecap="round" /></g></g></g></svg>